  0
SECTION
  2
HEADER
  9
$ACADVER
  1
AC1009
  9
$INSUNITS
 70
     1
  0
ENDSEC
  0
SECTION
  2
TABLES
  0
TABLE
  2
LAYER
 70
     8
  0
LAYER
  2
0
 62
     7
 70
0
  6
CONTINUOUS
  0
LAYER
  2
1
 62
     1
 70
0
  6
CONTINUOUS
  0
LAYER
  2
2
 62
     2
 70
0
  6
CONTINUOUS
  0
LAYER
  2
3
 62
     3
 70
0
  6
CONTINUOUS
  0
LAYER
  2
4
 62
     4
 70
0
  6
CONTINUOUS
  0
LAYER
  2
5
 62
     5
 70
0
  6
CONTINUOUS
  0
LAYER
  2
6
 62
     6
 70
0
  6
CONTINUOUS
  0
LAYER
  2
7
 62
     7
 70
0
  6
CONTINUOUS
  0
ENDTAB
  0
TABLE
  2
STYLE
 70
     1
  0
STYLE
 70
     0
  2
STANDARD
  3
TXT
 40
0.00
 41
1.00
 42
1.00
 50
0.00
 71
     0
  0
ENDTAB
  0
ENDSEC
  0
SECTION
  2
BLOCKS
  0
BLOCK
  8
0
  2
EPAD
 70
0
 10
0.0
 20
0.0
  0
POLYLINE
  8
0
 66
1
 70
1
 40
0.5
 41
0.5
  0
VERTEX
  8
0
 10
-0.25
 20
0.0
 42
1.0
  0
VERTEX
  8
0
 10
0.25
 20
0.0
 42
1.0
  0
SEQEND
  8
0
  0
ENDBLK
  8
0
  0
BLOCK
  8
0
  2
RPAD
 70
0
 10
0.0
 20
0.0
  0
TRACE
  8
0
 10
-0.5
 20
-0.5
 11
-0.5
 21
0.5
 12
0.5
 22
-0.5
 13
0.5
 23
0.5
  0
ENDBLK
  8
0
  0
ENDSEC
0
SECTION
2
ENTITIES
0
INSERT
8
0
2
EPAD
10
0.715000
20
0.197500
41
0.070000
42
0.070000
0
CIRCLE
8
0
10
0.715000
20
0.197500
40
0.025000
0
INSERT
8
0
2
EPAD
10
0.715000
20
-0.202500
41
0.070000
42
0.070000
0
CIRCLE
8
0
10
0.715000
20
-0.202500
40
0.025000
0
INSERT
8
0
2
RPAD
10
0.300000
20
0.317500
41
0.080000
42
0.080000
50
0.000000
0
CIRCLE
8
0
10
0.300000
20
0.317500
40
0.025000
0
INSERT
8
0
2
RPAD
10
0.400000
20
0.317500
41
0.080000
42
0.080000
50
0.000000
0
CIRCLE
8
0
10
0.400000
20
0.317500
40
0.025000
0
INSERT
8
0
2
RPAD
10
0.500000
20
0.317500
41
0.080000
42
0.080000
50
0.000000
0
CIRCLE
8
0
10
0.500000
20
0.317500
40
0.025000
0
INSERT
8
0
2
RPAD
10
-0.315000
20
0.447500
41
0.080000
42
0.080000
50
0.000000
0
CIRCLE
8
0
10
-0.315000
20
0.447500
40
0.025000
0
INSERT
8
0
2
RPAD
10
-0.215000
20
0.447500
41
0.080000
42
0.080000
50
0.000000
0
CIRCLE
8
0
10
-0.215000
20
0.447500
40
0.025000
0
INSERT
8
0
2
RPAD
10
-0.115000
20
0.447500
41
0.080000
42
0.080000
50
0.000000
0
CIRCLE
8
0
10
-0.115000
20
0.447500
40
0.025000
0
INSERT
8
0
2
RPAD
10
-0.015000
20
0.447500
41
0.080000
42
0.080000
50
0.000000
0
CIRCLE
8
0
10
-0.015000
20
0.447500
40
0.025000
0
INSERT
8
0
2
RPAD
10
0.085000
20
0.447500
41
0.080000
42
0.080000
50
0.000000
0
CIRCLE
8
0
10
0.085000
20
0.447500
40
0.025000
0
INSERT
8
0
2
RPAD
10
0.185000
20
0.447500
41
0.080000
42
0.080000
50
0.000000
0
CIRCLE
8
0
10
0.185000
20
0.447500
40
0.025000
0
INSERT
8
0
2
RPAD
10
-0.785000
20
0.347500
41
0.080000
42
0.080000
50
0.000000
0
CIRCLE
8
0
10
-0.785000
20
0.347500
40
0.025000
0
INSERT
8
0
2
RPAD
10
-0.685000
20
0.347500
41
0.080000
42
0.080000
50
0.000000
0
CIRCLE
8
0
10
-0.685000
20
0.347500
40
0.025000
0
INSERT
8
0
2
RPAD
10
-0.585000
20
0.347500
41
0.080000
42
0.080000
50
0.000000
0
CIRCLE
8
0
10
-0.585000
20
0.347500
40
0.025000
0
INSERT
8
0
2
RPAD
10
-0.485000
20
0.347500
41
0.080000
42
0.080000
50
0.000000
0
CIRCLE
8
0
10
-0.485000
20
0.347500
40
0.025000
0
INSERT
8
0
2
EPAD
10
-0.180355
20
0.232855
41
0.040000
42
0.040000
0
CIRCLE
8
0
10
-0.180355
20
0.232855
40
0.015000
0
INSERT
8
0
2
EPAD
10
-0.145000
20
0.197500
41
0.040000
42
0.040000
0
CIRCLE
8
0
10
-0.145000
20
0.197500
40
0.015000
0
INSERT
8
0
2
EPAD
10
-0.109644
20
0.162144
41
0.040000
42
0.040000
0
CIRCLE
8
0
10
-0.109644
20
0.162144
40
0.015000
0
INSERT
8
0
2
EPAD
10
-0.180356
20
0.012855
41
0.040000
42
0.040000
0
CIRCLE
8
0
10
-0.180356
20
0.012855
40
0.015000
0
INSERT
8
0
2
EPAD
10
-0.145000
20
-0.022500
41
0.040000
42
0.040000
0
CIRCLE
8
0
10
-0.145000
20
-0.022500
40
0.015000
0
INSERT
8
0
2
EPAD
10
-0.109645
20
-0.057856
41
0.040000
42
0.040000
0
CIRCLE
8
0
10
-0.109645
20
-0.057856
40
0.015000
0
INSERT
8
0
2
EPAD
10
-0.180356
20
-0.202145
41
0.040000
42
0.040000
0
CIRCLE
8
0
10
-0.180356
20
-0.202145
40
0.015000
0
INSERT
8
0
2
EPAD
10
-0.145000
20
-0.237500
41
0.040000
42
0.040000
0
CIRCLE
8
0
10
-0.145000
20
-0.237500
40
0.015000
0
INSERT
8
0
2
EPAD
10
-0.109645
20
-0.272856
41
0.040000
42
0.040000
0
CIRCLE
8
0
10
-0.109645
20
-0.272856
40
0.015000
0
INSERT
8
0
2
EPAD
10
0.039644
20
0.232855
41
0.040000
42
0.040000
0
CIRCLE
8
0
10
0.039644
20
0.232855
40
0.015000
0
INSERT
8
0
2
EPAD
10
0.075000
20
0.197500
41
0.040000
42
0.040000
0
CIRCLE
8
0
10
0.075000
20
0.197500
40
0.015000
0
INSERT
8
0
2
EPAD
10
0.110355
20
0.162144
41
0.040000
42
0.040000
0
CIRCLE
8
0
10
0.110355
20
0.162144
40
0.015000
0
INSERT
8
0
2
EPAD
10
0.039645
20
0.012856
41
0.040000
42
0.040000
0
CIRCLE
8
0
10
0.039645
20
0.012856
40
0.015000
0
INSERT
8
0
2
EPAD
10
0.075000
20
-0.022500
41
0.040000
42
0.040000
0
CIRCLE
8
0
10
0.075000
20
-0.022500
40
0.015000
0
INSERT
8
0
2
EPAD
10
0.110356
20
-0.057855
41
0.040000
42
0.040000
0
CIRCLE
8
0
10
0.110356
20
-0.057855
40
0.015000
0
INSERT
8
0
2
EPAD
10
0.034645
20
-0.207144
41
0.040000
42
0.040000
0
CIRCLE
8
0
10
0.034645
20
-0.207144
40
0.015000
0
INSERT
8
0
2
EPAD
10
0.070000
20
-0.242500
41
0.040000
42
0.040000
0
CIRCLE
8
0
10
0.070000
20
-0.242500
40
0.015000
0
INSERT
8
0
2
EPAD
10
0.105356
20
-0.277855
41
0.040000
42
0.040000
0
CIRCLE
8
0
10
0.105356
20
-0.277855
40
0.015000
0
INSERT
8
0
2
EPAD
10
-0.335000
20
0.197500
41
0.070000
42
0.070000
0
CIRCLE
8
0
10
-0.335000
20
0.197500
40
0.025000
0
INSERT
8
0
2
EPAD
10
-0.335000
20
-0.202500
41
0.070000
42
0.070000
0
CIRCLE
8
0
10
-0.335000
20
-0.202500
40
0.025000
0
INSERT
8
0
2
EPAD
10
-0.415000
20
0.197500
41
0.070000
42
0.070000
0
CIRCLE
8
0
10
-0.415000
20
0.197500
40
0.025000
0
INSERT
8
0
2
EPAD
10
-0.415000
20
-0.202500
41
0.070000
42
0.070000
0
CIRCLE
8
0
10
-0.415000
20
-0.202500
40
0.025000
0
INSERT
8
0
2
EPAD
10
-0.495000
20
0.197500
41
0.070000
42
0.070000
0
CIRCLE
8
0
10
-0.495000
20
0.197500
40
0.025000
0
INSERT
8
0
2
EPAD
10
-0.495000
20
-0.202500
41
0.070000
42
0.070000
0
CIRCLE
8
0
10
-0.495000
20
-0.202500
40
0.025000
0
INSERT
8
0
2
EPAD
10
-0.585000
20
0.197500
41
0.070000
42
0.070000
0
CIRCLE
8
0
10
-0.585000
20
0.197500
40
0.025000
0
INSERT
8
0
2
EPAD
10
-0.585000
20
-0.202500
41
0.070000
42
0.070000
0
CIRCLE
8
0
10
-0.585000
20
-0.202500
40
0.025000
0
INSERT
8
0
2
EPAD
10
-0.665000
20
0.192500
41
0.070000
42
0.070000
0
CIRCLE
8
0
10
-0.665000
20
0.192500
40
0.025000
0
INSERT
8
0
2
EPAD
10
-0.665000
20
-0.207500
41
0.070000
42
0.070000
0
CIRCLE
8
0
10
-0.665000
20
-0.207500
40
0.025000
0
INSERT
8
0
2
EPAD
10
-0.745000
20
0.197499
41
0.070000
42
0.070000
0
CIRCLE
8
0
10
-0.745000
20
0.197499
40
0.025000
0
INSERT
8
0
2
EPAD
10
-0.745000
20
-0.202501
41
0.070000
42
0.070000
0
CIRCLE
8
0
10
-0.745000
20
-0.202501
40
0.025000
0
INSERT
8
0
2
EPAD
10
0.235000
20
0.197500
41
0.070000
42
0.070000
0
CIRCLE
8
0
10
0.235000
20
0.197500
40
0.025000
0
INSERT
8
0
2
EPAD
10
0.235000
20
-0.202500
41
0.070000
42
0.070000
0
CIRCLE
8
0
10
0.235000
20
-0.202500
40
0.025000
0
INSERT
8
0
2
EPAD
10
0.315000
20
0.197500
41
0.070000
42
0.070000
0
CIRCLE
8
0
10
0.315000
20
0.197500
40
0.025000
0
INSERT
8
0
2
EPAD
10
0.315000
20
-0.202500
41
0.070000
42
0.070000
0
CIRCLE
8
0
10
0.315000
20
-0.202500
40
0.025000
0
INSERT
8
0
2
EPAD
10
0.475000
20
0.197500
41
0.070000
42
0.070000
0
CIRCLE
8
0
10
0.475000
20
0.197500
40
0.025000
0
INSERT
8
0
2
EPAD
10
0.475000
20
-0.202500
41
0.070000
42
0.070000
0
CIRCLE
8
0
10
0.475000
20
-0.202500
40
0.025000
0
INSERT
8
0
2
EPAD
10
0.395000
20
0.197500
41
0.070000
42
0.070000
0
CIRCLE
8
0
10
0.395000
20
0.197500
40
0.025000
0
INSERT
8
0
2
EPAD
10
0.395000
20
-0.202500
41
0.070000
42
0.070000
0
CIRCLE
8
0
10
0.395000
20
-0.202500
40
0.025000
0
INSERT
8
0
2
EPAD
10
0.635000
20
0.197500
41
0.070000
42
0.070000
0
CIRCLE
8
0
10
0.635000
20
0.197500
40
0.025000
0
INSERT
8
0
2
EPAD
10
0.635000
20
-0.202500
41
0.070000
42
0.070000
0
CIRCLE
8
0
10
0.635000
20
-0.202500
40
0.025000
0
INSERT
8
0
2
EPAD
10
0.555000
20
0.197500
41
0.070000
42
0.070000
0
CIRCLE
8
0
10
0.555000
20
0.197500
40
0.025000
0
INSERT
8
0
2
EPAD
10
0.555000
20
-0.202500
41
0.070000
42
0.070000
0
CIRCLE
8
0
10
0.555000
20
-0.202500
40
0.025000
0
INSERT
8
0
2
RPAD
10
0.815000
20
-0.112500
41
0.080000
42
0.080000
50
-270.000000
0
CIRCLE
8
0
10
0.815000
20
-0.112500
40
0.025000
0
INSERT
8
0
2
RPAD
10
0.815000
20
-0.012500
41
0.080000
42
0.080000
50
-270.000000
0
CIRCLE
8
0
10
0.815000
20
-0.012500
40
0.025000
0
INSERT
8
0
2
RPAD
10
0.815000
20
0.087500
41
0.080000
42
0.080000
50
-270.000000
0
CIRCLE
8
0
10
0.815000
20
0.087500
40
0.025000
0
INSERT
8
0
2
RPAD
10
-0.365000
20
-0.577500
41
0.090000
42
0.090000
50
0.000000
0
CIRCLE
8
0
10
-0.365000
20
-0.577500
40
0.030000
0
INSERT
8
0
2
RPAD
10
-0.365000
20
-0.333406
41
0.090000
42
0.090000
50
0.000000
0
CIRCLE
8
0
10
-0.365000
20
-0.333406
40
0.030000
0
INSERT
8
0
2
RPAD
10
-0.570000
20
-0.577500
41
0.090000
42
0.090000
50
0.000000
0
CIRCLE
8
0
10
-0.570000
20
-0.577500
40
0.030000
0
INSERT
8
0
2
RPAD
10
-0.570000
20
-0.333406
41
0.090000
42
0.090000
50
0.000000
0
CIRCLE
8
0
10
-0.570000
20
-0.333406
40
0.030000
0
INSERT
8
0
2
RPAD
10
-0.570000
20
0.517500
41
0.080000
42
0.080000
50
-180.000000
0
CIRCLE
8
0
10
-0.570000
20
0.517500
40
0.025000
0
INSERT
8
0
2
RPAD
10
-0.670000
20
0.517500
41
0.080000
42
0.080000
50
-180.000000
0
CIRCLE
8
0
10
-0.670000
20
0.517500
40
0.025000
0
INSERT
8
0
2
RPAD
10
-0.780000
20
-0.357500
41
0.080000
42
0.080000
50
-90.000000
0
CIRCLE
8
0
10
-0.780000
20
-0.357500
40
0.025000
0
INSERT
8
0
2
RPAD
10
-0.780000
20
-0.457500
41
0.080000
42
0.080000
50
-90.000000
0
CIRCLE
8
0
10
-0.780000
20
-0.457500
40
0.025000
0
INSERT
8
0
2
RPAD
10
-0.780000
20
-0.557500
41
0.080000
42
0.080000
50
-90.000000
0
CIRCLE
8
0
10
-0.780000
20
-0.557500
40
0.025000
0
INSERT
8
0
2
RPAD
10
0.685000
20
0.337500
41
0.080000
42
0.080000
50
0.000000
0
CIRCLE
8
0
10
0.685000
20
0.337500
40
0.025000
0
INSERT
8
0
2
RPAD
10
0.785000
20
0.337500
41
0.080000
42
0.080000
50
0.000000
0
CIRCLE
8
0
10
0.785000
20
0.337500
40
0.025000
0
INSERT
8
0
2
EPAD
10
0.280000
20
0.447500
41
0.070000
42
0.070000
0
CIRCLE
8
0
10
0.280000
20
0.447500
40
0.039370
0
INSERT
8
0
2
EPAD
10
0.680000
20
0.447500
41
0.070000
42
0.070000
0
CIRCLE
8
0
10
0.680000
20
0.447500
40
0.039370
0
INSERT
8
0
2
EPAD
10
-0.820000
20
0.577500
41
0.070000
42
0.070000
0
CIRCLE
8
0
10
-0.820000
20
0.577500
40
0.039370
0
INSERT
8
0
2
EPAD
10
0.845000
20
-0.317500
41
0.070000
42
0.070000
0
CIRCLE
8
0
10
0.845000
20
-0.317500
40
0.039370
0
INSERT
8
0
2
EPAD
10
0.840000
20
0.487500
41
0.070000
42
0.070000
0
CIRCLE
8
0
10
0.840000
20
0.487500
40
0.039370
0
POLYLINE
8
0
66
1
40
0.008000
41
0.008000
0
VERTEX
8
0
10
-0.920000
20
-0.687500
0
VERTEX
8
0
10
-0.245000
20
-0.687500
0
VERTEX
8
0
10
-0.040000
20
-0.392500
0
VERTEX
8
0
10
0.920000
20
-0.392500
0
SEQEND
8
0
0
POLYLINE
8
0
66
1
40
0.008000
41
0.008000
0
VERTEX
8
0
10
-0.920000
20
-0.687500
0
VERTEX
8
0
10
-0.920000
20
0.687500
0
VERTEX
8
0
10
0.920000
20
0.687500
0
SEQEND
8
0
0
POLYLINE
8
0
66
1
40
0.008000
41
0.008000
0
VERTEX
8
0
10
0.920000
20
-0.392500
0
VERTEX
8
0
10
0.920000
20
0.687500
0
SEQEND
8
0
0
ENDSEC
0
EOF

