  0
SECTION
  2
HEADER
  9
$ACADVER
  1
AC1009
  9
$INSUNITS
 70
     1
  0
ENDSEC
  0
SECTION
  2
TABLES
  0
TABLE
  2
LAYER
 70
     8
  0
LAYER
  2
0
 62
     7
 70
0
  6
CONTINUOUS
  0
LAYER
  2
1
 62
     1
 70
0
  6
CONTINUOUS
  0
LAYER
  2
2
 62
     2
 70
0
  6
CONTINUOUS
  0
LAYER
  2
3
 62
     3
 70
0
  6
CONTINUOUS
  0
LAYER
  2
4
 62
     4
 70
0
  6
CONTINUOUS
  0
LAYER
  2
5
 62
     5
 70
0
  6
CONTINUOUS
  0
LAYER
  2
6
 62
     6
 70
0
  6
CONTINUOUS
  0
LAYER
  2
7
 62
     7
 70
0
  6
CONTINUOUS
  0
ENDTAB
  0
TABLE
  2
STYLE
 70
     1
  0
STYLE
 70
     0
  2
STANDARD
  3
TXT
 40
0.00
 41
1.00
 42
1.00
 50
0.00
 71
     0
  0
ENDTAB
  0
ENDSEC
  0
SECTION
  2
BLOCKS
  0
BLOCK
  8
0
  2
EPAD
 70
0
 10
0.0
 20
0.0
  0
POLYLINE
  8
0
 66
1
 70
1
 40
0.5
 41
0.5
  0
VERTEX
  8
0
 10
-0.25
 20
0.0
 42
1.0
  0
VERTEX
  8
0
 10
0.25
 20
0.0
 42
1.0
  0
SEQEND
  8
0
  0
ENDBLK
  8
0
  0
BLOCK
  8
0
  2
RPAD
 70
0
 10
0.0
 20
0.0
  0
TRACE
  8
0
 10
-0.5
 20
-0.5
 11
-0.5
 21
0.5
 12
0.5
 22
-0.5
 13
0.5
 23
0.5
  0
ENDBLK
  8
0
  0
ENDSEC
0
SECTION
2
ENTITIES
0
POLYLINE
8
0
66
1
40
0.010000
41
0.010000
0
VERTEX
8
0
10
-0.335000
20
0.197500
0
VERTEX
8
0
10
-0.299644
20
0.162144
0
VERTEX
8
0
10
-0.109644
20
0.162144
0
SEQEND
8
0
0
POLYLINE
8
0
66
1
40
0.010000
41
0.010000
0
VERTEX
8
0
10
-0.745000
20
-0.202501
0
VERTEX
8
0
10
-0.699999
20
-0.157500
0
VERTEX
8
0
10
-0.630000
20
-0.157500
0
VERTEX
8
0
10
-0.585000
20
-0.202500
0
VERTEX
8
0
10
-0.535031
20
-0.152531
0
VERTEX
8
0
10
-0.474254
20
-0.152531
0
VERTEX
8
0
10
-0.425000
20
-0.201786
0
VERTEX
8
0
10
-0.425000
20
-0.202500
0
VERTEX
8
0
10
-0.415000
20
-0.202500
0
SEQEND
8
0
0
POLYLINE
8
0
66
1
40
0.010000
41
0.010000
0
VERTEX
8
0
10
-0.415000
20
0.197500
0
VERTEX
8
0
10
-0.365023
20
0.247477
0
VERTEX
8
0
10
-0.194977
20
0.247477
0
VERTEX
8
0
10
-0.180355
20
0.232855
0
SEQEND
8
0
0
POLYLINE
8
0
66
1
40
0.010000
41
0.010000
0
VERTEX
8
0
10
-0.495000
20
0.197500
0
VERTEX
8
0
10
-0.438730
20
0.141230
0
VERTEX
8
0
10
-0.175880
20
0.141230
0
VERTEX
8
0
10
-0.110000
20
0.075350
0
VERTEX
8
0
10
-0.110000
20
-0.057500
0
VERTEX
8
0
10
-0.109645
20
-0.057856
0
SEQEND
8
0
0
POLYLINE
8
0
66
1
40
0.010000
41
0.010000
0
VERTEX
8
0
10
-0.585000
20
0.197500
0
VERTEX
8
0
10
-0.535004
20
0.147503
0
VERTEX
8
0
10
-0.473257
20
0.147503
0
VERTEX
8
0
10
-0.446964
20
0.121211
0
VERTEX
8
0
10
-0.232407
20
0.121211
0
VERTEX
8
0
10
-0.181580
20
0.070383
0
VERTEX
8
0
10
-0.180356
20
0.069159
0
VERTEX
8
0
10
-0.180356
20
0.012855
0
SEQEND
8
0
0
POLYLINE
8
0
66
1
40
0.010000
41
0.010000
0
VERTEX
8
0
10
-0.665000
20
0.192500
0
VERTEX
8
0
10
-0.594228
20
0.121727
0
VERTEX
8
0
10
-0.475773
20
0.121727
0
VERTEX
8
0
10
-0.455256
20
0.101211
0
VERTEX
8
0
10
-0.300000
20
0.101211
0
VERTEX
8
0
10
-0.300000
20
0.040287
0
VERTEX
8
0
10
-0.110133
20
-0.149580
0
VERTEX
8
0
10
-0.110133
20
-0.232367
0
VERTEX
8
0
10
-0.110000
20
-0.232500
0
VERTEX
8
0
10
-0.110000
20
-0.272500
0
VERTEX
8
0
10
-0.109645
20
-0.272856
0
SEQEND
8
0
0
POLYLINE
8
0
66
1
40
0.010000
41
0.010000
0
VERTEX
8
0
10
-0.745000
20
0.197499
0
VERTEX
8
0
10
-0.649228
20
0.101728
0
VERTEX
8
0
10
-0.488345
20
0.101728
0
VERTEX
8
0
10
-0.484059
20
0.101728
0
VERTEX
8
0
10
-0.463539
20
0.081207
0
VERTEX
8
0
10
-0.322429
20
0.081207
0
VERTEX
8
0
10
-0.322429
20
0.034441
0
VERTEX
8
0
10
-0.180356
20
-0.107632
0
VERTEX
8
0
10
-0.180356
20
-0.202145
0
SEQEND
8
0
0
POLYLINE
8
0
66
1
40
0.010000
41
0.010000
0
VERTEX
8
0
10
0.235000
20
0.197500
0
VERTEX
8
0
10
0.199644
20
0.162144
0
VERTEX
8
0
10
0.110355
20
0.162144
0
SEQEND
8
0
0
POLYLINE
8
0
66
1
40
0.010000
41
0.010000
0
VERTEX
8
0
10
0.315000
20
0.197500
0
VERTEX
8
0
10
0.264896
20
0.247604
0
VERTEX
8
0
10
0.054393
20
0.247604
0
VERTEX
8
0
10
0.039644
20
0.232855
0
SEQEND
8
0
0
POLYLINE
8
0
66
1
40
0.010000
41
0.010000
0
VERTEX
8
0
10
0.395000
20
0.197500
0
VERTEX
8
0
10
0.339648
20
0.142148
0
VERTEX
8
0
10
0.175000
20
0.142148
0
VERTEX
8
0
10
0.045707
20
0.012856
0
VERTEX
8
0
10
0.039645
20
0.012856
0
SEQEND
8
0
0
POLYLINE
8
0
66
1
40
0.010000
41
0.010000
0
VERTEX
8
0
10
0.475000
20
0.197500
0
VERTEX
8
0
10
0.424917
20
0.147417
0
VERTEX
8
0
10
0.373185
20
0.147417
0
VERTEX
8
0
10
0.347930
20
0.122162
0
VERTEX
8
0
10
0.214481
20
0.122162
0
VERTEX
8
0
10
0.110356
20
0.018037
0
VERTEX
8
0
10
0.110356
20
-0.057855
0
SEQEND
8
0
0
POLYLINE
8
0
66
1
40
0.010000
41
0.010000
0
VERTEX
8
0
10
0.034645
20
-0.207144
0
VERTEX
8
0
10
0.343953
20
0.102163
0
VERTEX
8
0
10
0.360398
20
0.102163
0
VERTEX
8
0
10
0.385641
20
0.127406
0
VERTEX
8
0
10
0.484906
20
0.127406
0
VERTEX
8
0
10
0.555000
20
0.197500
0
SEQEND
8
0
0
POLYLINE
8
0
66
1
40
0.010000
41
0.010000
0
VERTEX
8
0
10
0.105356
20
-0.277855
0
VERTEX
8
0
10
0.105356
20
-0.164719
0
VERTEX
8
0
10
0.352157
20
0.082083
0
VERTEX
8
0
10
0.369594
20
0.082083
0
VERTEX
8
0
10
0.394901
20
0.107389
0
VERTEX
8
0
10
0.535592
20
0.107389
0
VERTEX
8
0
10
0.625702
20
0.197500
0
VERTEX
8
0
10
0.635000
20
0.197500
0
SEQEND
8
0
0
POLYLINE
8
0
66
1
40
0.010000
41
0.010000
0
VERTEX
8
0
10
-0.665000
20
-0.207500
0
VERTEX
8
0
10
-0.620000
20
-0.252500
0
VERTEX
8
0
10
-0.548279
20
-0.252500
0
VERTEX
8
0
10
-0.530000
20
-0.234221
0
VERTEX
8
0
10
-0.495000
20
-0.202500
0
VERTEX
8
0
10
-0.443431
20
-0.254069
0
VERTEX
8
0
10
-0.386569
20
-0.254069
0
VERTEX
8
0
10
-0.335000
20
-0.202500
0
VERTEX
8
0
10
-0.300000
20
-0.237500
0
VERTEX
8
0
10
-0.152833
20
-0.237500
0
VERTEX
8
0
10
-0.150883
20
-0.235550
0
VERTEX
8
0
10
-0.145000
20
-0.237500
0
SEQEND
8
0
0
POLYLINE
8
0
66
1
40
0.010000
41
0.010000
0
VERTEX
8
0
10
0.065000
20
-0.247500
0
VERTEX
8
0
10
0.065000
20
-0.287218
0
VERTEX
8
0
10
0.093398
20
-0.315616
0
VERTEX
8
0
10
0.121884
20
-0.315616
0
VERTEX
8
0
10
0.235000
20
-0.202500
0
SEQEND
8
0
0
POLYLINE
8
0
66
1
40
0.010000
41
0.010000
0
VERTEX
8
0
10
-0.145000
20
-0.237500
0
VERTEX
8
0
10
-0.145000
20
-0.288002
0
VERTEX
8
0
10
-0.124739
20
-0.308263
0
VERTEX
8
0
10
0.004237
20
-0.308263
0
VERTEX
8
0
10
0.065000
20
-0.247500
0
VERTEX
8
0
10
0.070000
20
-0.242500
0
SEQEND
8
0
0
POLYLINE
8
0
66
1
40
0.010000
41
0.010000
0
VERTEX
8
0
10
0.235000
20
-0.202500
0
VERTEX
8
0
10
0.286024
20
-0.253524
0
VERTEX
8
0
10
0.423976
20
-0.253524
0
VERTEX
8
0
10
0.475000
20
-0.202500
0
VERTEX
8
0
10
0.524989
20
-0.252489
0
VERTEX
8
0
10
0.585011
20
-0.252489
0
VERTEX
8
0
10
0.635000
20
-0.202500
0
SEQEND
8
0
0
POLYLINE
8
0
66
1
40
0.010000
41
0.010000
0
VERTEX
8
0
10
0.555000
20
-0.202500
0
VERTEX
8
0
10
0.503833
20
-0.151333
0
VERTEX
8
0
10
0.446167
20
-0.151333
0
VERTEX
8
0
10
0.395000
20
-0.202500
0
VERTEX
8
0
10
0.315000
20
-0.202500
0
SEQEND
8
0
0
POLYLINE
8
0
66
1
40
0.010000
41
0.010000
0
VERTEX
8
0
10
-0.145000
20
0.197500
0
VERTEX
8
0
10
0.075000
20
0.197500
0
SEQEND
8
0
0
POLYLINE
8
0
66
1
40
0.010000
41
0.010000
0
VERTEX
8
0
10
0.075000
20
-0.022500
0
VERTEX
8
0
10
0.025518
20
-0.022500
0
VERTEX
8
0
10
-0.024795
20
-0.022500
0
VERTEX
8
0
10
-0.095115
20
-0.092819
0
VERTEX
8
0
10
-0.124137
20
-0.092819
0
VERTEX
8
0
10
-0.145000
20
-0.071957
0
VERTEX
8
0
10
-0.145000
20
-0.022500
0
SEQEND
8
0
0
POLYLINE
8
0
66
1
40
0.010000
41
0.010000
0
VERTEX
8
0
10
0.075000
20
0.197500
0
VERTEX
8
0
10
0.075000
20
0.098757
0
VERTEX
8
0
10
-0.001557
20
0.022199
0
VERTEX
8
0
10
-0.001557
20
0.018920
0
VERTEX
8
0
10
-0.001557
20
0.004576
0
VERTEX
8
0
10
0.025518
20
-0.022500
0
SEQEND
8
0
0
POLYLINE
8
0
66
1
40
0.010000
41
0.010000
0
VERTEX
8
0
10
-0.585000
20
0.197500
0
VERTEX
8
0
10
-0.585000
20
0.347500
0
VERTEX
8
0
10
-0.585000
20
0.347500
0
SEQEND
8
0
0
POLYLINE
8
0
66
1
40
0.010000
41
0.010000
0
VERTEX
8
0
10
-0.415000
20
0.197500
0
VERTEX
8
0
10
-0.415000
20
0.277500
0
VERTEX
8
0
10
-0.485000
20
0.347500
0
SEQEND
8
0
0
POLYLINE
8
0
66
1
40
0.010000
41
0.010000
0
VERTEX
8
0
10
-0.745000
20
0.197499
0
VERTEX
8
0
10
-0.685000
20
0.257499
0
VERTEX
8
0
10
-0.685000
20
0.347500
0
SEQEND
8
0
0
POLYLINE
8
0
66
1
40
0.010000
41
0.010000
0
VERTEX
8
0
10
0.039644
20
0.232855
0
VERTEX
8
0
10
-0.126213
20
0.232855
0
VERTEX
8
0
10
-0.185857
20
0.292500
0
VERTEX
8
0
10
-0.385000
20
0.292500
0
VERTEX
8
0
10
-0.415101
20
0.322601
0
VERTEX
8
0
10
-0.415101
20
0.411191
0
VERTEX
8
0
10
-0.722889
20
0.411191
0
VERTEX
8
0
10
-0.776910
20
0.357170
0
VERTEX
8
0
10
-0.776910
20
0.350889
0
VERTEX
8
0
10
-0.785000
20
0.347500
0
SEQEND
8
0
0
POLYLINE
8
0
66
1
40
0.010000
41
0.010000
0
VERTEX
8
0
10
0.400000
20
0.317500
0
VERTEX
8
0
10
0.400000
20
0.323824
0
VERTEX
8
0
10
0.456966
20
0.380790
0
VERTEX
8
0
10
0.565941
20
0.380790
0
VERTEX
8
0
10
0.565941
20
0.270534
0
VERTEX
8
0
10
0.564658
20
0.269252
0
VERTEX
8
0
10
0.717222
20
0.269252
0
VERTEX
8
0
10
0.769787
20
0.216688
0
VERTEX
8
0
10
0.769787
20
0.160278
0
VERTEX
8
0
10
0.863377
20
0.160278
0
VERTEX
8
0
10
0.889017
20
0.134637
0
VERTEX
8
0
10
0.889017
20
-0.161517
0
VERTEX
8
0
10
0.858248
20
-0.192286
0
VERTEX
8
0
10
0.725214
20
-0.192286
0
VERTEX
8
0
10
0.715000
20
-0.202500
0
SEQEND
8
0
0
POLYLINE
8
0
66
1
40
0.010000
41
0.010000
0
VERTEX
8
0
10
0.715000
20
0.197500
0
VERTEX
8
0
10
0.715000
20
-0.017500
0
VERTEX
8
0
10
0.810000
20
-0.112500
0
VERTEX
8
0
10
0.815000
20
-0.112500
0
SEQEND
8
0
0
POLYLINE
8
0
66
1
40
0.010000
41
0.010000
0
VERTEX
8
0
10
0.555000
20
-0.202500
0
VERTEX
8
0
10
0.645000
20
-0.112500
0
VERTEX
8
0
10
0.810000
20
-0.112500
0
SEQEND
8
0
0
POLYLINE
8
0
66
1
40
0.010000
41
0.010000
0
VERTEX
8
0
10
-0.780000
20
-0.357500
0
VERTEX
8
0
10
-0.605000
20
-0.357500
0
VERTEX
8
0
10
-0.600000
20
-0.352500
0
VERTEX
8
0
10
-0.570000
20
-0.333406
0
SEQEND
8
0
0
POLYLINE
8
0
66
1
40
0.010000
41
0.010000
0
VERTEX
8
0
10
-0.780000
20
-0.557500
0
VERTEX
8
0
10
-0.735453
20
-0.512953
0
VERTEX
8
0
10
-0.632726
20
-0.512953
0
VERTEX
8
0
10
-0.459372
20
-0.339599
0
VERTEX
8
0
10
-0.413000
20
-0.339599
0
VERTEX
8
0
10
-0.365000
20
-0.333406
0
SEQEND
8
0
0
POLYLINE
8
0
66
1
40
0.010000
41
0.010000
0
VERTEX
8
0
10
-0.670000
20
0.517500
0
VERTEX
8
0
10
-0.775000
20
0.412500
0
VERTEX
8
0
10
-0.850000
20
0.412500
0
VERTEX
8
0
10
-0.850000
20
0.292500
0
VERTEX
8
0
10
-0.795948
20
0.238448
0
VERTEX
8
0
10
-0.795948
20
-0.341552
0
VERTEX
8
0
10
-0.780000
20
-0.357500
0
SEQEND
8
0
0
POLYLINE
8
0
66
1
40
0.010000
41
0.010000
0
VERTEX
8
0
10
0.300000
20
0.321294
0
VERTEX
8
0
10
0.343354
20
0.268496
0
VERTEX
8
0
10
0.364357
20
0.247493
0
VERTEX
8
0
10
0.665007
20
0.247493
0
VERTEX
8
0
10
0.715000
20
0.197500
0
SEQEND
8
0
0
POLYLINE
8
0
66
1
40
0.010000
41
0.010000
0
VERTEX
8
0
10
0.280000
20
0.447500
0
VERTEX
8
0
10
0.185000
20
0.447500
0
SEQEND
8
0
0
POLYLINE
8
0
66
1
40
0.010000
41
0.010000
0
VERTEX
8
0
10
0.300000
20
0.317500
0
VERTEX
8
0
10
0.300000
20
0.321294
0
VERTEX
8
0
10
0.300000
20
0.353327
0
VERTEX
8
0
10
0.394173
20
0.447500
0
VERTEX
8
0
10
0.680000
20
0.447500
0
SEQEND
8
0
0
POLYLINE
8
0
66
1
40
0.000000
41
0.000000
0
VERTEX
8
0
10
0.692639
20
0.177500
0
VERTEX
8
0
10
0.692639
20
0.177500
0
SEQEND
8
0
0
POLYLINE
8
0
66
1
40
0.000000
41
0.000000
0
VERTEX
8
0
10
0.696576
20
0.173098
0
VERTEX
8
0
10
0.696576
20
0.181022
0
SEQEND
8
0
0
POLYLINE
8
0
66
1
40
0.000000
41
0.000000
0
VERTEX
8
0
10
0.700513
20
0.168696
0
VERTEX
8
0
10
0.700513
20
0.184543
0
SEQEND
8
0
0
POLYLINE
8
0
66
1
40
0.000000
41
0.000000
0
VERTEX
8
0
10
0.704450
20
0.164295
0
VERTEX
8
0
10
0.704450
20
0.188064
0
SEQEND
8
0
0
POLYLINE
8
0
66
1
40
0.000000
41
0.000000
0
VERTEX
8
0
10
0.708387
20
0.159893
0
VERTEX
8
0
10
0.708387
20
0.191585
0
SEQEND
8
0
0
POLYLINE
8
0
66
1
40
0.000000
41
0.000000
0
VERTEX
8
0
10
0.712324
20
0.155491
0
VERTEX
8
0
10
0.712324
20
0.195107
0
SEQEND
8
0
0
POLYLINE
8
0
66
1
40
0.000000
41
0.000000
0
VERTEX
8
0
10
0.716261
20
0.153910
0
VERTEX
8
0
10
0.716261
20
0.196372
0
SEQEND
8
0
0
POLYLINE
8
0
66
1
40
0.000000
41
0.000000
0
VERTEX
8
0
10
0.720198
20
0.158312
0
VERTEX
8
0
10
0.720198
20
0.192850
0
SEQEND
8
0
0
POLYLINE
8
0
66
1
40
0.000000
41
0.000000
0
VERTEX
8
0
10
0.724135
20
0.162713
0
VERTEX
8
0
10
0.724135
20
0.189329
0
SEQEND
8
0
0
POLYLINE
8
0
66
1
40
0.000000
41
0.000000
0
VERTEX
8
0
10
0.728072
20
0.167115
0
VERTEX
8
0
10
0.728072
20
0.185807
0
SEQEND
8
0
0
POLYLINE
8
0
66
1
40
0.000000
41
0.000000
0
VERTEX
8
0
10
0.732009
20
0.171517
0
VERTEX
8
0
10
0.732009
20
0.182286
0
SEQEND
8
0
0
POLYLINE
8
0
66
1
40
0.000000
41
0.000000
0
VERTEX
8
0
10
0.735946
20
0.175919
0
VERTEX
8
0
10
0.735946
20
0.178765
0
SEQEND
8
0
0
POLYLINE
8
0
66
1
40
0.000000
41
0.000000
0
VERTEX
8
0
10
0.737361
20
0.177500
0
VERTEX
8
0
10
0.737361
20
0.177500
0
SEQEND
8
0
0
POLYLINE
8
0
66
1
40
0.010000
41
0.010000
0
VERTEX
8
0
10
0.715000
20
0.197500
0
VERTEX
8
0
10
0.692639
20
0.177500
0
VERTEX
8
0
10
0.715000
20
0.152500
0
VERTEX
8
0
10
0.737361
20
0.177500
0
VERTEX
8
0
10
0.715000
20
0.197500
0
SEQEND
8
0
0
POLYLINE
8
0
66
1
40
0.000000
41
0.000000
0
VERTEX
8
0
10
0.739553
20
-0.219737
0
VERTEX
8
0
10
0.739553
20
-0.219737
0
SEQEND
8
0
0
POLYLINE
8
0
66
1
40
0.000000
41
0.000000
0
VERTEX
8
0
10
0.733945
20
-0.215800
0
VERTEX
8
0
10
0.742317
20
-0.215800
0
SEQEND
8
0
0
POLYLINE
8
0
66
1
40
0.000000
41
0.000000
0
VERTEX
8
0
10
0.728337
20
-0.211863
0
VERTEX
8
0
10
0.745081
20
-0.211863
0
SEQEND
8
0
0
POLYLINE
8
0
66
1
40
0.000000
41
0.000000
0
VERTEX
8
0
10
0.722729
20
-0.207926
0
VERTEX
8
0
10
0.747845
20
-0.207926
0
SEQEND
8
0
0
POLYLINE
8
0
66
1
40
0.000000
41
0.000000
0
VERTEX
8
0
10
0.717121
20
-0.203989
0
VERTEX
8
0
10
0.750609
20
-0.203989
0
SEQEND
8
0
0
POLYLINE
8
0
66
1
40
0.000000
41
0.000000
0
VERTEX
8
0
10
0.716339
20
-0.200052
0
VERTEX
8
0
10
0.753373
20
-0.200052
0
SEQEND
8
0
0
POLYLINE
8
0
66
1
40
0.000000
41
0.000000
0
VERTEX
8
0
10
0.718494
20
-0.196115
0
VERTEX
8
0
10
0.756137
20
-0.196115
0
SEQEND
8
0
0
POLYLINE
8
0
66
1
40
0.000000
41
0.000000
0
VERTEX
8
0
10
0.720648
20
-0.192178
0
VERTEX
8
0
10
0.758628
20
-0.192178
0
SEQEND
8
0
0
POLYLINE
8
0
66
1
40
0.000000
41
0.000000
0
VERTEX
8
0
10
0.722803
20
-0.188241
0
VERTEX
8
0
10
0.751434
20
-0.188241
0
SEQEND
8
0
0
POLYLINE
8
0
66
1
40
0.000000
41
0.000000
0
VERTEX
8
0
10
0.724958
20
-0.184304
0
VERTEX
8
0
10
0.744241
20
-0.184304
0
SEQEND
8
0
0
POLYLINE
8
0
66
1
40
0.000000
41
0.000000
0
VERTEX
8
0
10
0.727113
20
-0.180367
0
VERTEX
8
0
10
0.737047
20
-0.180367
0
SEQEND
8
0
0
POLYLINE
8
0
66
1
40
0.000000
41
0.000000
0
VERTEX
8
0
10
0.729267
20
-0.176430
0
VERTEX
8
0
10
0.729853
20
-0.176430
0
SEQEND
8
0
0
POLYLINE
8
0
66
1
40
0.000000
41
0.000000
0
VERTEX
8
0
10
0.729402
20
-0.176183
0
VERTEX
8
0
10
0.729402
20
-0.176183
0
SEQEND
8
0
0
POLYLINE
8
0
66
1
40
0.010000
41
0.010000
0
VERTEX
8
0
10
0.715000
20
-0.202500
0
VERTEX
8
0
10
0.739553
20
-0.219737
0
VERTEX
8
0
10
0.758825
20
-0.192286
0
VERTEX
8
0
10
0.729402
20
-0.176183
0
VERTEX
8
0
10
0.715000
20
-0.202500
0
SEQEND
8
0
0
POLYLINE
8
0
66
1
40
0.000000
41
0.000000
0
VERTEX
8
0
10
0.396521
20
0.352326
0
VERTEX
8
0
10
0.396521
20
0.352326
0
SEQEND
8
0
0
POLYLINE
8
0
66
1
40
0.000000
41
0.000000
0
VERTEX
8
0
10
0.400458
20
0.317536
0
VERTEX
8
0
10
0.400458
20
0.352720
0
SEQEND
8
0
0
POLYLINE
8
0
66
1
40
0.000000
41
0.000000
0
VERTEX
8
0
10
0.404395
20
0.317850
0
VERTEX
8
0
10
0.404395
20
0.353113
0
SEQEND
8
0
0
POLYLINE
8
0
66
1
40
0.000000
41
0.000000
0
VERTEX
8
0
10
0.408332
20
0.318164
0
VERTEX
8
0
10
0.408332
20
0.353506
0
SEQEND
8
0
0
POLYLINE
8
0
66
1
40
0.000000
41
0.000000
0
VERTEX
8
0
10
0.412269
20
0.318478
0
VERTEX
8
0
10
0.412269
20
0.353900
0
SEQEND
8
0
0
POLYLINE
8
0
66
1
40
0.000000
41
0.000000
0
VERTEX
8
0
10
0.416206
20
0.318792
0
VERTEX
8
0
10
0.416206
20
0.354293
0
SEQEND
8
0
0
POLYLINE
8
0
66
1
40
0.000000
41
0.000000
0
VERTEX
8
0
10
0.420143
20
0.319106
0
VERTEX
8
0
10
0.420143
20
0.354686
0
SEQEND
8
0
0
POLYLINE
8
0
66
1
40
0.000000
41
0.000000
0
VERTEX
8
0
10
0.424080
20
0.319420
0
VERTEX
8
0
10
0.424080
20
0.355080
0
SEQEND
8
0
0
POLYLINE
8
0
66
1
40
0.000000
41
0.000000
0
VERTEX
8
0
10
0.428017
20
0.319733
0
VERTEX
8
0
10
0.428017
20
0.355473
0
SEQEND
8
0
0
POLYLINE
8
0
66
1
40
0.000000
41
0.000000
0
VERTEX
8
0
10
0.431954
20
0.320047
0
VERTEX
8
0
10
0.431954
20
0.355866
0
SEQEND
8
0
0
POLYLINE
8
0
66
1
40
0.000000
41
0.000000
0
VERTEX
8
0
10
0.434889
20
0.320281
0
VERTEX
8
0
10
0.434889
20
0.320281
0
SEQEND
8
0
0
POLYLINE
8
0
66
1
40
0.010000
41
0.010000
0
VERTEX
8
0
10
0.400000
20
0.317500
0
VERTEX
8
0
10
0.434889
20
0.320281
0
VERTEX
8
0
10
0.432052
20
0.355876
0
VERTEX
8
0
10
0.396521
20
0.352326
0
VERTEX
8
0
10
0.400000
20
0.317500
0
SEQEND
8
0
0
POLYLINE
8
0
66
1
40
0.000000
41
0.000000
0
VERTEX
8
0
10
0.209500
20
0.422505
0
VERTEX
8
0
10
0.209500
20
0.422505
0
SEQEND
8
0
0
POLYLINE
8
0
66
1
40
0.000000
41
0.000000
0
VERTEX
8
0
10
0.205641
20
0.426442
0
VERTEX
8
0
10
0.213516
20
0.426442
0
SEQEND
8
0
0
POLYLINE
8
0
66
1
40
0.000000
41
0.000000
0
VERTEX
8
0
10
0.201781
20
0.430379
0
VERTEX
8
0
10
0.217533
20
0.430379
0
SEQEND
8
0
0
POLYLINE
8
0
66
1
40
0.000000
41
0.000000
0
VERTEX
8
0
10
0.197922
20
0.434316
0
VERTEX
8
0
10
0.221549
20
0.434316
0
SEQEND
8
0
0
POLYLINE
8
0
66
1
40
0.000000
41
0.000000
0
VERTEX
8
0
10
0.194063
20
0.438253
0
VERTEX
8
0
10
0.225566
20
0.438253
0
SEQEND
8
0
0
POLYLINE
8
0
66
1
40
0.000000
41
0.000000
0
VERTEX
8
0
10
0.190204
20
0.442190
0
VERTEX
8
0
10
0.229583
20
0.442190
0
SEQEND
8
0
0
POLYLINE
8
0
66
1
40
0.000000
41
0.000000
0
VERTEX
8
0
10
0.186345
20
0.446127
0
VERTEX
8
0
10
0.233599
20
0.446127
0
SEQEND
8
0
0
POLYLINE
8
0
66
1
40
0.000000
41
0.000000
0
VERTEX
8
0
10
0.187513
20
0.450064
0
VERTEX
8
0
10
0.232384
20
0.450064
0
SEQEND
8
0
0
POLYLINE
8
0
66
1
40
0.000000
41
0.000000
0
VERTEX
8
0
10
0.191372
20
0.454001
0
VERTEX
8
0
10
0.228367
20
0.454001
0
SEQEND
8
0
0
POLYLINE
8
0
66
1
40
0.000000
41
0.000000
0
VERTEX
8
0
10
0.195231
20
0.457938
0
VERTEX
8
0
10
0.224350
20
0.457938
0
SEQEND
8
0
0
POLYLINE
8
0
66
1
40
0.000000
41
0.000000
0
VERTEX
8
0
10
0.199090
20
0.461875
0
VERTEX
8
0
10
0.220334
20
0.461875
0
SEQEND
8
0
0
POLYLINE
8
0
66
1
40
0.000000
41
0.000000
0
VERTEX
8
0
10
0.202949
20
0.465812
0
VERTEX
8
0
10
0.216317
20
0.465812
0
SEQEND
8
0
0
POLYLINE
8
0
66
1
40
0.000000
41
0.000000
0
VERTEX
8
0
10
0.206808
20
0.469749
0
VERTEX
8
0
10
0.212301
20
0.469749
0
SEQEND
8
0
0
POLYLINE
8
0
66
1
40
0.000000
41
0.000000
0
VERTEX
8
0
10
0.209500
20
0.472495
0
VERTEX
8
0
10
0.209500
20
0.472495
0
SEQEND
8
0
0
POLYLINE
8
0
66
1
40
0.010000
41
0.010000
0
VERTEX
8
0
10
0.185000
20
0.447500
0
VERTEX
8
0
10
0.209500
20
0.422505
0
VERTEX
8
0
10
0.235000
20
0.447500
0
VERTEX
8
0
10
0.209500
20
0.472495
0
VERTEX
8
0
10
0.185000
20
0.447500
0
SEQEND
8
0
0
POLYLINE
8
0
66
1
40
0.000000
41
0.000000
0
VERTEX
8
0
10
-0.786132
20
0.382481
0
VERTEX
8
0
10
-0.786132
20
0.382481
0
SEQEND
8
0
0
POLYLINE
8
0
66
1
40
0.000000
41
0.000000
0
VERTEX
8
0
10
-0.782195
20
0.347534
0
VERTEX
8
0
10
-0.782195
20
0.382609
0
SEQEND
8
0
0
POLYLINE
8
0
66
1
40
0.000000
41
0.000000
0
VERTEX
8
0
10
-0.778258
20
0.347583
0
VERTEX
8
0
10
-0.778258
20
0.382736
0
SEQEND
8
0
0
POLYLINE
8
0
66
1
40
0.000000
41
0.000000
0
VERTEX
8
0
10
-0.774321
20
0.347631
0
VERTEX
8
0
10
-0.774321
20
0.382863
0
SEQEND
8
0
0
POLYLINE
8
0
66
1
40
0.000000
41
0.000000
0
VERTEX
8
0
10
-0.770384
20
0.347680
0
VERTEX
8
0
10
-0.770384
20
0.382991
0
SEQEND
8
0
0
POLYLINE
8
0
66
1
40
0.000000
41
0.000000
0
VERTEX
8
0
10
-0.766447
20
0.347729
0
VERTEX
8
0
10
-0.766447
20
0.383119
0
SEQEND
8
0
0
POLYLINE
8
0
66
1
40
0.000000
41
0.000000
0
VERTEX
8
0
10
-0.762510
20
0.347777
0
VERTEX
8
0
10
-0.762510
20
0.383246
0
SEQEND
8
0
0
POLYLINE
8
0
66
1
40
0.000000
41
0.000000
0
VERTEX
8
0
10
-0.758573
20
0.347826
0
VERTEX
8
0
10
-0.758573
20
0.383373
0
SEQEND
8
0
0
POLYLINE
8
0
66
1
40
0.000000
41
0.000000
0
VERTEX
8
0
10
-0.754636
20
0.347874
0
VERTEX
8
0
10
-0.754636
20
0.383501
0
SEQEND
8
0
0
POLYLINE
8
0
66
1
40
0.000000
41
0.000000
0
VERTEX
8
0
10
-0.750699
20
0.347923
0
VERTEX
8
0
10
-0.750699
20
0.383628
0
SEQEND
8
0
0
POLYLINE
8
0
66
1
40
0.000000
41
0.000000
0
VERTEX
8
0
10
-0.750003
20
0.347932
0
VERTEX
8
0
10
-0.750003
20
0.347932
0
SEQEND
8
0
0
POLYLINE
8
0
66
1
40
0.010000
41
0.010000
0
VERTEX
8
0
10
-0.785000
20
0.347500
0
VERTEX
8
0
10
-0.750003
20
0.347932
0
VERTEX
8
0
10
-0.750443
20
0.383637
0
VERTEX
8
0
10
-0.786132
20
0.382481
0
VERTEX
8
0
10
-0.785000
20
0.347500
0
SEQEND
8
0
0
POLYLINE
8
0
66
1
40
0.000000
41
0.000000
0
VERTEX
8
0
10
-0.709995
20
0.323000
0
VERTEX
8
0
10
-0.709995
20
0.323000
0
SEQEND
8
0
0
POLYLINE
8
0
66
1
40
0.000000
41
0.000000
0
VERTEX
8
0
10
-0.706058
20
0.318983
0
VERTEX
8
0
10
-0.706058
20
0.326859
0
SEQEND
8
0
0
POLYLINE
8
0
66
1
40
0.000000
41
0.000000
0
VERTEX
8
0
10
-0.702121
20
0.314967
0
VERTEX
8
0
10
-0.702121
20
0.330718
0
SEQEND
8
0
0
POLYLINE
8
0
66
1
40
0.000000
41
0.000000
0
VERTEX
8
0
10
-0.698184
20
0.310950
0
VERTEX
8
0
10
-0.698184
20
0.334577
0
SEQEND
8
0
0
POLYLINE
8
0
66
1
40
0.000000
41
0.000000
0
VERTEX
8
0
10
-0.694247
20
0.306934
0
VERTEX
8
0
10
-0.694247
20
0.338436
0
SEQEND
8
0
0
POLYLINE
8
0
66
1
40
0.000000
41
0.000000
0
VERTEX
8
0
10
-0.690310
20
0.302917
0
VERTEX
8
0
10
-0.690310
20
0.342295
0
SEQEND
8
0
0
POLYLINE
8
0
66
1
40
0.000000
41
0.000000
0
VERTEX
8
0
10
-0.686373
20
0.298900
0
VERTEX
8
0
10
-0.686373
20
0.346154
0
SEQEND
8
0
0
POLYLINE
8
0
66
1
40
0.000000
41
0.000000
0
VERTEX
8
0
10
-0.682436
20
0.300116
0
VERTEX
8
0
10
-0.682436
20
0.344987
0
SEQEND
8
0
0
POLYLINE
8
0
66
1
40
0.000000
41
0.000000
0
VERTEX
8
0
10
-0.678499
20
0.304132
0
VERTEX
8
0
10
-0.678499
20
0.341128
0
SEQEND
8
0
0
POLYLINE
8
0
66
1
40
0.000000
41
0.000000
0
VERTEX
8
0
10
-0.674562
20
0.308149
0
VERTEX
8
0
10
-0.674562
20
0.337269
0
SEQEND
8
0
0
POLYLINE
8
0
66
1
40
0.000000
41
0.000000
0
VERTEX
8
0
10
-0.670625
20
0.312166
0
VERTEX
8
0
10
-0.670625
20
0.333409
0
SEQEND
8
0
0
POLYLINE
8
0
66
1
40
0.000000
41
0.000000
0
VERTEX
8
0
10
-0.666688
20
0.316182
0
VERTEX
8
0
10
-0.666688
20
0.329550
0
SEQEND
8
0
0
POLYLINE
8
0
66
1
40
0.000000
41
0.000000
0
VERTEX
8
0
10
-0.662751
20
0.320199
0
VERTEX
8
0
10
-0.662751
20
0.325691
0
SEQEND
8
0
0
POLYLINE
8
0
66
1
40
0.000000
41
0.000000
0
VERTEX
8
0
10
-0.660005
20
0.323000
0
VERTEX
8
0
10
-0.660005
20
0.323000
0
SEQEND
8
0
0
POLYLINE
8
0
66
1
40
0.010000
41
0.010000
0
VERTEX
8
0
10
-0.685000
20
0.347500
0
VERTEX
8
0
10
-0.709995
20
0.323000
0
VERTEX
8
0
10
-0.685000
20
0.297500
0
VERTEX
8
0
10
-0.660005
20
0.323000
0
VERTEX
8
0
10
-0.685000
20
0.347500
0
SEQEND
8
0
0
POLYLINE
8
0
66
1
40
0.000000
41
0.000000
0
VERTEX
8
0
10
-0.609995
20
0.323000
0
VERTEX
8
0
10
-0.609995
20
0.323000
0
SEQEND
8
0
0
POLYLINE
8
0
66
1
40
0.000000
41
0.000000
0
VERTEX
8
0
10
-0.606058
20
0.318983
0
VERTEX
8
0
10
-0.606058
20
0.326859
0
SEQEND
8
0
0
POLYLINE
8
0
66
1
40
0.000000
41
0.000000
0
VERTEX
8
0
10
-0.602121
20
0.314967
0
VERTEX
8
0
10
-0.602121
20
0.330718
0
SEQEND
8
0
0
POLYLINE
8
0
66
1
40
0.000000
41
0.000000
0
VERTEX
8
0
10
-0.598184
20
0.310950
0
VERTEX
8
0
10
-0.598184
20
0.334577
0
SEQEND
8
0
0
POLYLINE
8
0
66
1
40
0.000000
41
0.000000
0
VERTEX
8
0
10
-0.594247
20
0.306933
0
VERTEX
8
0
10
-0.594247
20
0.338436
0
SEQEND
8
0
0
POLYLINE
8
0
66
1
40
0.000000
41
0.000000
0
VERTEX
8
0
10
-0.590310
20
0.302917
0
VERTEX
8
0
10
-0.590310
20
0.342295
0
SEQEND
8
0
0
POLYLINE
8
0
66
1
40
0.000000
41
0.000000
0
VERTEX
8
0
10
-0.586373
20
0.298900
0
VERTEX
8
0
10
-0.586373
20
0.346154
0
SEQEND
8
0
0
POLYLINE
8
0
66
1
40
0.000000
41
0.000000
0
VERTEX
8
0
10
-0.582436
20
0.300116
0
VERTEX
8
0
10
-0.582436
20
0.344986
0
SEQEND
8
0
0
POLYLINE
8
0
66
1
40
0.000000
41
0.000000
0
VERTEX
8
0
10
-0.578499
20
0.304133
0
VERTEX
8
0
10
-0.578499
20
0.341127
0
SEQEND
8
0
0
POLYLINE
8
0
66
1
40
0.000000
41
0.000000
0
VERTEX
8
0
10
-0.574562
20
0.308149
0
VERTEX
8
0
10
-0.574562
20
0.337268
0
SEQEND
8
0
0
POLYLINE
8
0
66
1
40
0.000000
41
0.000000
0
VERTEX
8
0
10
-0.570625
20
0.312166
0
VERTEX
8
0
10
-0.570625
20
0.333409
0
SEQEND
8
0
0
POLYLINE
8
0
66
1
40
0.000000
41
0.000000
0
VERTEX
8
0
10
-0.566688
20
0.316182
0
VERTEX
8
0
10
-0.566688
20
0.329550
0
SEQEND
8
0
0
POLYLINE
8
0
66
1
40
0.000000
41
0.000000
0
VERTEX
8
0
10
-0.562751
20
0.320199
0
VERTEX
8
0
10
-0.562751
20
0.325691
0
SEQEND
8
0
0
POLYLINE
8
0
66
1
40
0.000000
41
0.000000
0
VERTEX
8
0
10
-0.560006
20
0.323000
0
VERTEX
8
0
10
-0.560006
20
0.323000
0
SEQEND
8
0
0
POLYLINE
8
0
66
1
40
0.010000
41
0.010000
0
VERTEX
8
0
10
-0.585000
20
0.347500
0
VERTEX
8
0
10
-0.609995
20
0.323000
0
VERTEX
8
0
10
-0.585000
20
0.297500
0
VERTEX
8
0
10
-0.560006
20
0.323000
0
VERTEX
8
0
10
-0.585000
20
0.347500
0
SEQEND
8
0
0
POLYLINE
8
0
66
1
40
0.000000
41
0.000000
0
VERTEX
8
0
10
-0.449645
20
0.312145
0
VERTEX
8
0
10
-0.449645
20
0.312145
0
SEQEND
8
0
0
POLYLINE
8
0
66
1
40
0.000000
41
0.000000
0
VERTEX
8
0
10
-0.485314
20
0.316082
0
VERTEX
8
0
10
-0.449684
20
0.316082
0
SEQEND
8
0
0
POLYLINE
8
0
66
1
40
0.000000
41
0.000000
0
VERTEX
8
0
10
-0.485275
20
0.320019
0
VERTEX
8
0
10
-0.449724
20
0.320019
0
SEQEND
8
0
0
POLYLINE
8
0
66
1
40
0.000000
41
0.000000
0
VERTEX
8
0
10
-0.485235
20
0.323956
0
VERTEX
8
0
10
-0.449763
20
0.323956
0
SEQEND
8
0
0
POLYLINE
8
0
66
1
40
0.000000
41
0.000000
0
VERTEX
8
0
10
-0.485196
20
0.327893
0
VERTEX
8
0
10
-0.449802
20
0.327893
0
SEQEND
8
0
0
POLYLINE
8
0
66
1
40
0.000000
41
0.000000
0
VERTEX
8
0
10
-0.485157
20
0.331830
0
VERTEX
8
0
10
-0.449842
20
0.331830
0
SEQEND
8
0
0
POLYLINE
8
0
66
1
40
0.000000
41
0.000000
0
VERTEX
8
0
10
-0.485117
20
0.335767
0
VERTEX
8
0
10
-0.449881
20
0.335767
0
SEQEND
8
0
0
POLYLINE
8
0
66
1
40
0.000000
41
0.000000
0
VERTEX
8
0
10
-0.485078
20
0.339704
0
VERTEX
8
0
10
-0.449920
20
0.339704
0
SEQEND
8
0
0
POLYLINE
8
0
66
1
40
0.000000
41
0.000000
0
VERTEX
8
0
10
-0.485039
20
0.343641
0
VERTEX
8
0
10
-0.449960
20
0.343641
0
SEQEND
8
0
0
POLYLINE
8
0
66
1
40
0.000000
41
0.000000
0
VERTEX
8
0
10
-0.477205
20
0.347578
0
VERTEX
8
0
10
-0.449999
20
0.347578
0
SEQEND
8
0
0
POLYLINE
8
0
66
1
40
0.000000
41
0.000000
0
VERTEX
8
0
10
-0.450002
20
0.347850
0
VERTEX
8
0
10
-0.450002
20
0.347850
0
SEQEND
8
0
0
POLYLINE
8
0
66
1
40
0.010000
41
0.010000
0
VERTEX
8
0
10
-0.485000
20
0.347500
0
VERTEX
8
0
10
-0.485350
20
0.312502
0
VERTEX
8
0
10
-0.449645
20
0.312145
0
VERTEX
8
0
10
-0.450002
20
0.347850
0
VERTEX
8
0
10
-0.485000
20
0.347500
0
SEQEND
8
0
0
POLYLINE
8
0
66
1
40
0.000000
41
0.000000
0
VERTEX
8
0
10
-0.193235
20
0.225168
0
VERTEX
8
0
10
-0.193235
20
0.225168
0
SEQEND
8
0
0
POLYLINE
8
0
66
1
40
0.000000
41
0.000000
0
VERTEX
8
0
10
-0.195585
20
0.229105
0
VERTEX
8
0
10
-0.186639
20
0.229105
0
SEQEND
8
0
0
POLYLINE
8
0
66
1
40
0.000000
41
0.000000
0
VERTEX
8
0
10
-0.197935
20
0.233042
0
VERTEX
8
0
10
-0.180357
20
0.233042
0
SEQEND
8
0
0
POLYLINE
8
0
66
1
40
0.000000
41
0.000000
0
VERTEX
8
0
10
-0.200285
20
0.236979
0
VERTEX
8
0
10
-0.180415
20
0.236979
0
SEQEND
8
0
0
POLYLINE
8
0
66
1
40
0.000000
41
0.000000
0
VERTEX
8
0
10
-0.202634
20
0.240916
0
VERTEX
8
0
10
-0.180472
20
0.240916
0
SEQEND
8
0
0
POLYLINE
8
0
66
1
40
0.000000
41
0.000000
0
VERTEX
8
0
10
-0.204984
20
0.244853
0
VERTEX
8
0
10
-0.180528
20
0.244853
0
SEQEND
8
0
0
POLYLINE
8
0
66
1
40
0.000000
41
0.000000
0
VERTEX
8
0
10
-0.180572
20
0.247854
0
VERTEX
8
0
10
-0.180572
20
0.247854
0
SEQEND
8
0
0
POLYLINE
8
0
66
1
40
0.010000
41
0.010000
0
VERTEX
8
0
10
-0.180355
20
0.232855
0
VERTEX
8
0
10
-0.180572
20
0.247854
0
VERTEX
8
0
10
-0.206550
20
0.247477
0
VERTEX
8
0
10
-0.193235
20
0.225168
0
VERTEX
8
0
10
-0.180355
20
0.232855
0
SEQEND
8
0
0
POLYLINE
8
0
66
1
40
0.000000
41
0.000000
0
VERTEX
8
0
10
-0.193346
20
0.020355
0
VERTEX
8
0
10
-0.193346
20
0.020355
0
SEQEND
8
0
0
POLYLINE
8
0
66
1
40
0.000000
41
0.000000
0
VERTEX
8
0
10
-0.189409
20
0.018081
0
VERTEX
8
0
10
-0.189409
20
0.027174
0
SEQEND
8
0
0
POLYLINE
8
0
66
1
40
0.000000
41
0.000000
0
VERTEX
8
0
10
-0.185472
20
0.015809
0
VERTEX
8
0
10
-0.185472
20
0.033993
0
SEQEND
8
0
0
POLYLINE
8
0
66
1
40
0.000000
41
0.000000
0
VERTEX
8
0
10
-0.181535
20
0.013536
0
VERTEX
8
0
10
-0.181535
20
0.040813
0
SEQEND
8
0
0
POLYLINE
8
0
66
1
40
0.000000
41
0.000000
0
VERTEX
8
0
10
-0.177598
20
0.014447
0
VERTEX
8
0
10
-0.177598
20
0.038078
0
SEQEND
8
0
0
POLYLINE
8
0
66
1
40
0.000000
41
0.000000
0
VERTEX
8
0
10
-0.173661
20
0.016720
0
VERTEX
8
0
10
-0.173661
20
0.031259
0
SEQEND
8
0
0
POLYLINE
8
0
66
1
40
0.000000
41
0.000000
0
VERTEX
8
0
10
-0.169724
20
0.018993
0
VERTEX
8
0
10
-0.169724
20
0.024440
0
SEQEND
8
0
0
POLYLINE
8
0
66
1
40
0.000000
41
0.000000
0
VERTEX
8
0
10
-0.167365
20
0.020355
0
VERTEX
8
0
10
-0.167365
20
0.020355
0
SEQEND
8
0
0
POLYLINE
8
0
66
1
40
0.010000
41
0.010000
0
VERTEX
8
0
10
-0.180356
20
0.012855
0
VERTEX
8
0
10
-0.167365
20
0.020355
0
VERTEX
8
0
10
-0.180356
20
0.042855
0
VERTEX
8
0
10
-0.193346
20
0.020355
0
VERTEX
8
0
10
-0.180356
20
0.012855
0
SEQEND
8
0
0
POLYLINE
8
0
66
1
40
0.000000
41
0.000000
0
VERTEX
8
0
10
-0.193346
20
-0.194645
0
VERTEX
8
0
10
-0.193346
20
-0.194645
0
SEQEND
8
0
0
POLYLINE
8
0
66
1
40
0.000000
41
0.000000
0
VERTEX
8
0
10
-0.189409
20
-0.196918
0
VERTEX
8
0
10
-0.189409
20
-0.187826
0
SEQEND
8
0
0
POLYLINE
8
0
66
1
40
0.000000
41
0.000000
0
VERTEX
8
0
10
-0.185472
20
-0.199191
0
VERTEX
8
0
10
-0.185472
20
-0.181006
0
SEQEND
8
0
0
POLYLINE
8
0
66
1
40
0.000000
41
0.000000
0
VERTEX
8
0
10
-0.181535
20
-0.201464
0
VERTEX
8
0
10
-0.181535
20
-0.174187
0
SEQEND
8
0
0
POLYLINE
8
0
66
1
40
0.000000
41
0.000000
0
VERTEX
8
0
10
-0.177598
20
-0.200552
0
VERTEX
8
0
10
-0.177598
20
-0.176922
0
SEQEND
8
0
0
POLYLINE
8
0
66
1
40
0.000000
41
0.000000
0
VERTEX
8
0
10
-0.173661
20
-0.198279
0
VERTEX
8
0
10
-0.173661
20
-0.183741
0
SEQEND
8
0
0
POLYLINE
8
0
66
1
40
0.000000
41
0.000000
0
VERTEX
8
0
10
-0.169724
20
-0.196006
0
VERTEX
8
0
10
-0.169724
20
-0.190560
0
SEQEND
8
0
0
POLYLINE
8
0
66
1
40
0.000000
41
0.000000
0
VERTEX
8
0
10
-0.167365
20
-0.194645
0
VERTEX
8
0
10
-0.167365
20
-0.194645
0
SEQEND
8
0
0
POLYLINE
8
0
66
1
40
0.010000
41
0.010000
0
VERTEX
8
0
10
-0.180356
20
-0.202145
0
VERTEX
8
0
10
-0.167365
20
-0.194645
0
VERTEX
8
0
10
-0.180356
20
-0.172145
0
VERTEX
8
0
10
-0.193346
20
-0.194645
0
VERTEX
8
0
10
-0.180356
20
-0.202145
0
SEQEND
8
0
0
POLYLINE
8
0
66
1
40
0.000000
41
0.000000
0
VERTEX
8
0
10
0.032144
20
0.219865
0
VERTEX
8
0
10
0.032144
20
0.219865
0
SEQEND
8
0
0
POLYLINE
8
0
66
1
40
0.000000
41
0.000000
0
VERTEX
8
0
10
0.025325
20
0.223802
0
VERTEX
8
0
10
0.034417
20
0.223802
0
SEQEND
8
0
0
POLYLINE
8
0
66
1
40
0.000000
41
0.000000
0
VERTEX
8
0
10
0.018506
20
0.227739
0
VERTEX
8
0
10
0.036691
20
0.227739
0
SEQEND
8
0
0
POLYLINE
8
0
66
1
40
0.000000
41
0.000000
0
VERTEX
8
0
10
0.011687
20
0.231676
0
VERTEX
8
0
10
0.038963
20
0.231676
0
SEQEND
8
0
0
POLYLINE
8
0
66
1
40
0.000000
41
0.000000
0
VERTEX
8
0
10
0.014421
20
0.235613
0
VERTEX
8
0
10
0.038052
20
0.235613
0
SEQEND
8
0
0
POLYLINE
8
0
66
1
40
0.000000
41
0.000000
0
VERTEX
8
0
10
0.021241
20
0.239550
0
VERTEX
8
0
10
0.035779
20
0.239550
0
SEQEND
8
0
0
POLYLINE
8
0
66
1
40
0.000000
41
0.000000
0
VERTEX
8
0
10
0.028059
20
0.243487
0
VERTEX
8
0
10
0.033506
20
0.243487
0
SEQEND
8
0
0
POLYLINE
8
0
66
1
40
0.000000
41
0.000000
0
VERTEX
8
0
10
0.032144
20
0.245845
0
VERTEX
8
0
10
0.032144
20
0.245845
0
SEQEND
8
0
0
POLYLINE
8
0
66
1
40
0.010000
41
0.010000
0
VERTEX
8
0
10
0.039644
20
0.232855
0
VERTEX
8
0
10
0.032144
20
0.245845
0
VERTEX
8
0
10
0.009644
20
0.232855
0
VERTEX
8
0
10
0.032144
20
0.219865
0
VERTEX
8
0
10
0.039644
20
0.232855
0
SEQEND
8
0
0
POLYLINE
8
0
66
1
40
0.000000
41
0.000000
0
VERTEX
8
0
10
0.052562
20
0.225230
0
VERTEX
8
0
10
0.052562
20
0.225230
0
SEQEND
8
0
0
POLYLINE
8
0
66
1
40
0.000000
41
0.000000
0
VERTEX
8
0
10
0.045892
20
0.229167
0
VERTEX
8
0
10
0.054885
20
0.229167
0
SEQEND
8
0
0
POLYLINE
8
0
66
1
40
0.000000
41
0.000000
0
VERTEX
8
0
10
0.039647
20
0.233104
0
VERTEX
8
0
10
0.057209
20
0.233104
0
SEQEND
8
0
0
POLYLINE
8
0
66
1
40
0.000000
41
0.000000
0
VERTEX
8
0
10
0.039685
20
0.237041
0
VERTEX
8
0
10
0.059533
20
0.237041
0
SEQEND
8
0
0
POLYLINE
8
0
66
1
40
0.000000
41
0.000000
0
VERTEX
8
0
10
0.039722
20
0.240978
0
VERTEX
8
0
10
0.061857
20
0.240978
0
SEQEND
8
0
0
POLYLINE
8
0
66
1
40
0.000000
41
0.000000
0
VERTEX
8
0
10
0.039761
20
0.244915
0
VERTEX
8
0
10
0.064181
20
0.244915
0
SEQEND
8
0
0
POLYLINE
8
0
66
1
40
0.000000
41
0.000000
0
VERTEX
8
0
10
0.039789
20
0.247854
0
VERTEX
8
0
10
0.039789
20
0.247854
0
SEQEND
8
0
0
POLYLINE
8
0
66
1
40
0.010000
41
0.010000
0
VERTEX
8
0
10
0.039644
20
0.232855
0
VERTEX
8
0
10
0.052562
20
0.225230
0
VERTEX
8
0
10
0.065769
20
0.247604
0
VERTEX
8
0
10
0.039789
20
0.247854
0
VERTEX
8
0
10
0.039644
20
0.232855
0
SEQEND
8
0
0
POLYLINE
8
0
66
1
40
0.000000
41
0.000000
0
VERTEX
8
0
10
0.117855
20
0.149154
0
VERTEX
8
0
10
0.117855
20
0.149154
0
SEQEND
8
0
0
POLYLINE
8
0
66
1
40
0.000000
41
0.000000
0
VERTEX
8
0
10
0.115582
20
0.153091
0
VERTEX
8
0
10
0.124674
20
0.153091
0
SEQEND
8
0
0
POLYLINE
8
0
66
1
40
0.000000
41
0.000000
0
VERTEX
8
0
10
0.113309
20
0.157028
0
VERTEX
8
0
10
0.131493
20
0.157028
0
SEQEND
8
0
0
POLYLINE
8
0
66
1
40
0.000000
41
0.000000
0
VERTEX
8
0
10
0.111036
20
0.160965
0
VERTEX
8
0
10
0.138313
20
0.160965
0
SEQEND
8
0
0
POLYLINE
8
0
66
1
40
0.000000
41
0.000000
0
VERTEX
8
0
10
0.111947
20
0.164902
0
VERTEX
8
0
10
0.135578
20
0.164902
0
SEQEND
8
0
0
POLYLINE
8
0
66
1
40
0.000000
41
0.000000
0
VERTEX
8
0
10
0.114220
20
0.168839
0
VERTEX
8
0
10
0.128759
20
0.168839
0
SEQEND
8
0
0
POLYLINE
8
0
66
1
40
0.000000
41
0.000000
0
VERTEX
8
0
10
0.116493
20
0.172776
0
VERTEX
8
0
10
0.121940
20
0.172776
0
SEQEND
8
0
0
POLYLINE
8
0
66
1
40
0.000000
41
0.000000
0
VERTEX
8
0
10
0.117855
20
0.175135
0
VERTEX
8
0
10
0.117855
20
0.175135
0
SEQEND
8
0
0
POLYLINE
8
0
66
1
40
0.010000
41
0.010000
0
VERTEX
8
0
10
0.110355
20
0.162144
0
VERTEX
8
0
10
0.117855
20
0.149154
0
VERTEX
8
0
10
0.140355
20
0.162144
0
VERTEX
8
0
10
0.117855
20
0.175135
0
VERTEX
8
0
10
0.110355
20
0.162144
0
SEQEND
8
0
0
POLYLINE
8
0
66
1
40
0.000000
41
0.000000
0
VERTEX
8
0
10
0.053430
20
0.006943
0
VERTEX
8
0
10
0.053430
20
0.006943
0
SEQEND
8
0
0
POLYLINE
8
0
66
1
40
0.000000
41
0.000000
0
VERTEX
8
0
10
0.044251
20
0.010880
0
VERTEX
8
0
10
0.055119
20
0.010880
0
SEQEND
8
0
0
POLYLINE
8
0
66
1
40
0.000000
41
0.000000
0
VERTEX
8
0
10
0.039411
20
0.014817
0
VERTEX
8
0
10
0.056807
20
0.014817
0
SEQEND
8
0
0
POLYLINE
8
0
66
1
40
0.000000
41
0.000000
0
VERTEX
8
0
10
0.038943
20
0.018754
0
VERTEX
8
0
10
0.058496
20
0.018754
0
SEQEND
8
0
0
POLYLINE
8
0
66
1
40
0.000000
41
0.000000
0
VERTEX
8
0
10
0.038475
20
0.022691
0
VERTEX
8
0
10
0.060185
20
0.022691
0
SEQEND
8
0
0
POLYLINE
8
0
66
1
40
0.000000
41
0.000000
0
VERTEX
8
0
10
0.038007
20
0.026628
0
VERTEX
8
0
10
0.061874
20
0.026628
0
SEQEND
8
0
0
POLYLINE
8
0
66
1
40
0.000000
41
0.000000
0
VERTEX
8
0
10
0.061530
20
0.030565
0
VERTEX
8
0
10
0.063562
20
0.030565
0
SEQEND
8
0
0
POLYLINE
8
0
66
1
40
0.000000
41
0.000000
0
VERTEX
8
0
10
0.063672
20
0.030820
0
VERTEX
8
0
10
0.063672
20
0.030820
0
SEQEND
8
0
0
POLYLINE
8
0
66
1
40
0.010000
41
0.010000
0
VERTEX
8
0
10
0.039645
20
0.012856
0
VERTEX
8
0
10
0.053430
20
0.006943
0
VERTEX
8
0
10
0.063672
20
0.030820
0
VERTEX
8
0
10
0.037873
20
0.027750
0
VERTEX
8
0
10
0.039645
20
0.012856
0
SEQEND
8
0
0
POLYLINE
8
0
66
1
40
0.000000
41
0.000000
0
VERTEX
8
0
10
0.049133
20
-0.211027
0
VERTEX
8
0
10
0.049133
20
-0.211027
0
SEQEND
8
0
0
POLYLINE
8
0
66
1
40
0.000000
41
0.000000
0
VERTEX
8
0
10
0.034630
20
-0.207090
0
VERTEX
8
0
10
0.050188
20
-0.207090
0
SEQEND
8
0
0
POLYLINE
8
0
66
1
40
0.000000
41
0.000000
0
VERTEX
8
0
10
0.033575
20
-0.203153
0
VERTEX
8
0
10
0.051243
20
-0.203153
0
SEQEND
8
0
0
POLYLINE
8
0
66
1
40
0.000000
41
0.000000
0
VERTEX
8
0
10
0.032520
20
-0.199216
0
VERTEX
8
0
10
0.052298
20
-0.199216
0
SEQEND
8
0
0
POLYLINE
8
0
66
1
40
0.000000
41
0.000000
0
VERTEX
8
0
10
0.031465
20
-0.195279
0
VERTEX
8
0
10
0.053353
20
-0.195279
0
SEQEND
8
0
0
POLYLINE
8
0
66
1
40
0.000000
41
0.000000
0
VERTEX
8
0
10
0.035667
20
-0.191342
0
VERTEX
8
0
10
0.054408
20
-0.191342
0
SEQEND
8
0
0
POLYLINE
8
0
66
1
40
0.000000
41
0.000000
0
VERTEX
8
0
10
0.050359
20
-0.187405
0
VERTEX
8
0
10
0.055463
20
-0.187405
0
SEQEND
8
0
0
POLYLINE
8
0
66
1
40
0.000000
41
0.000000
0
VERTEX
8
0
10
0.055858
20
-0.185931
0
VERTEX
8
0
10
0.055858
20
-0.185931
0
SEQEND
8
0
0
POLYLINE
8
0
66
1
40
0.010000
41
0.010000
0
VERTEX
8
0
10
0.034645
20
-0.207144
0
VERTEX
8
0
10
0.049133
20
-0.211027
0
VERTEX
8
0
10
0.055858
20
-0.185931
0
VERTEX
8
0
10
0.030763
20
-0.192656
0
VERTEX
8
0
10
0.034645
20
-0.207144
0
SEQEND
8
0
0
POLYLINE
8
0
66
1
40
0.000000
41
0.000000
0
VERTEX
8
0
10
-0.303180
20
0.165680
0
VERTEX
8
0
10
-0.303180
20
0.165680
0
SEQEND
8
0
0
POLYLINE
8
0
66
1
40
0.000000
41
0.000000
0
VERTEX
8
0
10
-0.336553
20
0.169617
0
VERTEX
8
0
10
-0.303400
20
0.169617
0
SEQEND
8
0
0
POLYLINE
8
0
66
1
40
0.000000
41
0.000000
0
VERTEX
8
0
10
-0.336334
20
0.173554
0
VERTEX
8
0
10
-0.303619
20
0.173554
0
SEQEND
8
0
0
POLYLINE
8
0
66
1
40
0.000000
41
0.000000
0
VERTEX
8
0
10
-0.336115
20
0.177491
0
VERTEX
8
0
10
-0.303839
20
0.177491
0
SEQEND
8
0
0
POLYLINE
8
0
66
1
40
0.000000
41
0.000000
0
VERTEX
8
0
10
-0.335895
20
0.181428
0
VERTEX
8
0
10
-0.304058
20
0.181428
0
SEQEND
8
0
0
POLYLINE
8
0
66
1
40
0.000000
41
0.000000
0
VERTEX
8
0
10
-0.335676
20
0.185365
0
VERTEX
8
0
10
-0.304277
20
0.185365
0
SEQEND
8
0
0
POLYLINE
8
0
66
1
40
0.000000
41
0.000000
0
VERTEX
8
0
10
-0.335457
20
0.189302
0
VERTEX
8
0
10
-0.304497
20
0.189302
0
SEQEND
8
0
0
POLYLINE
8
0
66
1
40
0.000000
41
0.000000
0
VERTEX
8
0
10
-0.335237
20
0.193239
0
VERTEX
8
0
10
-0.304716
20
0.193239
0
SEQEND
8
0
0
POLYLINE
8
0
66
1
40
0.000000
41
0.000000
0
VERTEX
8
0
10
-0.335018
20
0.197176
0
VERTEX
8
0
10
-0.304935
20
0.197176
0
SEQEND
8
0
0
POLYLINE
8
0
66
1
40
0.000000
41
0.000000
0
VERTEX
8
0
10
-0.305047
20
0.199169
0
VERTEX
8
0
10
-0.305047
20
0.199169
0
SEQEND
8
0
0
POLYLINE
8
0
66
1
40
0.010000
41
0.010000
0
VERTEX
8
0
10
-0.335000
20
0.197500
0
VERTEX
8
0
10
-0.336669
20
0.167547
0
VERTEX
8
0
10
-0.303180
20
0.165680
0
VERTEX
8
0
10
-0.305047
20
0.199169
0
VERTEX
8
0
10
-0.335000
20
0.197500
0
SEQEND
8
0
0
POLYLINE
8
0
66
1
40
0.000000
41
0.000000
0
VERTEX
8
0
10
-0.303181
20
-0.234320
0
VERTEX
8
0
10
-0.303181
20
-0.234320
0
SEQEND
8
0
0
POLYLINE
8
0
66
1
40
0.000000
41
0.000000
0
VERTEX
8
0
10
-0.336554
20
-0.230383
0
VERTEX
8
0
10
-0.303400
20
-0.230383
0
SEQEND
8
0
0
POLYLINE
8
0
66
1
40
0.000000
41
0.000000
0
VERTEX
8
0
10
-0.336334
20
-0.226446
0
VERTEX
8
0
10
-0.303619
20
-0.226446
0
SEQEND
8
0
0
POLYLINE
8
0
66
1
40
0.000000
41
0.000000
0
VERTEX
8
0
10
-0.336115
20
-0.222509
0
VERTEX
8
0
10
-0.303839
20
-0.222509
0
SEQEND
8
0
0
POLYLINE
8
0
66
1
40
0.000000
41
0.000000
0
VERTEX
8
0
10
-0.335896
20
-0.218572
0
VERTEX
8
0
10
-0.304058
20
-0.218572
0
SEQEND
8
0
0
POLYLINE
8
0
66
1
40
0.000000
41
0.000000
0
VERTEX
8
0
10
-0.335676
20
-0.214635
0
VERTEX
8
0
10
-0.304278
20
-0.214635
0
SEQEND
8
0
0
POLYLINE
8
0
66
1
40
0.000000
41
0.000000
0
VERTEX
8
0
10
-0.335457
20
-0.210698
0
VERTEX
8
0
10
-0.304497
20
-0.210698
0
SEQEND
8
0
0
POLYLINE
8
0
66
1
40
0.000000
41
0.000000
0
VERTEX
8
0
10
-0.335237
20
-0.206761
0
VERTEX
8
0
10
-0.304717
20
-0.206761
0
SEQEND
8
0
0
POLYLINE
8
0
66
1
40
0.000000
41
0.000000
0
VERTEX
8
0
10
-0.335018
20
-0.202824
0
VERTEX
8
0
10
-0.304936
20
-0.202824
0
SEQEND
8
0
0
POLYLINE
8
0
66
1
40
0.000000
41
0.000000
0
VERTEX
8
0
10
-0.305047
20
-0.200831
0
VERTEX
8
0
10
-0.305047
20
-0.200831
0
SEQEND
8
0
0
POLYLINE
8
0
66
1
40
0.010000
41
0.010000
0
VERTEX
8
0
10
-0.335000
20
-0.202500
0
VERTEX
8
0
10
-0.336669
20
-0.232453
0
VERTEX
8
0
10
-0.303181
20
-0.234320
0
VERTEX
8
0
10
-0.305047
20
-0.200831
0
VERTEX
8
0
10
-0.335000
20
-0.202500
0
SEQEND
8
0
0
POLYLINE
8
0
66
1
40
0.000000
41
0.000000
0
VERTEX
8
0
10
-0.437361
20
0.217500
0
VERTEX
8
0
10
-0.437361
20
0.217500
0
SEQEND
8
0
0
POLYLINE
8
0
66
1
40
0.000000
41
0.000000
0
VERTEX
8
0
10
-0.433424
20
0.213978
0
VERTEX
8
0
10
-0.433424
20
0.221901
0
SEQEND
8
0
0
POLYLINE
8
0
66
1
40
0.000000
41
0.000000
0
VERTEX
8
0
10
-0.429487
20
0.210457
0
VERTEX
8
0
10
-0.429487
20
0.226303
0
SEQEND
8
0
0
POLYLINE
8
0
66
1
40
0.000000
41
0.000000
0
VERTEX
8
0
10
-0.425550
20
0.206935
0
VERTEX
8
0
10
-0.425550
20
0.230705
0
SEQEND
8
0
0
POLYLINE
8
0
66
1
40
0.000000
41
0.000000
0
VERTEX
8
0
10
-0.421613
20
0.203414
0
VERTEX
8
0
10
-0.421613
20
0.235107
0
SEQEND
8
0
0
POLYLINE
8
0
66
1
40
0.000000
41
0.000000
0
VERTEX
8
0
10
-0.417676
20
0.199893
0
VERTEX
8
0
10
-0.417676
20
0.239508
0
SEQEND
8
0
0
POLYLINE
8
0
66
1
40
0.000000
41
0.000000
0
VERTEX
8
0
10
-0.413739
20
0.198628
0
VERTEX
8
0
10
-0.413739
20
0.241089
0
SEQEND
8
0
0
POLYLINE
8
0
66
1
40
0.000000
41
0.000000
0
VERTEX
8
0
10
-0.409802
20
0.202150
0
VERTEX
8
0
10
-0.409802
20
0.236688
0
SEQEND
8
0
0
POLYLINE
8
0
66
1
40
0.000000
41
0.000000
0
VERTEX
8
0
10
-0.405865
20
0.205671
0
VERTEX
8
0
10
-0.405865
20
0.232286
0
SEQEND
8
0
0
POLYLINE
8
0
66
1
40
0.000000
41
0.000000
0
VERTEX
8
0
10
-0.401928
20
0.209192
0
VERTEX
8
0
10
-0.401928
20
0.227884
0
SEQEND
8
0
0
POLYLINE
8
0
66
1
40
0.000000
41
0.000000
0
VERTEX
8
0
10
-0.397991
20
0.212713
0
VERTEX
8
0
10
-0.397991
20
0.223483
0
SEQEND
8
0
0
POLYLINE
8
0
66
1
40
0.000000
41
0.000000
0
VERTEX
8
0
10
-0.394054
20
0.216235
0
VERTEX
8
0
10
-0.394054
20
0.219081
0
SEQEND
8
0
0
POLYLINE
8
0
66
1
40
0.000000
41
0.000000
0
VERTEX
8
0
10
-0.392639
20
0.217500
0
VERTEX
8
0
10
-0.392639
20
0.217500
0
SEQEND
8
0
0
POLYLINE
8
0
66
1
40
0.010000
41
0.010000
0
VERTEX
8
0
10
-0.415000
20
0.197500
0
VERTEX
8
0
10
-0.392639
20
0.217500
0
VERTEX
8
0
10
-0.415000
20
0.242500
0
VERTEX
8
0
10
-0.437361
20
0.217500
0
VERTEX
8
0
10
-0.415000
20
0.197500
0
SEQEND
8
0
0
POLYLINE
8
0
66
1
40
0.000000
41
0.000000
0
VERTEX
8
0
10
-0.528343
20
-0.232720
0
VERTEX
8
0
10
-0.528343
20
-0.232720
0
SEQEND
8
0
0
POLYLINE
8
0
66
1
40
0.000000
41
0.000000
0
VERTEX
8
0
10
-0.527929
20
-0.228783
0
VERTEX
8
0
10
-0.494827
20
-0.228783
0
SEQEND
8
0
0
POLYLINE
8
0
66
1
40
0.000000
41
0.000000
0
VERTEX
8
0
10
-0.527515
20
-0.224846
0
VERTEX
8
0
10
-0.494853
20
-0.224846
0
SEQEND
8
0
0
POLYLINE
8
0
66
1
40
0.000000
41
0.000000
0
VERTEX
8
0
10
-0.527101
20
-0.220909
0
VERTEX
8
0
10
-0.494879
20
-0.220909
0
SEQEND
8
0
0
POLYLINE
8
0
66
1
40
0.000000
41
0.000000
0
VERTEX
8
0
10
-0.526687
20
-0.216972
0
VERTEX
8
0
10
-0.494905
20
-0.216972
0
SEQEND
8
0
0
POLYLINE
8
0
66
1
40
0.000000
41
0.000000
0
VERTEX
8
0
10
-0.526273
20
-0.213035
0
VERTEX
8
0
10
-0.494931
20
-0.213035
0
SEQEND
8
0
0
POLYLINE
8
0
66
1
40
0.000000
41
0.000000
0
VERTEX
8
0
10
-0.525859
20
-0.209098
0
VERTEX
8
0
10
-0.494957
20
-0.209098
0
SEQEND
8
0
0
POLYLINE
8
0
66
1
40
0.000000
41
0.000000
0
VERTEX
8
0
10
-0.525445
20
-0.205161
0
VERTEX
8
0
10
-0.494982
20
-0.205161
0
SEQEND
8
0
0
POLYLINE
8
0
66
1
40
0.000000
41
0.000000
0
VERTEX
8
0
10
-0.525031
20
-0.201224
0
VERTEX
8
0
10
-0.507138
20
-0.201224
0
SEQEND
8
0
0
POLYLINE
8
0
66
1
40
0.000000
41
0.000000
0
VERTEX
8
0
10
-0.524835
20
-0.199363
0
VERTEX
8
0
10
-0.524835
20
-0.199363
0
SEQEND
8
0
0
POLYLINE
8
0
66
1
40
0.010000
41
0.010000
0
VERTEX
8
0
10
-0.495000
20
-0.202500
0
VERTEX
8
0
10
-0.524835
20
-0.199363
0
VERTEX
8
0
10
-0.528343
20
-0.232720
0
VERTEX
8
0
10
-0.494803
20
-0.232499
0
VERTEX
8
0
10
-0.495000
20
-0.202500
0
SEQEND
8
0
0
POLYLINE
8
0
66
1
40
0.000000
41
0.000000
0
VERTEX
8
0
10
-0.553181
20
0.165680
0
VERTEX
8
0
10
-0.553181
20
0.165680
0
SEQEND
8
0
0
POLYLINE
8
0
66
1
40
0.000000
41
0.000000
0
VERTEX
8
0
10
-0.586554
20
0.169617
0
VERTEX
8
0
10
-0.553400
20
0.169617
0
SEQEND
8
0
0
POLYLINE
8
0
66
1
40
0.000000
41
0.000000
0
VERTEX
8
0
10
-0.586334
20
0.173554
0
VERTEX
8
0
10
-0.553619
20
0.173554
0
SEQEND
8
0
0
POLYLINE
8
0
66
1
40
0.000000
41
0.000000
0
VERTEX
8
0
10
-0.586115
20
0.177491
0
VERTEX
8
0
10
-0.553839
20
0.177491
0
SEQEND
8
0
0
POLYLINE
8
0
66
1
40
0.000000
41
0.000000
0
VERTEX
8
0
10
-0.585896
20
0.181428
0
VERTEX
8
0
10
-0.554058
20
0.181428
0
SEQEND
8
0
0
POLYLINE
8
0
66
1
40
0.000000
41
0.000000
0
VERTEX
8
0
10
-0.585676
20
0.185365
0
VERTEX
8
0
10
-0.554278
20
0.185365
0
SEQEND
8
0
0
POLYLINE
8
0
66
1
40
0.000000
41
0.000000
0
VERTEX
8
0
10
-0.585457
20
0.189302
0
VERTEX
8
0
10
-0.554497
20
0.189302
0
SEQEND
8
0
0
POLYLINE
8
0
66
1
40
0.000000
41
0.000000
0
VERTEX
8
0
10
-0.585237
20
0.193239
0
VERTEX
8
0
10
-0.554717
20
0.193239
0
SEQEND
8
0
0
POLYLINE
8
0
66
1
40
0.000000
41
0.000000
0
VERTEX
8
0
10
-0.585018
20
0.197176
0
VERTEX
8
0
10
-0.554936
20
0.197176
0
SEQEND
8
0
0
POLYLINE
8
0
66
1
40
0.000000
41
0.000000
0
VERTEX
8
0
10
-0.555047
20
0.199169
0
VERTEX
8
0
10
-0.555047
20
0.199169
0
SEQEND
8
0
0
POLYLINE
8
0
66
1
40
0.010000
41
0.010000
0
VERTEX
8
0
10
-0.585000
20
0.197500
0
VERTEX
8
0
10
-0.586669
20
0.167547
0
VERTEX
8
0
10
-0.553181
20
0.165680
0
VERTEX
8
0
10
-0.555047
20
0.199169
0
VERTEX
8
0
10
-0.585000
20
0.197500
0
SEQEND
8
0
0
POLYLINE
8
0
66
1
40
0.000000
41
0.000000
0
VERTEX
8
0
10
-0.607361
20
0.217500
0
VERTEX
8
0
10
-0.607361
20
0.217500
0
SEQEND
8
0
0
POLYLINE
8
0
66
1
40
0.000000
41
0.000000
0
VERTEX
8
0
10
-0.603424
20
0.213978
0
VERTEX
8
0
10
-0.603424
20
0.221901
0
SEQEND
8
0
0
POLYLINE
8
0
66
1
40
0.000000
41
0.000000
0
VERTEX
8
0
10
-0.599487
20
0.210457
0
VERTEX
8
0
10
-0.599487
20
0.226303
0
SEQEND
8
0
0
POLYLINE
8
0
66
1
40
0.000000
41
0.000000
0
VERTEX
8
0
10
-0.595550
20
0.206935
0
VERTEX
8
0
10
-0.595550
20
0.230705
0
SEQEND
8
0
0
POLYLINE
8
0
66
1
40
0.000000
41
0.000000
0
VERTEX
8
0
10
-0.591613
20
0.203414
0
VERTEX
8
0
10
-0.591613
20
0.235107
0
SEQEND
8
0
0
POLYLINE
8
0
66
1
40
0.000000
41
0.000000
0
VERTEX
8
0
10
-0.587676
20
0.199893
0
VERTEX
8
0
10
-0.587676
20
0.239508
0
SEQEND
8
0
0
POLYLINE
8
0
66
1
40
0.000000
41
0.000000
0
VERTEX
8
0
10
-0.583739
20
0.198628
0
VERTEX
8
0
10
-0.583739
20
0.241089
0
SEQEND
8
0
0
POLYLINE
8
0
66
1
40
0.000000
41
0.000000
0
VERTEX
8
0
10
-0.579802
20
0.202150
0
VERTEX
8
0
10
-0.579802
20
0.236688
0
SEQEND
8
0
0
POLYLINE
8
0
66
1
40
0.000000
41
0.000000
0
VERTEX
8
0
10
-0.575865
20
0.205671
0
VERTEX
8
0
10
-0.575865
20
0.232286
0
SEQEND
8
0
0
POLYLINE
8
0
66
1
40
0.000000
41
0.000000
0
VERTEX
8
0
10
-0.571928
20
0.209192
0
VERTEX
8
0
10
-0.571928
20
0.227884
0
SEQEND
8
0
0
POLYLINE
8
0
66
1
40
0.000000
41
0.000000
0
VERTEX
8
0
10
-0.567991
20
0.212713
0
VERTEX
8
0
10
-0.567991
20
0.223483
0
SEQEND
8
0
0
POLYLINE
8
0
66
1
40
0.000000
41
0.000000
0
VERTEX
8
0
10
-0.564054
20
0.216235
0
VERTEX
8
0
10
-0.564054
20
0.219081
0
SEQEND
8
0
0
POLYLINE
8
0
66
1
40
0.000000
41
0.000000
0
VERTEX
8
0
10
-0.562640
20
0.217500
0
VERTEX
8
0
10
-0.562640
20
0.217500
0
SEQEND
8
0
0
POLYLINE
8
0
66
1
40
0.010000
41
0.010000
0
VERTEX
8
0
10
-0.585000
20
0.197500
0
VERTEX
8
0
10
-0.562640
20
0.217500
0
VERTEX
8
0
10
-0.585000
20
0.242500
0
VERTEX
8
0
10
-0.607361
20
0.217500
0
VERTEX
8
0
10
-0.585000
20
0.197500
0
SEQEND
8
0
0
POLYLINE
8
0
66
1
40
0.000000
41
0.000000
0
VERTEX
8
0
10
-0.555047
20
-0.204169
0
VERTEX
8
0
10
-0.555047
20
-0.204169
0
SEQEND
8
0
0
POLYLINE
8
0
66
1
40
0.000000
41
0.000000
0
VERTEX
8
0
10
-0.585126
20
-0.200232
0
VERTEX
8
0
10
-0.554827
20
-0.200232
0
SEQEND
8
0
0
POLYLINE
8
0
66
1
40
0.000000
41
0.000000
0
VERTEX
8
0
10
-0.585346
20
-0.196295
0
VERTEX
8
0
10
-0.554608
20
-0.196295
0
SEQEND
8
0
0
POLYLINE
8
0
66
1
40
0.000000
41
0.000000
0
VERTEX
8
0
10
-0.585565
20
-0.192358
0
VERTEX
8
0
10
-0.554388
20
-0.192358
0
SEQEND
8
0
0
POLYLINE
8
0
66
1
40
0.000000
41
0.000000
0
VERTEX
8
0
10
-0.585784
20
-0.188421
0
VERTEX
8
0
10
-0.554169
20
-0.188421
0
SEQEND
8
0
0
POLYLINE
8
0
66
1
40
0.000000
41
0.000000
0
VERTEX
8
0
10
-0.586004
20
-0.184484
0
VERTEX
8
0
10
-0.553950
20
-0.184484
0
SEQEND
8
0
0
POLYLINE
8
0
66
1
40
0.000000
41
0.000000
0
VERTEX
8
0
10
-0.586223
20
-0.180547
0
VERTEX
8
0
10
-0.553730
20
-0.180547
0
SEQEND
8
0
0
POLYLINE
8
0
66
1
40
0.000000
41
0.000000
0
VERTEX
8
0
10
-0.586443
20
-0.176610
0
VERTEX
8
0
10
-0.553511
20
-0.176610
0
SEQEND
8
0
0
POLYLINE
8
0
66
1
40
0.000000
41
0.000000
0
VERTEX
8
0
10
-0.586662
20
-0.172673
0
VERTEX
8
0
10
-0.553291
20
-0.172673
0
SEQEND
8
0
0
POLYLINE
8
0
66
1
40
0.000000
41
0.000000
0
VERTEX
8
0
10
-0.553180
20
-0.170680
0
VERTEX
8
0
10
-0.553180
20
-0.170680
0
SEQEND
8
0
0
POLYLINE
8
0
66
1
40
0.010000
41
0.010000
0
VERTEX
8
0
10
-0.585000
20
-0.202500
0
VERTEX
8
0
10
-0.555047
20
-0.204169
0
VERTEX
8
0
10
-0.553180
20
-0.170680
0
VERTEX
8
0
10
-0.586669
20
-0.172547
0
VERTEX
8
0
10
-0.585000
20
-0.202500
0
SEQEND
8
0
0
POLYLINE
8
0
66
1
40
0.000000
41
0.000000
0
VERTEX
8
0
10
-0.614953
20
-0.204169
0
VERTEX
8
0
10
-0.614953
20
-0.204169
0
SEQEND
8
0
0
POLYLINE
8
0
66
1
40
0.000000
41
0.000000
0
VERTEX
8
0
10
-0.615172
20
-0.200232
0
VERTEX
8
0
10
-0.584874
20
-0.200232
0
SEQEND
8
0
0
POLYLINE
8
0
66
1
40
0.000000
41
0.000000
0
VERTEX
8
0
10
-0.615392
20
-0.196295
0
VERTEX
8
0
10
-0.584654
20
-0.196295
0
SEQEND
8
0
0
POLYLINE
8
0
66
1
40
0.000000
41
0.000000
0
VERTEX
8
0
10
-0.615611
20
-0.192358
0
VERTEX
8
0
10
-0.584435
20
-0.192358
0
SEQEND
8
0
0
POLYLINE
8
0
66
1
40
0.000000
41
0.000000
0
VERTEX
8
0
10
-0.615831
20
-0.188421
0
VERTEX
8
0
10
-0.584215
20
-0.188421
0
SEQEND
8
0
0
POLYLINE
8
0
66
1
40
0.000000
41
0.000000
0
VERTEX
8
0
10
-0.616050
20
-0.184484
0
VERTEX
8
0
10
-0.583996
20
-0.184484
0
SEQEND
8
0
0
POLYLINE
8
0
66
1
40
0.000000
41
0.000000
0
VERTEX
8
0
10
-0.616270
20
-0.180547
0
VERTEX
8
0
10
-0.583777
20
-0.180547
0
SEQEND
8
0
0
POLYLINE
8
0
66
1
40
0.000000
41
0.000000
0
VERTEX
8
0
10
-0.616489
20
-0.176610
0
VERTEX
8
0
10
-0.583557
20
-0.176610
0
SEQEND
8
0
0
POLYLINE
8
0
66
1
40
0.000000
41
0.000000
0
VERTEX
8
0
10
-0.616708
20
-0.172673
0
VERTEX
8
0
10
-0.583338
20
-0.172673
0
SEQEND
8
0
0
POLYLINE
8
0
66
1
40
0.000000
41
0.000000
0
VERTEX
8
0
10
-0.616820
20
-0.170680
0
VERTEX
8
0
10
-0.616820
20
-0.170680
0
SEQEND
8
0
0
POLYLINE
8
0
66
1
40
0.010000
41
0.010000
0
VERTEX
8
0
10
-0.585000
20
-0.202500
0
VERTEX
8
0
10
-0.583331
20
-0.172547
0
VERTEX
8
0
10
-0.616820
20
-0.170680
0
VERTEX
8
0
10
-0.614953
20
-0.204169
0
VERTEX
8
0
10
-0.585000
20
-0.202500
0
SEQEND
8
0
0
POLYLINE
8
0
66
1
40
0.000000
41
0.000000
0
VERTEX
8
0
10
-0.633180
20
0.160680
0
VERTEX
8
0
10
-0.633180
20
0.160680
0
SEQEND
8
0
0
POLYLINE
8
0
66
1
40
0.000000
41
0.000000
0
VERTEX
8
0
10
-0.666553
20
0.164617
0
VERTEX
8
0
10
-0.633400
20
0.164617
0
SEQEND
8
0
0
POLYLINE
8
0
66
1
40
0.000000
41
0.000000
0
VERTEX
8
0
10
-0.666334
20
0.168554
0
VERTEX
8
0
10
-0.633619
20
0.168554
0
SEQEND
8
0
0
POLYLINE
8
0
66
1
40
0.000000
41
0.000000
0
VERTEX
8
0
10
-0.666115
20
0.172491
0
VERTEX
8
0
10
-0.633839
20
0.172491
0
SEQEND
8
0
0
POLYLINE
8
0
66
1
40
0.000000
41
0.000000
0
VERTEX
8
0
10
-0.665895
20
0.176428
0
VERTEX
8
0
10
-0.634058
20
0.176428
0
SEQEND
8
0
0
POLYLINE
8
0
66
1
40
0.000000
41
0.000000
0
VERTEX
8
0
10
-0.665676
20
0.180365
0
VERTEX
8
0
10
-0.634277
20
0.180365
0
SEQEND
8
0
0
POLYLINE
8
0
66
1
40
0.000000
41
0.000000
0
VERTEX
8
0
10
-0.665457
20
0.184302
0
VERTEX
8
0
10
-0.634497
20
0.184302
0
SEQEND
8
0
0
POLYLINE
8
0
66
1
40
0.000000
41
0.000000
0
VERTEX
8
0
10
-0.665237
20
0.188239
0
VERTEX
8
0
10
-0.634716
20
0.188239
0
SEQEND
8
0
0
POLYLINE
8
0
66
1
40
0.000000
41
0.000000
0
VERTEX
8
0
10
-0.665018
20
0.192176
0
VERTEX
8
0
10
-0.634935
20
0.192176
0
SEQEND
8
0
0
POLYLINE
8
0
66
1
40
0.000000
41
0.000000
0
VERTEX
8
0
10
-0.635047
20
0.194169
0
VERTEX
8
0
10
-0.635047
20
0.194169
0
SEQEND
8
0
0
POLYLINE
8
0
66
1
40
0.010000
41
0.010000
0
VERTEX
8
0
10
-0.665000
20
0.192500
0
VERTEX
8
0
10
-0.666669
20
0.162546
0
VERTEX
8
0
10
-0.633180
20
0.160680
0
VERTEX
8
0
10
-0.635047
20
0.194169
0
VERTEX
8
0
10
-0.665000
20
0.192500
0
SEQEND
8
0
0
POLYLINE
8
0
66
1
40
0.000000
41
0.000000
0
VERTEX
8
0
10
-0.633180
20
-0.239320
0
VERTEX
8
0
10
-0.633180
20
-0.239320
0
SEQEND
8
0
0
POLYLINE
8
0
66
1
40
0.000000
41
0.000000
0
VERTEX
8
0
10
-0.666553
20
-0.235383
0
VERTEX
8
0
10
-0.633399
20
-0.235383
0
SEQEND
8
0
0
POLYLINE
8
0
66
1
40
0.000000
41
0.000000
0
VERTEX
8
0
10
-0.666333
20
-0.231446
0
VERTEX
8
0
10
-0.633619
20
-0.231446
0
SEQEND
8
0
0
POLYLINE
8
0
66
1
40
0.000000
41
0.000000
0
VERTEX
8
0
10
-0.666114
20
-0.227509
0
VERTEX
8
0
10
-0.633838
20
-0.227509
0
SEQEND
8
0
0
POLYLINE
8
0
66
1
40
0.000000
41
0.000000
0
VERTEX
8
0
10
-0.665895
20
-0.223572
0
VERTEX
8
0
10
-0.634057
20
-0.223572
0
SEQEND
8
0
0
POLYLINE
8
0
66
1
40
0.000000
41
0.000000
0
VERTEX
8
0
10
-0.665676
20
-0.219635
0
VERTEX
8
0
10
-0.634277
20
-0.219635
0
SEQEND
8
0
0
POLYLINE
8
0
66
1
40
0.000000
41
0.000000
0
VERTEX
8
0
10
-0.665456
20
-0.215698
0
VERTEX
8
0
10
-0.634496
20
-0.215698
0
SEQEND
8
0
0
POLYLINE
8
0
66
1
40
0.000000
41
0.000000
0
VERTEX
8
0
10
-0.665237
20
-0.211761
0
VERTEX
8
0
10
-0.634716
20
-0.211761
0
SEQEND
8
0
0
POLYLINE
8
0
66
1
40
0.000000
41
0.000000
0
VERTEX
8
0
10
-0.665017
20
-0.207824
0
VERTEX
8
0
10
-0.634935
20
-0.207824
0
SEQEND
8
0
0
POLYLINE
8
0
66
1
40
0.000000
41
0.000000
0
VERTEX
8
0
10
-0.635046
20
-0.205831
0
VERTEX
8
0
10
-0.635046
20
-0.205831
0
SEQEND
8
0
0
POLYLINE
8
0
66
1
40
0.010000
41
0.010000
0
VERTEX
8
0
10
-0.665000
20
-0.207500
0
VERTEX
8
0
10
-0.666669
20
-0.237454
0
VERTEX
8
0
10
-0.633180
20
-0.239320
0
VERTEX
8
0
10
-0.635046
20
-0.205831
0
VERTEX
8
0
10
-0.665000
20
-0.207500
0
SEQEND
8
0
0
POLYLINE
8
0
66
1
40
0.000000
41
0.000000
0
VERTEX
8
0
10
-0.715047
20
0.195830
0
VERTEX
8
0
10
-0.715047
20
0.195830
0
SEQEND
8
0
0
POLYLINE
8
0
66
1
40
0.000000
41
0.000000
0
VERTEX
8
0
10
-0.745126
20
0.199767
0
VERTEX
8
0
10
-0.714827
20
0.199767
0
SEQEND
8
0
0
POLYLINE
8
0
66
1
40
0.000000
41
0.000000
0
VERTEX
8
0
10
-0.745346
20
0.203704
0
VERTEX
8
0
10
-0.714608
20
0.203704
0
SEQEND
8
0
0
POLYLINE
8
0
66
1
40
0.000000
41
0.000000
0
VERTEX
8
0
10
-0.745565
20
0.207641
0
VERTEX
8
0
10
-0.714388
20
0.207641
0
SEQEND
8
0
0
POLYLINE
8
0
66
1
40
0.000000
41
0.000000
0
VERTEX
8
0
10
-0.745784
20
0.211578
0
VERTEX
8
0
10
-0.714169
20
0.211578
0
SEQEND
8
0
0
POLYLINE
8
0
66
1
40
0.000000
41
0.000000
0
VERTEX
8
0
10
-0.746004
20
0.215515
0
VERTEX
8
0
10
-0.713950
20
0.215515
0
SEQEND
8
0
0
POLYLINE
8
0
66
1
40
0.000000
41
0.000000
0
VERTEX
8
0
10
-0.746223
20
0.219452
0
VERTEX
8
0
10
-0.713730
20
0.219452
0
SEQEND
8
0
0
POLYLINE
8
0
66
1
40
0.000000
41
0.000000
0
VERTEX
8
0
10
-0.746443
20
0.223389
0
VERTEX
8
0
10
-0.713511
20
0.223389
0
SEQEND
8
0
0
POLYLINE
8
0
66
1
40
0.000000
41
0.000000
0
VERTEX
8
0
10
-0.746662
20
0.227326
0
VERTEX
8
0
10
-0.713291
20
0.227326
0
SEQEND
8
0
0
POLYLINE
8
0
66
1
40
0.000000
41
0.000000
0
VERTEX
8
0
10
-0.713180
20
0.229319
0
VERTEX
8
0
10
-0.713180
20
0.229319
0
SEQEND
8
0
0
POLYLINE
8
0
66
1
40
0.010000
41
0.010000
0
VERTEX
8
0
10
-0.745000
20
0.197499
0
VERTEX
8
0
10
-0.715047
20
0.195830
0
VERTEX
8
0
10
-0.713180
20
0.229319
0
VERTEX
8
0
10
-0.746669
20
0.227452
0
VERTEX
8
0
10
-0.745000
20
0.197499
0
SEQEND
8
0
0
POLYLINE
8
0
66
1
40
0.000000
41
0.000000
0
VERTEX
8
0
10
-0.715047
20
-0.204170
0
VERTEX
8
0
10
-0.715047
20
-0.204170
0
SEQEND
8
0
0
POLYLINE
8
0
66
1
40
0.000000
41
0.000000
0
VERTEX
8
0
10
-0.745126
20
-0.200233
0
VERTEX
8
0
10
-0.714827
20
-0.200233
0
SEQEND
8
0
0
POLYLINE
8
0
66
1
40
0.000000
41
0.000000
0
VERTEX
8
0
10
-0.745346
20
-0.196296
0
VERTEX
8
0
10
-0.714608
20
-0.196296
0
SEQEND
8
0
0
POLYLINE
8
0
66
1
40
0.000000
41
0.000000
0
VERTEX
8
0
10
-0.745565
20
-0.192359
0
VERTEX
8
0
10
-0.714388
20
-0.192359
0
SEQEND
8
0
0
POLYLINE
8
0
66
1
40
0.000000
41
0.000000
0
VERTEX
8
0
10
-0.745784
20
-0.188422
0
VERTEX
8
0
10
-0.714169
20
-0.188422
0
SEQEND
8
0
0
POLYLINE
8
0
66
1
40
0.000000
41
0.000000
0
VERTEX
8
0
10
-0.746004
20
-0.184485
0
VERTEX
8
0
10
-0.713950
20
-0.184485
0
SEQEND
8
0
0
POLYLINE
8
0
66
1
40
0.000000
41
0.000000
0
VERTEX
8
0
10
-0.746223
20
-0.180548
0
VERTEX
8
0
10
-0.713730
20
-0.180548
0
SEQEND
8
0
0
POLYLINE
8
0
66
1
40
0.000000
41
0.000000
0
VERTEX
8
0
10
-0.746443
20
-0.176611
0
VERTEX
8
0
10
-0.713511
20
-0.176611
0
SEQEND
8
0
0
POLYLINE
8
0
66
1
40
0.000000
41
0.000000
0
VERTEX
8
0
10
-0.746662
20
-0.172674
0
VERTEX
8
0
10
-0.713291
20
-0.172674
0
SEQEND
8
0
0
POLYLINE
8
0
66
1
40
0.000000
41
0.000000
0
VERTEX
8
0
10
-0.713180
20
-0.170681
0
VERTEX
8
0
10
-0.713180
20
-0.170681
0
SEQEND
8
0
0
POLYLINE
8
0
66
1
40
0.010000
41
0.010000
0
VERTEX
8
0
10
-0.745000
20
-0.202501
0
VERTEX
8
0
10
-0.715047
20
-0.204170
0
VERTEX
8
0
10
-0.713180
20
-0.170681
0
VERTEX
8
0
10
-0.746669
20
-0.172548
0
VERTEX
8
0
10
-0.745000
20
-0.202501
0
SEQEND
8
0
0
POLYLINE
8
0
66
1
40
0.000000
41
0.000000
0
VERTEX
8
0
10
0.203180
20
0.165680
0
VERTEX
8
0
10
0.203180
20
0.165680
0
SEQEND
8
0
0
POLYLINE
8
0
66
1
40
0.000000
41
0.000000
0
VERTEX
8
0
10
0.203400
20
0.169617
0
VERTEX
8
0
10
0.236553
20
0.169617
0
SEQEND
8
0
0
POLYLINE
8
0
66
1
40
0.000000
41
0.000000
0
VERTEX
8
0
10
0.203619
20
0.173554
0
VERTEX
8
0
10
0.236334
20
0.173554
0
SEQEND
8
0
0
POLYLINE
8
0
66
1
40
0.000000
41
0.000000
0
VERTEX
8
0
10
0.203839
20
0.177491
0
VERTEX
8
0
10
0.236115
20
0.177491
0
SEQEND
8
0
0
POLYLINE
8
0
66
1
40
0.000000
41
0.000000
0
VERTEX
8
0
10
0.204058
20
0.181428
0
VERTEX
8
0
10
0.235895
20
0.181428
0
SEQEND
8
0
0
POLYLINE
8
0
66
1
40
0.000000
41
0.000000
0
VERTEX
8
0
10
0.204277
20
0.185365
0
VERTEX
8
0
10
0.235676
20
0.185365
0
SEQEND
8
0
0
POLYLINE
8
0
66
1
40
0.000000
41
0.000000
0
VERTEX
8
0
10
0.204497
20
0.189302
0
VERTEX
8
0
10
0.235457
20
0.189302
0
SEQEND
8
0
0
POLYLINE
8
0
66
1
40
0.000000
41
0.000000
0
VERTEX
8
0
10
0.204716
20
0.193239
0
VERTEX
8
0
10
0.235237
20
0.193239
0
SEQEND
8
0
0
POLYLINE
8
0
66
1
40
0.000000
41
0.000000
0
VERTEX
8
0
10
0.204935
20
0.197176
0
VERTEX
8
0
10
0.235018
20
0.197176
0
SEQEND
8
0
0
POLYLINE
8
0
66
1
40
0.000000
41
0.000000
0
VERTEX
8
0
10
0.205047
20
0.199169
0
VERTEX
8
0
10
0.205047
20
0.199169
0
SEQEND
8
0
0
POLYLINE
8
0
66
1
40
0.010000
41
0.010000
0
VERTEX
8
0
10
0.235000
20
0.197500
0
VERTEX
8
0
10
0.205047
20
0.199169
0
VERTEX
8
0
10
0.203180
20
0.165680
0
VERTEX
8
0
10
0.236669
20
0.167547
0
VERTEX
8
0
10
0.235000
20
0.197500
0
SEQEND
8
0
0
POLYLINE
8
0
66
1
40
0.000000
41
0.000000
0
VERTEX
8
0
10
0.203180
20
-0.234320
0
VERTEX
8
0
10
0.203180
20
-0.234320
0
SEQEND
8
0
0
POLYLINE
8
0
66
1
40
0.000000
41
0.000000
0
VERTEX
8
0
10
0.203400
20
-0.230383
0
VERTEX
8
0
10
0.236553
20
-0.230383
0
SEQEND
8
0
0
POLYLINE
8
0
66
1
40
0.000000
41
0.000000
0
VERTEX
8
0
10
0.203619
20
-0.226446
0
VERTEX
8
0
10
0.236334
20
-0.226446
0
SEQEND
8
0
0
POLYLINE
8
0
66
1
40
0.000000
41
0.000000
0
VERTEX
8
0
10
0.203839
20
-0.222509
0
VERTEX
8
0
10
0.236115
20
-0.222509
0
SEQEND
8
0
0
POLYLINE
8
0
66
1
40
0.000000
41
0.000000
0
VERTEX
8
0
10
0.204058
20
-0.218572
0
VERTEX
8
0
10
0.235895
20
-0.218572
0
SEQEND
8
0
0
POLYLINE
8
0
66
1
40
0.000000
41
0.000000
0
VERTEX
8
0
10
0.204277
20
-0.214635
0
VERTEX
8
0
10
0.235676
20
-0.214635
0
SEQEND
8
0
0
POLYLINE
8
0
66
1
40
0.000000
41
0.000000
0
VERTEX
8
0
10
0.204497
20
-0.210698
0
VERTEX
8
0
10
0.235457
20
-0.210698
0
SEQEND
8
0
0
POLYLINE
8
0
66
1
40
0.000000
41
0.000000
0
VERTEX
8
0
10
0.204716
20
-0.206761
0
VERTEX
8
0
10
0.235237
20
-0.206761
0
SEQEND
8
0
0
POLYLINE
8
0
66
1
40
0.000000
41
0.000000
0
VERTEX
8
0
10
0.204935
20
-0.202824
0
VERTEX
8
0
10
0.235018
20
-0.202824
0
SEQEND
8
0
0
POLYLINE
8
0
66
1
40
0.000000
41
0.000000
0
VERTEX
8
0
10
0.205047
20
-0.200831
0
VERTEX
8
0
10
0.205047
20
-0.200831
0
SEQEND
8
0
0
POLYLINE
8
0
66
1
40
0.010000
41
0.010000
0
VERTEX
8
0
10
0.235000
20
-0.202500
0
VERTEX
8
0
10
0.205047
20
-0.200831
0
VERTEX
8
0
10
0.203180
20
-0.234320
0
VERTEX
8
0
10
0.236669
20
-0.232453
0
VERTEX
8
0
10
0.235000
20
-0.202500
0
SEQEND
8
0
0
POLYLINE
8
0
66
1
40
0.000000
41
0.000000
0
VERTEX
8
0
10
0.335000
20
-0.224861
0
VERTEX
8
0
10
0.335000
20
-0.224861
0
SEQEND
8
0
0
POLYLINE
8
0
66
1
40
0.000000
41
0.000000
0
VERTEX
8
0
10
0.331478
20
-0.220924
0
VERTEX
8
0
10
0.339402
20
-0.220924
0
SEQEND
8
0
0
POLYLINE
8
0
66
1
40
0.000000
41
0.000000
0
VERTEX
8
0
10
0.327957
20
-0.216987
0
VERTEX
8
0
10
0.343803
20
-0.216987
0
SEQEND
8
0
0
POLYLINE
8
0
66
1
40
0.000000
41
0.000000
0
VERTEX
8
0
10
0.324436
20
-0.213050
0
VERTEX
8
0
10
0.348205
20
-0.213050
0
SEQEND
8
0
0
POLYLINE
8
0
66
1
40
0.000000
41
0.000000
0
VERTEX
8
0
10
0.320914
20
-0.209113
0
VERTEX
8
0
10
0.352607
20
-0.209113
0
SEQEND
8
0
0
POLYLINE
8
0
66
1
40
0.000000
41
0.000000
0
VERTEX
8
0
10
0.317393
20
-0.205176
0
VERTEX
8
0
10
0.357008
20
-0.205176
0
SEQEND
8
0
0
POLYLINE
8
0
66
1
40
0.000000
41
0.000000
0
VERTEX
8
0
10
0.316128
20
-0.201239
0
VERTEX
8
0
10
0.358589
20
-0.201239
0
SEQEND
8
0
0
POLYLINE
8
0
66
1
40
0.000000
41
0.000000
0
VERTEX
8
0
10
0.319650
20
-0.197302
0
VERTEX
8
0
10
0.354188
20
-0.197302
0
SEQEND
8
0
0
POLYLINE
8
0
66
1
40
0.000000
41
0.000000
0
VERTEX
8
0
10
0.323171
20
-0.193365
0
VERTEX
8
0
10
0.349786
20
-0.193365
0
SEQEND
8
0
0
POLYLINE
8
0
66
1
40
0.000000
41
0.000000
0
VERTEX
8
0
10
0.326692
20
-0.189428
0
VERTEX
8
0
10
0.345384
20
-0.189428
0
SEQEND
8
0
0
POLYLINE
8
0
66
1
40
0.000000
41
0.000000
0
VERTEX
8
0
10
0.330213
20
-0.185491
0
VERTEX
8
0
10
0.340983
20
-0.185491
0
SEQEND
8
0
0
POLYLINE
8
0
66
1
40
0.000000
41
0.000000
0
VERTEX
8
0
10
0.333735
20
-0.181554
0
VERTEX
8
0
10
0.336581
20
-0.181554
0
SEQEND
8
0
0
POLYLINE
8
0
66
1
40
0.000000
41
0.000000
0
VERTEX
8
0
10
0.335000
20
-0.180139
0
VERTEX
8
0
10
0.335000
20
-0.180139
0
SEQEND
8
0
0
POLYLINE
8
0
66
1
40
0.010000
41
0.010000
0
VERTEX
8
0
10
0.315000
20
-0.202500
0
VERTEX
8
0
10
0.335000
20
-0.224861
0
VERTEX
8
0
10
0.360000
20
-0.202500
0
VERTEX
8
0
10
0.335000
20
-0.180139
0
VERTEX
8
0
10
0.315000
20
-0.202500
0
SEQEND
8
0
0
POLYLINE
8
0
66
1
40
0.000000
41
0.000000
0
VERTEX
8
0
10
0.375000
20
-0.224861
0
VERTEX
8
0
10
0.375000
20
-0.224861
0
SEQEND
8
0
0
POLYLINE
8
0
66
1
40
0.000000
41
0.000000
0
VERTEX
8
0
10
0.370598
20
-0.220924
0
VERTEX
8
0
10
0.378521
20
-0.220924
0
SEQEND
8
0
0
POLYLINE
8
0
66
1
40
0.000000
41
0.000000
0
VERTEX
8
0
10
0.366196
20
-0.216987
0
VERTEX
8
0
10
0.382043
20
-0.216987
0
SEQEND
8
0
0
POLYLINE
8
0
66
1
40
0.000000
41
0.000000
0
VERTEX
8
0
10
0.361794
20
-0.213050
0
VERTEX
8
0
10
0.385564
20
-0.213050
0
SEQEND
8
0
0
POLYLINE
8
0
66
1
40
0.000000
41
0.000000
0
VERTEX
8
0
10
0.357393
20
-0.209113
0
VERTEX
8
0
10
0.389085
20
-0.209113
0
SEQEND
8
0
0
POLYLINE
8
0
66
1
40
0.000000
41
0.000000
0
VERTEX
8
0
10
0.352991
20
-0.205176
0
VERTEX
8
0
10
0.392607
20
-0.205176
0
SEQEND
8
0
0
POLYLINE
8
0
66
1
40
0.000000
41
0.000000
0
VERTEX
8
0
10
0.351410
20
-0.201239
0
VERTEX
8
0
10
0.393872
20
-0.201239
0
SEQEND
8
0
0
POLYLINE
8
0
66
1
40
0.000000
41
0.000000
0
VERTEX
8
0
10
0.355812
20
-0.197302
0
VERTEX
8
0
10
0.390350
20
-0.197302
0
SEQEND
8
0
0
POLYLINE
8
0
66
1
40
0.000000
41
0.000000
0
VERTEX
8
0
10
0.360213
20
-0.193365
0
VERTEX
8
0
10
0.386829
20
-0.193365
0
SEQEND
8
0
0
POLYLINE
8
0
66
1
40
0.000000
41
0.000000
0
VERTEX
8
0
10
0.364615
20
-0.189428
0
VERTEX
8
0
10
0.383307
20
-0.189428
0
SEQEND
8
0
0
POLYLINE
8
0
66
1
40
0.000000
41
0.000000
0
VERTEX
8
0
10
0.369017
20
-0.185491
0
VERTEX
8
0
10
0.379786
20
-0.185491
0
SEQEND
8
0
0
POLYLINE
8
0
66
1
40
0.000000
41
0.000000
0
VERTEX
8
0
10
0.373419
20
-0.181554
0
VERTEX
8
0
10
0.376265
20
-0.181554
0
SEQEND
8
0
0
POLYLINE
8
0
66
1
40
0.000000
41
0.000000
0
VERTEX
8
0
10
0.375000
20
-0.180139
0
VERTEX
8
0
10
0.375000
20
-0.180139
0
SEQEND
8
0
0
POLYLINE
8
0
66
1
40
0.010000
41
0.010000
0
VERTEX
8
0
10
0.395000
20
-0.202500
0
VERTEX
8
0
10
0.375000
20
-0.180139
0
VERTEX
8
0
10
0.350000
20
-0.202500
0
VERTEX
8
0
10
0.375000
20
-0.224861
0
VERTEX
8
0
10
0.395000
20
-0.202500
0
SEQEND
8
0
0
POLYLINE
8
0
66
1
40
0.000000
41
0.000000
0
VERTEX
8
0
10
-0.390814
20
-0.363961
0
VERTEX
8
0
10
-0.390814
20
-0.363961
0
SEQEND
8
0
0
POLYLINE
8
0
66
1
40
0.000000
41
0.000000
0
VERTEX
8
0
10
-0.395474
20
-0.360024
0
VERTEX
8
0
10
-0.387488
20
-0.360024
0
SEQEND
8
0
0
POLYLINE
8
0
66
1
40
0.000000
41
0.000000
0
VERTEX
8
0
10
-0.400134
20
-0.356087
0
VERTEX
8
0
10
-0.384162
20
-0.356087
0
SEQEND
8
0
0
POLYLINE
8
0
66
1
40
0.000000
41
0.000000
0
VERTEX
8
0
10
-0.404794
20
-0.352150
0
VERTEX
8
0
10
-0.380835
20
-0.352150
0
SEQEND
8
0
0
POLYLINE
8
0
66
1
40
0.000000
41
0.000000
0
VERTEX
8
0
10
-0.409454
20
-0.348213
0
VERTEX
8
0
10
-0.377509
20
-0.348213
0
SEQEND
8
0
0
POLYLINE
8
0
66
1
40
0.000000
41
0.000000
0
VERTEX
8
0
10
-0.414114
20
-0.344276
0
VERTEX
8
0
10
-0.374183
20
-0.344276
0
SEQEND
8
0
0
POLYLINE
8
0
66
1
40
0.000000
41
0.000000
0
VERTEX
8
0
10
-0.418774
20
-0.340339
0
VERTEX
8
0
10
-0.370857
20
-0.340339
0
SEQEND
8
0
0
POLYLINE
8
0
66
1
40
0.000000
41
0.000000
0
VERTEX
8
0
10
-0.417251
20
-0.336402
0
VERTEX
8
0
10
-0.367531
20
-0.336402
0
SEQEND
8
0
0
POLYLINE
8
0
66
1
40
0.000000
41
0.000000
0
VERTEX
8
0
10
-0.414298
20
-0.332465
0
VERTEX
8
0
10
-0.366254
20
-0.332465
0
SEQEND
8
0
0
POLYLINE
8
0
66
1
40
0.000000
41
0.000000
0
VERTEX
8
0
10
-0.411344
20
-0.328528
0
VERTEX
8
0
10
-0.371502
20
-0.328528
0
SEQEND
8
0
0
POLYLINE
8
0
66
1
40
0.000000
41
0.000000
0
VERTEX
8
0
10
-0.408391
20
-0.324591
0
VERTEX
8
0
10
-0.376750
20
-0.324591
0
SEQEND
8
0
0
POLYLINE
8
0
66
1
40
0.000000
41
0.000000
0
VERTEX
8
0
10
-0.405437
20
-0.320654
0
VERTEX
8
0
10
-0.381999
20
-0.320654
0
SEQEND
8
0
0
POLYLINE
8
0
66
1
40
0.000000
41
0.000000
0
VERTEX
8
0
10
-0.402484
20
-0.316717
0
VERTEX
8
0
10
-0.387247
20
-0.316717
0
SEQEND
8
0
0
POLYLINE
8
0
66
1
40
0.000000
41
0.000000
0
VERTEX
8
0
10
-0.399531
20
-0.312780
0
VERTEX
8
0
10
-0.392495
20
-0.312780
0
SEQEND
8
0
0
POLYLINE
8
0
66
1
40
0.000000
41
0.000000
0
VERTEX
8
0
10
-0.396997
20
-0.309402
0
VERTEX
8
0
10
-0.396997
20
-0.309402
0
SEQEND
8
0
0
POLYLINE
8
0
66
1
40
0.010000
41
0.010000
0
VERTEX
8
0
10
-0.365000
20
-0.333406
0
VERTEX
8
0
10
-0.396997
20
-0.309402
0
VERTEX
8
0
10
-0.419650
20
-0.339599
0
VERTEX
8
0
10
-0.390814
20
-0.363961
0
VERTEX
8
0
10
-0.365000
20
-0.333406
0
SEQEND
8
0
0
POLYLINE
8
0
66
1
40
0.000000
41
0.000000
0
VERTEX
8
0
10
-0.584124
20
-0.370829
0
VERTEX
8
0
10
-0.584124
20
-0.370829
0
SEQEND
8
0
0
POLYLINE
8
0
66
1
40
0.000000
41
0.000000
0
VERTEX
8
0
10
-0.594556
20
-0.366892
0
VERTEX
8
0
10
-0.582637
20
-0.366892
0
SEQEND
8
0
0
POLYLINE
8
0
66
1
40
0.000000
41
0.000000
0
VERTEX
8
0
10
-0.604987
20
-0.362955
0
VERTEX
8
0
10
-0.581152
20
-0.362955
0
SEQEND
8
0
0
POLYLINE
8
0
66
1
40
0.000000
41
0.000000
0
VERTEX
8
0
10
-0.615420
20
-0.359018
0
VERTEX
8
0
10
-0.579666
20
-0.359018
0
SEQEND
8
0
0
POLYLINE
8
0
66
1
40
0.000000
41
0.000000
0
VERTEX
8
0
10
-0.618685
20
-0.355081
0
VERTEX
8
0
10
-0.578180
20
-0.355081
0
SEQEND
8
0
0
POLYLINE
8
0
66
1
40
0.000000
41
0.000000
0
VERTEX
8
0
10
-0.617454
20
-0.351144
0
VERTEX
8
0
10
-0.576694
20
-0.351144
0
SEQEND
8
0
0
POLYLINE
8
0
66
1
40
0.000000
41
0.000000
0
VERTEX
8
0
10
-0.616223
20
-0.347207
0
VERTEX
8
0
10
-0.575208
20
-0.347207
0
SEQEND
8
0
0
POLYLINE
8
0
66
1
40
0.000000
41
0.000000
0
VERTEX
8
0
10
-0.614993
20
-0.343270
0
VERTEX
8
0
10
-0.573722
20
-0.343270
0
SEQEND
8
0
0
POLYLINE
8
0
66
1
40
0.000000
41
0.000000
0
VERTEX
8
0
10
-0.613761
20
-0.339333
0
VERTEX
8
0
10
-0.572237
20
-0.339333
0
SEQEND
8
0
0
POLYLINE
8
0
66
1
40
0.000000
41
0.000000
0
VERTEX
8
0
10
-0.612531
20
-0.335396
0
VERTEX
8
0
10
-0.570751
20
-0.335396
0
SEQEND
8
0
0
POLYLINE
8
0
66
1
40
0.000000
41
0.000000
0
VERTEX
8
0
10
-0.611300
20
-0.331459
0
VERTEX
8
0
10
-0.576227
20
-0.331459
0
SEQEND
8
0
0
POLYLINE
8
0
66
1
40
0.000000
41
0.000000
0
VERTEX
8
0
10
-0.610069
20
-0.327522
0
VERTEX
8
0
10
-0.588821
20
-0.327522
0
SEQEND
8
0
0
POLYLINE
8
0
66
1
40
0.000000
41
0.000000
0
VERTEX
8
0
10
-0.608838
20
-0.323585
0
VERTEX
8
0
10
-0.601415
20
-0.323585
0
SEQEND
8
0
0
POLYLINE
8
0
66
1
40
0.000000
41
0.000000
0
VERTEX
8
0
10
-0.608178
20
-0.321470
0
VERTEX
8
0
10
-0.608178
20
-0.321470
0
SEQEND
8
0
0
POLYLINE
8
0
66
1
40
0.010000
41
0.010000
0
VERTEX
8
0
10
-0.570000
20
-0.333406
0
VERTEX
8
0
10
-0.608178
20
-0.321470
0
VERTEX
8
0
10
-0.619441
20
-0.357500
0
VERTEX
8
0
10
-0.584124
20
-0.370829
0
VERTEX
8
0
10
-0.570000
20
-0.333406
0
SEQEND
8
0
0
POLYLINE
8
0
66
1
40
0.000000
41
0.000000
0
VERTEX
8
0
10
-0.705355
20
0.482145
0
VERTEX
8
0
10
-0.705355
20
0.482145
0
SEQEND
8
0
0
POLYLINE
8
0
66
1
40
0.000000
41
0.000000
0
VERTEX
8
0
10
-0.705315
20
0.486082
0
VERTEX
8
0
10
-0.669685
20
0.486082
0
SEQEND
8
0
0
POLYLINE
8
0
66
1
40
0.000000
41
0.000000
0
VERTEX
8
0
10
-0.705276
20
0.490019
0
VERTEX
8
0
10
-0.669725
20
0.490019
0
SEQEND
8
0
0
POLYLINE
8
0
66
1
40
0.000000
41
0.000000
0
VERTEX
8
0
10
-0.705237
20
0.493956
0
VERTEX
8
0
10
-0.669764
20
0.493956
0
SEQEND
8
0
0
POLYLINE
8
0
66
1
40
0.000000
41
0.000000
0
VERTEX
8
0
10
-0.705197
20
0.497893
0
VERTEX
8
0
10
-0.669804
20
0.497893
0
SEQEND
8
0
0
POLYLINE
8
0
66
1
40
0.000000
41
0.000000
0
VERTEX
8
0
10
-0.705158
20
0.501830
0
VERTEX
8
0
10
-0.669843
20
0.501830
0
SEQEND
8
0
0
POLYLINE
8
0
66
1
40
0.000000
41
0.000000
0
VERTEX
8
0
10
-0.705119
20
0.505767
0
VERTEX
8
0
10
-0.669882
20
0.505767
0
SEQEND
8
0
0
POLYLINE
8
0
66
1
40
0.000000
41
0.000000
0
VERTEX
8
0
10
-0.705079
20
0.509704
0
VERTEX
8
0
10
-0.669922
20
0.509704
0
SEQEND
8
0
0
POLYLINE
8
0
66
1
40
0.000000
41
0.000000
0
VERTEX
8
0
10
-0.705040
20
0.513641
0
VERTEX
8
0
10
-0.669961
20
0.513641
0
SEQEND
8
0
0
POLYLINE
8
0
66
1
40
0.000000
41
0.000000
0
VERTEX
8
0
10
-0.705000
20
0.517578
0
VERTEX
8
0
10
-0.677794
20
0.517578
0
SEQEND
8
0
0
POLYLINE
8
0
66
1
40
0.000000
41
0.000000
0
VERTEX
8
0
10
-0.704998
20
0.517850
0
VERTEX
8
0
10
-0.704998
20
0.517850
0
SEQEND
8
0
0
POLYLINE
8
0
66
1
40
0.010000
41
0.010000
0
VERTEX
8
0
10
-0.670000
20
0.517500
0
VERTEX
8
0
10
-0.704998
20
0.517850
0
VERTEX
8
0
10
-0.705355
20
0.482145
0
VERTEX
8
0
10
-0.669650
20
0.482502
0
VERTEX
8
0
10
-0.670000
20
0.517500
0
SEQEND
8
0
0
POLYLINE
8
0
66
1
40
0.000000
41
0.000000
0
VERTEX
8
0
10
-0.755500
20
-0.382495
0
VERTEX
8
0
10
-0.755500
20
-0.382495
0
SEQEND
8
0
0
POLYLINE
8
0
66
1
40
0.000000
41
0.000000
0
VERTEX
8
0
10
-0.759359
20
-0.378558
0
VERTEX
8
0
10
-0.751483
20
-0.378558
0
SEQEND
8
0
0
POLYLINE
8
0
66
1
40
0.000000
41
0.000000
0
VERTEX
8
0
10
-0.763218
20
-0.374621
0
VERTEX
8
0
10
-0.747467
20
-0.374621
0
SEQEND
8
0
0
POLYLINE
8
0
66
1
40
0.000000
41
0.000000
0
VERTEX
8
0
10
-0.767077
20
-0.370684
0
VERTEX
8
0
10
-0.743450
20
-0.370684
0
SEQEND
8
0
0
POLYLINE
8
0
66
1
40
0.000000
41
0.000000
0
VERTEX
8
0
10
-0.770936
20
-0.366747
0
VERTEX
8
0
10
-0.739434
20
-0.366747
0
SEQEND
8
0
0
POLYLINE
8
0
66
1
40
0.000000
41
0.000000
0
VERTEX
8
0
10
-0.774795
20
-0.362810
0
VERTEX
8
0
10
-0.735417
20
-0.362810
0
SEQEND
8
0
0
POLYLINE
8
0
66
1
40
0.000000
41
0.000000
0
VERTEX
8
0
10
-0.778654
20
-0.358873
0
VERTEX
8
0
10
-0.731400
20
-0.358873
0
SEQEND
8
0
0
POLYLINE
8
0
66
1
40
0.000000
41
0.000000
0
VERTEX
8
0
10
-0.777487
20
-0.354936
0
VERTEX
8
0
10
-0.732616
20
-0.354936
0
SEQEND
8
0
0
POLYLINE
8
0
66
1
40
0.000000
41
0.000000
0
VERTEX
8
0
10
-0.773628
20
-0.350999
0
VERTEX
8
0
10
-0.736632
20
-0.350999
0
SEQEND
8
0
0
POLYLINE
8
0
66
1
40
0.000000
41
0.000000
0
VERTEX
8
0
10
-0.769769
20
-0.347062
0
VERTEX
8
0
10
-0.740649
20
-0.347062
0
SEQEND
8
0
0
POLYLINE
8
0
66
1
40
0.000000
41
0.000000
0
VERTEX
8
0
10
-0.765909
20
-0.343125
0
VERTEX
8
0
10
-0.744666
20
-0.343125
0
SEQEND
8
0
0
POLYLINE
8
0
66
1
40
0.000000
41
0.000000
0
VERTEX
8
0
10
-0.762050
20
-0.339188
0
VERTEX
8
0
10
-0.748682
20
-0.339188
0
SEQEND
8
0
0
POLYLINE
8
0
66
1
40
0.000000
41
0.000000
0
VERTEX
8
0
10
-0.758191
20
-0.335251
0
VERTEX
8
0
10
-0.752699
20
-0.335251
0
SEQEND
8
0
0
POLYLINE
8
0
66
1
40
0.000000
41
0.000000
0
VERTEX
8
0
10
-0.755500
20
-0.332505
0
VERTEX
8
0
10
-0.755500
20
-0.332505
0
SEQEND
8
0
0
POLYLINE
8
0
66
1
40
0.010000
41
0.010000
0
VERTEX
8
0
10
-0.780000
20
-0.357500
0
VERTEX
8
0
10
-0.755500
20
-0.382495
0
VERTEX
8
0
10
-0.730000
20
-0.357500
0
VERTEX
8
0
10
-0.755500
20
-0.332505
0
VERTEX
8
0
10
-0.780000
20
-0.357500
0
SEQEND
8
0
0
POLYLINE
8
0
66
1
40
0.000000
41
0.000000
0
VERTEX
8
0
10
-0.811504
20
-0.342252
0
VERTEX
8
0
10
-0.811504
20
-0.342252
0
SEQEND
8
0
0
POLYLINE
8
0
66
1
40
0.000000
41
0.000000
0
VERTEX
8
0
10
-0.807567
20
-0.344157
0
VERTEX
8
0
10
-0.807567
20
-0.334117
0
SEQEND
8
0
0
POLYLINE
8
0
66
1
40
0.000000
41
0.000000
0
VERTEX
8
0
10
-0.803630
20
-0.346063
0
VERTEX
8
0
10
-0.803630
20
-0.325983
0
SEQEND
8
0
0
POLYLINE
8
0
66
1
40
0.000000
41
0.000000
0
VERTEX
8
0
10
-0.799693
20
-0.347969
0
VERTEX
8
0
10
-0.799693
20
-0.317849
0
SEQEND
8
0
0
POLYLINE
8
0
66
1
40
0.000000
41
0.000000
0
VERTEX
8
0
10
-0.795756
20
-0.349874
0
VERTEX
8
0
10
-0.795756
20
-0.310209
0
SEQEND
8
0
0
POLYLINE
8
0
66
1
40
0.000000
41
0.000000
0
VERTEX
8
0
10
-0.791819
20
-0.351780
0
VERTEX
8
0
10
-0.791819
20
-0.312213
0
SEQEND
8
0
0
POLYLINE
8
0
66
1
40
0.000000
41
0.000000
0
VERTEX
8
0
10
-0.787881
20
-0.353685
0
VERTEX
8
0
10
-0.787881
20
-0.314217
0
SEQEND
8
0
0
POLYLINE
8
0
66
1
40
0.000000
41
0.000000
0
VERTEX
8
0
10
-0.783944
20
-0.355591
0
VERTEX
8
0
10
-0.783944
20
-0.316220
0
SEQEND
8
0
0
POLYLINE
8
0
66
1
40
0.000000
41
0.000000
0
VERTEX
8
0
10
-0.780007
20
-0.357496
0
VERTEX
8
0
10
-0.780007
20
-0.318224
0
SEQEND
8
0
0
POLYLINE
8
0
66
1
40
0.000000
41
0.000000
0
VERTEX
8
0
10
-0.776070
20
-0.349779
0
VERTEX
8
0
10
-0.776070
20
-0.320228
0
SEQEND
8
0
0
POLYLINE
8
0
66
1
40
0.000000
41
0.000000
0
VERTEX
8
0
10
-0.772133
20
-0.342043
0
VERTEX
8
0
10
-0.772133
20
-0.322231
0
SEQEND
8
0
0
POLYLINE
8
0
66
1
40
0.000000
41
0.000000
0
VERTEX
8
0
10
-0.768196
20
-0.334307
0
VERTEX
8
0
10
-0.768196
20
-0.324235
0
SEQEND
8
0
0
POLYLINE
8
0
66
1
40
0.000000
41
0.000000
0
VERTEX
8
0
10
-0.764259
20
-0.326571
0
VERTEX
8
0
10
-0.764259
20
-0.326239
0
SEQEND
8
0
0
POLYLINE
8
0
66
1
40
0.000000
41
0.000000
0
VERTEX
8
0
10
-0.764125
20
-0.326307
0
VERTEX
8
0
10
-0.764125
20
-0.326307
0
SEQEND
8
0
0
POLYLINE
8
0
66
1
40
0.010000
41
0.010000
0
VERTEX
8
0
10
-0.780000
20
-0.357500
0
VERTEX
8
0
10
-0.764125
20
-0.326307
0
VERTEX
8
0
10
-0.795948
20
-0.310112
0
VERTEX
8
0
10
-0.811504
20
-0.342252
0
VERTEX
8
0
10
-0.780000
20
-0.357500
0
SEQEND
8
0
0
POLYLINE
8
0
66
1
40
0.000000
41
0.000000
0
VERTEX
8
0
10
-0.745002
20
-0.557850
0
VERTEX
8
0
10
-0.745002
20
-0.557850
0
SEQEND
8
0
0
POLYLINE
8
0
66
1
40
0.000000
41
0.000000
0
VERTEX
8
0
10
-0.780036
20
-0.553913
0
VERTEX
8
0
10
-0.744962
20
-0.553913
0
SEQEND
8
0
0
POLYLINE
8
0
66
1
40
0.000000
41
0.000000
0
VERTEX
8
0
10
-0.780075
20
-0.549976
0
VERTEX
8
0
10
-0.744923
20
-0.549976
0
SEQEND
8
0
0
POLYLINE
8
0
66
1
40
0.000000
41
0.000000
0
VERTEX
8
0
10
-0.780115
20
-0.546039
0
VERTEX
8
0
10
-0.744883
20
-0.546039
0
SEQEND
8
0
0
POLYLINE
8
0
66
1
40
0.000000
41
0.000000
0
VERTEX
8
0
10
-0.780154
20
-0.542102
0
VERTEX
8
0
10
-0.744844
20
-0.542102
0
SEQEND
8
0
0
POLYLINE
8
0
66
1
40
0.000000
41
0.000000
0
VERTEX
8
0
10
-0.780193
20
-0.538165
0
VERTEX
8
0
10
-0.744805
20
-0.538165
0
SEQEND
8
0
0
POLYLINE
8
0
66
1
40
0.000000
41
0.000000
0
VERTEX
8
0
10
-0.780233
20
-0.534228
0
VERTEX
8
0
10
-0.744765
20
-0.534228
0
SEQEND
8
0
0
POLYLINE
8
0
66
1
40
0.000000
41
0.000000
0
VERTEX
8
0
10
-0.780272
20
-0.530291
0
VERTEX
8
0
10
-0.744726
20
-0.530291
0
SEQEND
8
0
0
POLYLINE
8
0
66
1
40
0.000000
41
0.000000
0
VERTEX
8
0
10
-0.780311
20
-0.526354
0
VERTEX
8
0
10
-0.744687
20
-0.526354
0
SEQEND
8
0
0
POLYLINE
8
0
66
1
40
0.000000
41
0.000000
0
VERTEX
8
0
10
-0.771847
20
-0.522417
0
VERTEX
8
0
10
-0.744647
20
-0.522417
0
SEQEND
8
0
0
POLYLINE
8
0
66
1
40
0.000000
41
0.000000
0
VERTEX
8
0
10
-0.744645
20
-0.522145
0
VERTEX
8
0
10
-0.744645
20
-0.522145
0
SEQEND
8
0
0
POLYLINE
8
0
66
1
40
0.010000
41
0.010000
0
VERTEX
8
0
10
-0.780000
20
-0.557500
0
VERTEX
8
0
10
-0.745002
20
-0.557850
0
VERTEX
8
0
10
-0.744645
20
-0.522145
0
VERTEX
8
0
10
-0.780350
20
-0.522502
0
VERTEX
8
0
10
-0.780000
20
-0.557500
0
SEQEND
8
0
0
POLYLINE
8
0
66
1
40
0.000000
41
0.000000
0
VERTEX
8
0
10
0.260000
20
0.425139
0
VERTEX
8
0
10
0.260000
20
0.425139
0
SEQEND
8
0
0
POLYLINE
8
0
66
1
40
0.000000
41
0.000000
0
VERTEX
8
0
10
0.255598
20
0.429076
0
VERTEX
8
0
10
0.263521
20
0.429076
0
SEQEND
8
0
0
POLYLINE
8
0
66
1
40
0.000000
41
0.000000
0
VERTEX
8
0
10
0.251196
20
0.433013
0
VERTEX
8
0
10
0.267043
20
0.433013
0
SEQEND
8
0
0
POLYLINE
8
0
66
1
40
0.000000
41
0.000000
0
VERTEX
8
0
10
0.246794
20
0.436950
0
VERTEX
8
0
10
0.270564
20
0.436950
0
SEQEND
8
0
0
POLYLINE
8
0
66
1
40
0.000000
41
0.000000
0
VERTEX
8
0
10
0.242393
20
0.440887
0
VERTEX
8
0
10
0.274085
20
0.440887
0
SEQEND
8
0
0
POLYLINE
8
0
66
1
40
0.000000
41
0.000000
0
VERTEX
8
0
10
0.237991
20
0.444824
0
VERTEX
8
0
10
0.277607
20
0.444824
0
SEQEND
8
0
0
POLYLINE
8
0
66
1
40
0.000000
41
0.000000
0
VERTEX
8
0
10
0.236410
20
0.448761
0
VERTEX
8
0
10
0.278872
20
0.448761
0
SEQEND
8
0
0
POLYLINE
8
0
66
1
40
0.000000
41
0.000000
0
VERTEX
8
0
10
0.240812
20
0.452698
0
VERTEX
8
0
10
0.275350
20
0.452698
0
SEQEND
8
0
0
POLYLINE
8
0
66
1
40
0.000000
41
0.000000
0
VERTEX
8
0
10
0.245213
20
0.456635
0
VERTEX
8
0
10
0.271829
20
0.456635
0
SEQEND
8
0
0
POLYLINE
8
0
66
1
40
0.000000
41
0.000000
0
VERTEX
8
0
10
0.249615
20
0.460572
0
VERTEX
8
0
10
0.268307
20
0.460572
0
SEQEND
8
0
0
POLYLINE
8
0
66
1
40
0.000000
41
0.000000
0
VERTEX
8
0
10
0.254017
20
0.464509
0
VERTEX
8
0
10
0.264786
20
0.464509
0
SEQEND
8
0
0
POLYLINE
8
0
66
1
40
0.000000
41
0.000000
0
VERTEX
8
0
10
0.258419
20
0.468446
0
VERTEX
8
0
10
0.261265
20
0.468446
0
SEQEND
8
0
0
POLYLINE
8
0
66
1
40
0.000000
41
0.000000
0
VERTEX
8
0
10
0.260000
20
0.469861
0
VERTEX
8
0
10
0.260000
20
0.469861
0
SEQEND
8
0
0
POLYLINE
8
0
66
1
40
0.010000
41
0.010000
0
VERTEX
8
0
10
0.280000
20
0.447500
0
VERTEX
8
0
10
0.260000
20
0.469861
0
VERTEX
8
0
10
0.235000
20
0.447500
0
VERTEX
8
0
10
0.260000
20
0.425139
0
VERTEX
8
0
10
0.280000
20
0.447500
0
SEQEND
8
0
0
POLYLINE
8
0
66
1
40
0.000000
41
0.000000
0
VERTEX
8
0
10
0.660000
20
0.425139
0
VERTEX
8
0
10
0.660000
20
0.425139
0
SEQEND
8
0
0
POLYLINE
8
0
66
1
40
0.000000
41
0.000000
0
VERTEX
8
0
10
0.655598
20
0.429076
0
VERTEX
8
0
10
0.663521
20
0.429076
0
SEQEND
8
0
0
POLYLINE
8
0
66
1
40
0.000000
41
0.000000
0
VERTEX
8
0
10
0.651196
20
0.433013
0
VERTEX
8
0
10
0.667043
20
0.433013
0
SEQEND
8
0
0
POLYLINE
8
0
66
1
40
0.000000
41
0.000000
0
VERTEX
8
0
10
0.646794
20
0.436950
0
VERTEX
8
0
10
0.670564
20
0.436950
0
SEQEND
8
0
0
POLYLINE
8
0
66
1
40
0.000000
41
0.000000
0
VERTEX
8
0
10
0.642393
20
0.440887
0
VERTEX
8
0
10
0.674085
20
0.440887
0
SEQEND
8
0
0
POLYLINE
8
0
66
1
40
0.000000
41
0.000000
0
VERTEX
8
0
10
0.637991
20
0.444824
0
VERTEX
8
0
10
0.677607
20
0.444824
0
SEQEND
8
0
0
POLYLINE
8
0
66
1
40
0.000000
41
0.000000
0
VERTEX
8
0
10
0.636410
20
0.448761
0
VERTEX
8
0
10
0.678872
20
0.448761
0
SEQEND
8
0
0
POLYLINE
8
0
66
1
40
0.000000
41
0.000000
0
VERTEX
8
0
10
0.640812
20
0.452698
0
VERTEX
8
0
10
0.675350
20
0.452698
0
SEQEND
8
0
0
POLYLINE
8
0
66
1
40
0.000000
41
0.000000
0
VERTEX
8
0
10
0.645213
20
0.456635
0
VERTEX
8
0
10
0.671829
20
0.456635
0
SEQEND
8
0
0
POLYLINE
8
0
66
1
40
0.000000
41
0.000000
0
VERTEX
8
0
10
0.649615
20
0.460572
0
VERTEX
8
0
10
0.668307
20
0.460572
0
SEQEND
8
0
0
POLYLINE
8
0
66
1
40
0.000000
41
0.000000
0
VERTEX
8
0
10
0.654017
20
0.464509
0
VERTEX
8
0
10
0.664786
20
0.464509
0
SEQEND
8
0
0
POLYLINE
8
0
66
1
40
0.000000
41
0.000000
0
VERTEX
8
0
10
0.658419
20
0.468446
0
VERTEX
8
0
10
0.661265
20
0.468446
0
SEQEND
8
0
0
POLYLINE
8
0
66
1
40
0.000000
41
0.000000
0
VERTEX
8
0
10
0.660000
20
0.469861
0
VERTEX
8
0
10
0.660000
20
0.469861
0
SEQEND
8
0
0
POLYLINE
8
0
66
1
40
0.010000
41
0.010000
0
VERTEX
8
0
10
0.680000
20
0.447500
0
VERTEX
8
0
10
0.660000
20
0.469861
0
VERTEX
8
0
10
0.635000
20
0.447500
0
VERTEX
8
0
10
0.660000
20
0.425139
0
VERTEX
8
0
10
0.680000
20
0.447500
0
SEQEND
8
0
0
INSERT
8
0
2
EPAD
10
0.715000
20
0.197500
41
0.070000
42
0.070000
0
CIRCLE
8
0
10
0.715000
20
0.197500
40
0.025000
0
INSERT
8
0
2
EPAD
10
0.715000
20
-0.202500
41
0.070000
42
0.070000
0
CIRCLE
8
0
10
0.715000
20
-0.202500
40
0.025000
0
INSERT
8
0
2
RPAD
10
0.300000
20
0.317500
41
0.080000
42
0.080000
50
0.000000
0
CIRCLE
8
0
10
0.300000
20
0.317500
40
0.025000
0
INSERT
8
0
2
RPAD
10
0.400000
20
0.317500
41
0.080000
42
0.080000
50
0.000000
0
CIRCLE
8
0
10
0.400000
20
0.317500
40
0.025000
0
INSERT
8
0
2
RPAD
10
0.500000
20
0.317500
41
0.080000
42
0.080000
50
0.000000
0
CIRCLE
8
0
10
0.500000
20
0.317500
40
0.025000
0
INSERT
8
0
2
RPAD
10
-0.315000
20
0.447500
41
0.080000
42
0.080000
50
0.000000
0
CIRCLE
8
0
10
-0.315000
20
0.447500
40
0.025000
0
INSERT
8
0
2
RPAD
10
-0.215000
20
0.447500
41
0.080000
42
0.080000
50
0.000000
0
CIRCLE
8
0
10
-0.215000
20
0.447500
40
0.025000
0
INSERT
8
0
2
RPAD
10
-0.115000
20
0.447500
41
0.080000
42
0.080000
50
0.000000
0
CIRCLE
8
0
10
-0.115000
20
0.447500
40
0.025000
0
INSERT
8
0
2
RPAD
10
-0.015000
20
0.447500
41
0.080000
42
0.080000
50
0.000000
0
CIRCLE
8
0
10
-0.015000
20
0.447500
40
0.025000
0
INSERT
8
0
2
RPAD
10
0.085000
20
0.447500
41
0.080000
42
0.080000
50
0.000000
0
CIRCLE
8
0
10
0.085000
20
0.447500
40
0.025000
0
INSERT
8
0
2
RPAD
10
0.185000
20
0.447500
41
0.080000
42
0.080000
50
0.000000
0
CIRCLE
8
0
10
0.185000
20
0.447500
40
0.025000
0
INSERT
8
0
2
RPAD
10
-0.785000
20
0.347500
41
0.080000
42
0.080000
50
0.000000
0
CIRCLE
8
0
10
-0.785000
20
0.347500
40
0.025000
0
INSERT
8
0
2
RPAD
10
-0.685000
20
0.347500
41
0.080000
42
0.080000
50
0.000000
0
CIRCLE
8
0
10
-0.685000
20
0.347500
40
0.025000
0
INSERT
8
0
2
RPAD
10
-0.585000
20
0.347500
41
0.080000
42
0.080000
50
0.000000
0
CIRCLE
8
0
10
-0.585000
20
0.347500
40
0.025000
0
INSERT
8
0
2
RPAD
10
-0.485000
20
0.347500
41
0.080000
42
0.080000
50
0.000000
0
CIRCLE
8
0
10
-0.485000
20
0.347500
40
0.025000
0
INSERT
8
0
2
EPAD
10
-0.180355
20
0.232855
41
0.040000
42
0.040000
0
CIRCLE
8
0
10
-0.180355
20
0.232855
40
0.015000
0
INSERT
8
0
2
EPAD
10
-0.145000
20
0.197500
41
0.040000
42
0.040000
0
CIRCLE
8
0
10
-0.145000
20
0.197500
40
0.015000
0
INSERT
8
0
2
EPAD
10
-0.109644
20
0.162144
41
0.040000
42
0.040000
0
CIRCLE
8
0
10
-0.109644
20
0.162144
40
0.015000
0
INSERT
8
0
2
EPAD
10
-0.180356
20
0.012855
41
0.040000
42
0.040000
0
CIRCLE
8
0
10
-0.180356
20
0.012855
40
0.015000
0
INSERT
8
0
2
EPAD
10
-0.145000
20
-0.022500
41
0.040000
42
0.040000
0
CIRCLE
8
0
10
-0.145000
20
-0.022500
40
0.015000
0
INSERT
8
0
2
EPAD
10
-0.109645
20
-0.057856
41
0.040000
42
0.040000
0
CIRCLE
8
0
10
-0.109645
20
-0.057856
40
0.015000
0
INSERT
8
0
2
EPAD
10
-0.180356
20
-0.202145
41
0.040000
42
0.040000
0
CIRCLE
8
0
10
-0.180356
20
-0.202145
40
0.015000
0
INSERT
8
0
2
EPAD
10
-0.145000
20
-0.237500
41
0.040000
42
0.040000
0
CIRCLE
8
0
10
-0.145000
20
-0.237500
40
0.015000
0
INSERT
8
0
2
EPAD
10
-0.109645
20
-0.272856
41
0.040000
42
0.040000
0
CIRCLE
8
0
10
-0.109645
20
-0.272856
40
0.015000
0
INSERT
8
0
2
EPAD
10
0.039644
20
0.232855
41
0.040000
42
0.040000
0
CIRCLE
8
0
10
0.039644
20
0.232855
40
0.015000
0
INSERT
8
0
2
EPAD
10
0.075000
20
0.197500
41
0.040000
42
0.040000
0
CIRCLE
8
0
10
0.075000
20
0.197500
40
0.015000
0
INSERT
8
0
2
EPAD
10
0.110355
20
0.162144
41
0.040000
42
0.040000
0
CIRCLE
8
0
10
0.110355
20
0.162144
40
0.015000
0
INSERT
8
0
2
EPAD
10
0.039645
20
0.012856
41
0.040000
42
0.040000
0
CIRCLE
8
0
10
0.039645
20
0.012856
40
0.015000
0
INSERT
8
0
2
EPAD
10
0.075000
20
-0.022500
41
0.040000
42
0.040000
0
CIRCLE
8
0
10
0.075000
20
-0.022500
40
0.015000
0
INSERT
8
0
2
EPAD
10
0.110356
20
-0.057855
41
0.040000
42
0.040000
0
CIRCLE
8
0
10
0.110356
20
-0.057855
40
0.015000
0
INSERT
8
0
2
EPAD
10
0.034645
20
-0.207144
41
0.040000
42
0.040000
0
CIRCLE
8
0
10
0.034645
20
-0.207144
40
0.015000
0
INSERT
8
0
2
EPAD
10
0.070000
20
-0.242500
41
0.040000
42
0.040000
0
CIRCLE
8
0
10
0.070000
20
-0.242500
40
0.015000
0
INSERT
8
0
2
EPAD
10
0.105356
20
-0.277855
41
0.040000
42
0.040000
0
CIRCLE
8
0
10
0.105356
20
-0.277855
40
0.015000
0
INSERT
8
0
2
EPAD
10
-0.335000
20
0.197500
41
0.070000
42
0.070000
0
CIRCLE
8
0
10
-0.335000
20
0.197500
40
0.025000
0
INSERT
8
0
2
EPAD
10
-0.335000
20
-0.202500
41
0.070000
42
0.070000
0
CIRCLE
8
0
10
-0.335000
20
-0.202500
40
0.025000
0
INSERT
8
0
2
EPAD
10
-0.415000
20
0.197500
41
0.070000
42
0.070000
0
CIRCLE
8
0
10
-0.415000
20
0.197500
40
0.025000
0
INSERT
8
0
2
EPAD
10
-0.415000
20
-0.202500
41
0.070000
42
0.070000
0
CIRCLE
8
0
10
-0.415000
20
-0.202500
40
0.025000
0
INSERT
8
0
2
EPAD
10
-0.495000
20
0.197500
41
0.070000
42
0.070000
0
CIRCLE
8
0
10
-0.495000
20
0.197500
40
0.025000
0
INSERT
8
0
2
EPAD
10
-0.495000
20
-0.202500
41
0.070000
42
0.070000
0
CIRCLE
8
0
10
-0.495000
20
-0.202500
40
0.025000
0
INSERT
8
0
2
EPAD
10
-0.585000
20
0.197500
41
0.070000
42
0.070000
0
CIRCLE
8
0
10
-0.585000
20
0.197500
40
0.025000
0
INSERT
8
0
2
EPAD
10
-0.585000
20
-0.202500
41
0.070000
42
0.070000
0
CIRCLE
8
0
10
-0.585000
20
-0.202500
40
0.025000
0
INSERT
8
0
2
EPAD
10
-0.665000
20
0.192500
41
0.070000
42
0.070000
0
CIRCLE
8
0
10
-0.665000
20
0.192500
40
0.025000
0
INSERT
8
0
2
EPAD
10
-0.665000
20
-0.207500
41
0.070000
42
0.070000
0
CIRCLE
8
0
10
-0.665000
20
-0.207500
40
0.025000
0
INSERT
8
0
2
EPAD
10
-0.745000
20
0.197499
41
0.070000
42
0.070000
0
CIRCLE
8
0
10
-0.745000
20
0.197499
40
0.025000
0
INSERT
8
0
2
EPAD
10
-0.745000
20
-0.202501
41
0.070000
42
0.070000
0
CIRCLE
8
0
10
-0.745000
20
-0.202501
40
0.025000
0
INSERT
8
0
2
EPAD
10
0.235000
20
0.197500
41
0.070000
42
0.070000
0
CIRCLE
8
0
10
0.235000
20
0.197500
40
0.025000
0
INSERT
8
0
2
EPAD
10
0.235000
20
-0.202500
41
0.070000
42
0.070000
0
CIRCLE
8
0
10
0.235000
20
-0.202500
40
0.025000
0
INSERT
8
0
2
EPAD
10
0.315000
20
0.197500
41
0.070000
42
0.070000
0
CIRCLE
8
0
10
0.315000
20
0.197500
40
0.025000
0
INSERT
8
0
2
EPAD
10
0.315000
20
-0.202500
41
0.070000
42
0.070000
0
CIRCLE
8
0
10
0.315000
20
-0.202500
40
0.025000
0
INSERT
8
0
2
EPAD
10
0.475000
20
0.197500
41
0.070000
42
0.070000
0
CIRCLE
8
0
10
0.475000
20
0.197500
40
0.025000
0
INSERT
8
0
2
EPAD
10
0.475000
20
-0.202500
41
0.070000
42
0.070000
0
CIRCLE
8
0
10
0.475000
20
-0.202500
40
0.025000
0
INSERT
8
0
2
EPAD
10
0.395000
20
0.197500
41
0.070000
42
0.070000
0
CIRCLE
8
0
10
0.395000
20
0.197500
40
0.025000
0
INSERT
8
0
2
EPAD
10
0.395000
20
-0.202500
41
0.070000
42
0.070000
0
CIRCLE
8
0
10
0.395000
20
-0.202500
40
0.025000
0
INSERT
8
0
2
EPAD
10
0.635000
20
0.197500
41
0.070000
42
0.070000
0
CIRCLE
8
0
10
0.635000
20
0.197500
40
0.025000
0
INSERT
8
0
2
EPAD
10
0.635000
20
-0.202500
41
0.070000
42
0.070000
0
CIRCLE
8
0
10
0.635000
20
-0.202500
40
0.025000
0
INSERT
8
0
2
EPAD
10
0.555000
20
0.197500
41
0.070000
42
0.070000
0
CIRCLE
8
0
10
0.555000
20
0.197500
40
0.025000
0
INSERT
8
0
2
EPAD
10
0.555000
20
-0.202500
41
0.070000
42
0.070000
0
CIRCLE
8
0
10
0.555000
20
-0.202500
40
0.025000
0
INSERT
8
0
2
RPAD
10
0.815000
20
-0.112500
41
0.080000
42
0.080000
50
-270.000000
0
CIRCLE
8
0
10
0.815000
20
-0.112500
40
0.025000
0
INSERT
8
0
2
RPAD
10
0.815000
20
-0.012500
41
0.080000
42
0.080000
50
-270.000000
0
CIRCLE
8
0
10
0.815000
20
-0.012500
40
0.025000
0
INSERT
8
0
2
RPAD
10
0.815000
20
0.087500
41
0.080000
42
0.080000
50
-270.000000
0
CIRCLE
8
0
10
0.815000
20
0.087500
40
0.025000
0
INSERT
8
0
2
RPAD
10
-0.365000
20
-0.577500
41
0.090000
42
0.090000
50
0.000000
0
CIRCLE
8
0
10
-0.365000
20
-0.577500
40
0.030000
0
INSERT
8
0
2
RPAD
10
-0.365000
20
-0.333406
41
0.090000
42
0.090000
50
0.000000
0
CIRCLE
8
0
10
-0.365000
20
-0.333406
40
0.030000
0
INSERT
8
0
2
RPAD
10
-0.570000
20
-0.577500
41
0.090000
42
0.090000
50
0.000000
0
CIRCLE
8
0
10
-0.570000
20
-0.577500
40
0.030000
0
INSERT
8
0
2
RPAD
10
-0.570000
20
-0.333406
41
0.090000
42
0.090000
50
0.000000
0
CIRCLE
8
0
10
-0.570000
20
-0.333406
40
0.030000
0
INSERT
8
0
2
RPAD
10
-0.570000
20
0.517500
41
0.080000
42
0.080000
50
-180.000000
0
CIRCLE
8
0
10
-0.570000
20
0.517500
40
0.025000
0
INSERT
8
0
2
RPAD
10
-0.670000
20
0.517500
41
0.080000
42
0.080000
50
-180.000000
0
CIRCLE
8
0
10
-0.670000
20
0.517500
40
0.025000
0
INSERT
8
0
2
RPAD
10
-0.780000
20
-0.357500
41
0.080000
42
0.080000
50
-90.000000
0
CIRCLE
8
0
10
-0.780000
20
-0.357500
40
0.025000
0
INSERT
8
0
2
RPAD
10
-0.780000
20
-0.457500
41
0.080000
42
0.080000
50
-90.000000
0
CIRCLE
8
0
10
-0.780000
20
-0.457500
40
0.025000
0
INSERT
8
0
2
RPAD
10
-0.780000
20
-0.557500
41
0.080000
42
0.080000
50
-90.000000
0
CIRCLE
8
0
10
-0.780000
20
-0.557500
40
0.025000
0
INSERT
8
0
2
RPAD
10
0.685000
20
0.337500
41
0.080000
42
0.080000
50
0.000000
0
CIRCLE
8
0
10
0.685000
20
0.337500
40
0.025000
0
INSERT
8
0
2
RPAD
10
0.785000
20
0.337500
41
0.080000
42
0.080000
50
0.000000
0
CIRCLE
8
0
10
0.785000
20
0.337500
40
0.025000
0
INSERT
8
0
2
EPAD
10
0.280000
20
0.447500
41
0.070000
42
0.070000
0
CIRCLE
8
0
10
0.280000
20
0.447500
40
0.039370
0
INSERT
8
0
2
RPAD
10
0.394173
20
0.447500
41
0.045000
42
0.071000
50
0.000000
0
INSERT
8
0
2
EPAD
10
0.680000
20
0.447500
41
0.070000
42
0.070000
0
CIRCLE
8
0
10
0.680000
20
0.447500
40
0.039370
0
INSERT
8
0
2
EPAD
10
-0.426181
20
0.597500
41
0.055000
42
0.055000
0
INSERT
8
0
2
EPAD
10
-0.347441
20
0.597500
41
0.055000
42
0.055000
0
INSERT
8
0
2
EPAD
10
-0.268701
20
0.597500
41
0.055000
42
0.055000
0
INSERT
8
0
2
EPAD
10
-0.189961
20
0.597500
41
0.055000
42
0.055000
0
INSERT
8
0
2
EPAD
10
-0.111220
20
0.597500
41
0.055000
42
0.055000
0
INSERT
8
0
2
EPAD
10
-0.032480
20
0.597500
41
0.055000
42
0.055000
0
INSERT
8
0
2
EPAD
10
0.046260
20
0.597500
41
0.055000
42
0.055000
0
INSERT
8
0
2
EPAD
10
0.125000
20
0.597500
41
0.055000
42
0.055000
0
INSERT
8
0
2
EPAD
10
0.203740
20
0.597500
41
0.055000
42
0.055000
0
INSERT
8
0
2
EPAD
10
0.282480
20
0.597500
41
0.055000
42
0.055000
0
INSERT
8
0
2
EPAD
10
0.361220
20
0.597500
41
0.055000
42
0.055000
0
INSERT
8
0
2
EPAD
10
0.439961
20
0.597500
41
0.055000
42
0.055000
0
INSERT
8
0
2
EPAD
10
0.518701
20
0.597500
41
0.055000
42
0.055000
0
INSERT
8
0
2
EPAD
10
0.597441
20
0.597500
41
0.055000
42
0.055000
0
INSERT
8
0
2
EPAD
10
0.676181
20
0.597500
41
0.055000
42
0.055000
0
INSERT
8
0
2
EPAD
10
0.754921
20
0.597500
41
0.055000
42
0.055000
0
INSERT
8
0
2
EPAD
10
-0.820000
20
0.577500
41
0.070000
42
0.070000
0
CIRCLE
8
0
10
-0.820000
20
0.577500
40
0.039370
0
INSERT
8
0
2
EPAD
10
0.845000
20
-0.317500
41
0.070000
42
0.070000
0
CIRCLE
8
0
10
0.845000
20
-0.317500
40
0.039370
0
INSERT
8
0
2
EPAD
10
0.840000
20
0.487500
41
0.070000
42
0.070000
0
CIRCLE
8
0
10
0.840000
20
0.487500
40
0.039370
0
ENDSEC
0
EOF

