G04 PROTEUS GERBER X2 FILE*
%TF.GenerationSoftware,Labcenter,Proteus,8.5-SP0-Build22067*%
%TF.CreationDate,2017-11-28T10:59:28+00:00*%
%TF.FileFunction,Copper,L6,Inr*%
%TF.FilePolarity,Positive*%
%TF.Part,Single*%
%FSLAX45Y45*%
%MOMM*%
G01*
%TA.AperFunction,ComponentPad*%
%ADD11C,1.778000*%
%ADD12R,2.032000X2.032000*%
%ADD13C,1.016000*%
%ADD14R,2.286000X2.286000*%
%TA.AperFunction,Profile*%
%ADD17C,0.203200*%
D11*
X+4152900Y+1498600D03*
X+4152900Y+482600D03*
D12*
X+3098800Y+1803400D03*
X+3352800Y+1803400D03*
X+3606800Y+1803400D03*
X+1536700Y+2133600D03*
X+1790700Y+2133600D03*
X+2044700Y+2133600D03*
X+2298700Y+2133600D03*
X+2552700Y+2133600D03*
X+2806700Y+2133600D03*
X+342900Y+1879600D03*
X+596900Y+1879600D03*
X+850900Y+1879600D03*
X+1104900Y+1879600D03*
D13*
X+1878698Y+1588402D03*
X+1968500Y+1498600D03*
X+2058303Y+1408797D03*
X+1878697Y+1029602D03*
X+1968500Y+939800D03*
X+2058302Y+849997D03*
X+1878697Y+483502D03*
X+1968500Y+393700D03*
X+2058302Y+303897D03*
X+2437497Y+1588402D03*
X+2527300Y+1498600D03*
X+2617102Y+1408797D03*
X+2437498Y+1029603D03*
X+2527300Y+939800D03*
X+2617103Y+849998D03*
X+2424798Y+470803D03*
X+2514600Y+381000D03*
X+2604403Y+291198D03*
D11*
X+1485900Y+1498600D03*
X+1485899Y+482600D03*
X+1282700Y+1498600D03*
X+1282700Y+482600D03*
X+1079500Y+1498600D03*
X+1079500Y+482600D03*
X+850899Y+1498600D03*
X+850900Y+482600D03*
X+647700Y+1485899D03*
X+647701Y+469899D03*
X+444500Y+1498598D03*
X+444500Y+482598D03*
X+2933700Y+1498600D03*
X+2933700Y+482600D03*
X+3136900Y+1498600D03*
X+3136900Y+482600D03*
X+3543300Y+1498600D03*
X+3543300Y+482600D03*
X+3340100Y+1498600D03*
X+3340100Y+482600D03*
X+3949700Y+1498600D03*
X+3949700Y+482600D03*
X+3746500Y+1498600D03*
X+3746500Y+482600D03*
D12*
X+4406900Y+711200D03*
X+4406900Y+965200D03*
X+4406900Y+1219200D03*
D14*
X+1409700Y-469900D03*
X+1409700Y+150100D03*
X+889000Y-469900D03*
X+889000Y+150100D03*
D12*
X+889000Y+2311400D03*
X+635000Y+2311400D03*
X+355600Y+88900D03*
X+355600Y-165100D03*
X+355600Y-419100D03*
X+4076700Y+1854199D03*
X+4330700Y+1854199D03*
D11*
X+3048000Y+2133600D03*
X+4064000Y+2133600D03*
X+254000Y+2463800D03*
X+4483100Y+190500D03*
X+4470400Y+2235200D03*
D17*
X+0Y-749300D02*
X+1714500Y-749300D01*
X+2235200Y+0D01*
X+4673600Y+0D01*
X+0Y-749300D02*
X+0Y+2743200D01*
X+4673600Y+2743200D01*
X+4673600Y+0D02*
X+4673600Y+2743200D01*
M02*
