G04 PROTEUS GERBER X2 FILE*
%TF.GenerationSoftware,Labcenter,Proteus,8.5-SP0-Build22067*%
%TF.CreationDate,2017-11-28T10:59:28+00:00*%
%TF.FileFunction,AssemblyDrawing,Top*%
%TF.FilePolarity,Positive*%
%TF.Part,Single*%
%FSLAX45Y45*%
%MOMM*%
G01*
%TA.AperFunction,Profile*%
%ADD17C,0.203200*%
%ADD72C,0.106680*%
%TA.AperFunction,Material*%
%ADD18C,0.203200*%
%ADD73C,0.130380*%
%ADD30C,0.118790*%
%ADD31C,0.079710*%
%ADD32C,0.176100*%
%ADD33C,0.106680*%
%ADD34C,0.164590*%
%ADD35C,0.050000*%
%ADD36C,0.305000*%
%ADD37C,0.105660*%
%ADD38C,0.111760*%
%ADD39C,0.132080*%
%ADD40C,0.116250*%
%ADD21C,0.152400*%
%ADD41C,0.160020*%
D42*
X+4064000Y+393700D02*
X+4241800Y+393700D01*
X+4241800Y+1587500D01*
X+4064000Y+1587500D01*
X+4064000Y+393700D01*
D43*
X+4120896Y+969264D02*
X+4120896Y+915924D01*
X+4142232Y+915924D01*
X+4142232Y+958596D01*
X+4152900Y+969264D01*
X+4174236Y+969264D01*
X+4184904Y+958596D01*
X+4184904Y+926592D01*
X+4174236Y+915924D01*
X+4120896Y+990600D02*
X+4184904Y+990600D01*
X+4120896Y+1054608D02*
X+4152900Y+1022604D01*
X+4184904Y+1054608D01*
X+4152900Y+990600D02*
X+4152900Y+1022604D01*
D18*
X+2961640Y+1666240D02*
X+3743960Y+1666240D01*
X+3743960Y+1940560D01*
X+2961640Y+1940560D01*
X+2961640Y+1666240D01*
D73*
X+3092030Y+1764284D02*
X+3092030Y+1842515D01*
X+3144184Y+1842515D01*
X+3170261Y+1816438D01*
X+3170261Y+1790361D01*
X+3144184Y+1764284D01*
X+3092030Y+1764284D01*
X+3196338Y+1764284D02*
X+3196338Y+1842515D01*
X+3274569Y+1842515D02*
X+3274569Y+1764284D01*
X+3196338Y+1803400D02*
X+3274569Y+1803400D01*
X+3300646Y+1842515D02*
X+3378877Y+1842515D01*
X+3339761Y+1842515D02*
X+3339761Y+1764284D01*
X+3431031Y+1816438D02*
X+3457108Y+1842515D01*
X+3457108Y+1764284D01*
X+3535339Y+1816438D02*
X+3561416Y+1842515D01*
X+3561416Y+1764284D01*
D18*
X+1399540Y+1996440D02*
X+2943860Y+1996440D01*
X+2943860Y+2270760D01*
X+1399540Y+2270760D01*
X+1399540Y+1996440D01*
D30*
X+1613375Y+2169238D02*
X+1660892Y+2169238D01*
X+1637133Y+2169238D02*
X+1637133Y+2097962D01*
X+1613375Y+2097962D02*
X+1660892Y+2097962D01*
X+1696530Y+2097962D02*
X+1696530Y+2169238D01*
X+1767805Y+2097962D01*
X+1767805Y+2169238D01*
X+1791564Y+2097962D02*
X+1791564Y+2169238D01*
X+1850960Y+2169238D01*
X+1862839Y+2157359D01*
X+1862839Y+2145479D01*
X+1850960Y+2133600D01*
X+1791564Y+2133600D01*
X+1886598Y+2169238D02*
X+1886598Y+2109841D01*
X+1898477Y+2097962D01*
X+1945994Y+2097962D01*
X+1957873Y+2109841D01*
X+1957873Y+2169238D01*
X+1981632Y+2169238D02*
X+2052907Y+2169238D01*
X+2017269Y+2169238D02*
X+2017269Y+2097962D01*
X+2171700Y+2097962D02*
X+2171700Y+2169238D01*
X+2207337Y+2133600D01*
X+2242975Y+2169238D01*
X+2242975Y+2097962D01*
X+2266734Y+2109841D02*
X+2278613Y+2097962D01*
X+2326130Y+2097962D01*
X+2338009Y+2109841D01*
X+2338009Y+2121721D01*
X+2326130Y+2133600D01*
X+2278613Y+2133600D01*
X+2266734Y+2145479D01*
X+2266734Y+2157359D01*
X+2278613Y+2169238D01*
X+2326130Y+2169238D01*
X+2338009Y+2157359D01*
X+2361768Y+2097962D02*
X+2361768Y+2169238D01*
X+2421164Y+2169238D01*
X+2433043Y+2157359D01*
X+2433043Y+2145479D01*
X+2421164Y+2133600D01*
X+2361768Y+2133600D01*
X+2528077Y+2121721D02*
X+2456802Y+2121721D01*
X+2504319Y+2169238D01*
X+2504319Y+2097962D01*
X+2563715Y+2157359D02*
X+2575594Y+2169238D01*
X+2611232Y+2169238D01*
X+2623111Y+2157359D01*
X+2623111Y+2145479D01*
X+2611232Y+2133600D01*
X+2623111Y+2121721D01*
X+2623111Y+2109841D01*
X+2611232Y+2097962D01*
X+2575594Y+2097962D01*
X+2563715Y+2109841D01*
X+2587473Y+2133600D02*
X+2611232Y+2133600D01*
X+2646870Y+2109841D02*
X+2646870Y+2157359D01*
X+2658749Y+2169238D01*
X+2706266Y+2169238D01*
X+2718145Y+2157359D01*
X+2718145Y+2109841D01*
X+2706266Y+2097962D01*
X+2658749Y+2097962D01*
X+2646870Y+2109841D01*
X+2646870Y+2097962D02*
X+2718145Y+2169238D01*
D18*
X+205740Y+1742440D02*
X+1242060Y+1742440D01*
X+1242060Y+2016760D01*
X+205740Y+2016760D01*
X+205740Y+1742440D01*
D31*
X+341268Y+1887571D02*
X+357211Y+1903514D01*
X+373154Y+1903514D01*
X+389097Y+1887571D01*
X+389097Y+1871628D01*
X+373154Y+1855685D01*
X+357211Y+1855685D01*
X+341268Y+1871628D01*
X+341268Y+1887571D01*
X+405040Y+1903514D02*
X+405040Y+1863656D01*
X+413011Y+1855685D01*
X+444897Y+1855685D01*
X+452869Y+1863656D01*
X+452869Y+1903514D01*
X+468812Y+1903514D02*
X+516641Y+1903514D01*
X+492726Y+1903514D02*
X+492726Y+1855685D01*
X+532584Y+1855685D02*
X+532584Y+1903514D01*
X+572441Y+1903514D01*
X+580413Y+1895543D01*
X+580413Y+1887571D01*
X+572441Y+1879600D01*
X+532584Y+1879600D01*
X+596356Y+1903514D02*
X+596356Y+1863656D01*
X+604327Y+1855685D01*
X+636213Y+1855685D01*
X+644185Y+1863656D01*
X+644185Y+1903514D01*
X+660128Y+1903514D02*
X+707957Y+1903514D01*
X+684042Y+1903514D02*
X+684042Y+1855685D01*
X+787672Y+1855685D02*
X+787672Y+1903514D01*
X+827529Y+1903514D01*
X+835501Y+1895543D01*
X+835501Y+1887571D01*
X+827529Y+1879600D01*
X+787672Y+1879600D01*
X+827529Y+1879600D02*
X+835501Y+1871628D01*
X+835501Y+1855685D01*
X+899273Y+1855685D02*
X+851444Y+1855685D01*
X+851444Y+1903514D01*
X+899273Y+1903514D01*
X+851444Y+1879600D02*
X+883330Y+1879600D01*
X+915216Y+1903514D02*
X+915216Y+1855685D01*
X+963045Y+1855685D01*
X+978988Y+1855685D02*
X+978988Y+1887571D01*
X+994931Y+1903514D01*
X+1010874Y+1903514D01*
X+1026817Y+1887571D01*
X+1026817Y+1855685D01*
X+978988Y+1871628D02*
X+1026817Y+1871628D01*
X+1090589Y+1903514D02*
X+1042760Y+1855685D01*
X+1042760Y+1903514D02*
X+1066674Y+1879600D01*
D18*
X+1684724Y+1588403D02*
X+2058303Y+1214824D01*
X+2342079Y+1498600D01*
X+1968500Y+1872179D01*
X+1684724Y+1588403D01*
D32*
X+2100569Y+1431429D02*
X+2050759Y+1431429D01*
X+2025854Y+1456334D01*
X+2025854Y+1506144D01*
X+2050759Y+1531049D01*
X+2100569Y+1531049D01*
X+2125474Y+1506144D01*
X+2125474Y+1456334D01*
X+2100569Y+1431429D01*
X+2075664Y+1506144D02*
X+2075664Y+1555954D01*
X+1976044Y+1555954D02*
X+1926234Y+1555954D01*
X+2000949Y+1630669D01*
D18*
X+1684724Y+1029603D02*
X+2058303Y+656024D01*
X+2342079Y+939800D01*
X+1968500Y+1313379D01*
X+1684724Y+1029603D01*
D32*
X+2100569Y+872629D02*
X+2050759Y+872629D01*
X+2025854Y+897534D01*
X+2025854Y+947344D01*
X+2050759Y+972249D01*
X+2100569Y+972249D01*
X+2125474Y+947344D01*
X+2125474Y+897534D01*
X+2100569Y+872629D01*
X+2075664Y+947344D02*
X+2075664Y+997154D01*
X+1976044Y+972248D02*
X+1951139Y+972249D01*
X+1913782Y+1009606D01*
X+1913781Y+1034511D01*
X+1926234Y+1046964D01*
X+1951139Y+1046963D01*
X+1988496Y+1009606D01*
X+2013402Y+1009606D01*
X+2038307Y+1034511D01*
X+1976044Y+1096774D01*
D18*
X+1684724Y+483503D02*
X+2058303Y+109924D01*
X+2342079Y+393700D01*
X+1968500Y+767279D01*
X+1684724Y+483503D01*
D32*
X+2100569Y+326529D02*
X+2050759Y+326529D01*
X+2025854Y+351434D01*
X+2025854Y+401244D01*
X+2050759Y+426149D01*
X+2100569Y+426149D01*
X+2125474Y+401244D01*
X+2125474Y+351434D01*
X+2100569Y+326529D01*
X+2075664Y+401244D02*
X+2075664Y+451054D01*
X+1976044Y+426148D02*
X+1951139Y+426149D01*
X+1913782Y+463506D01*
X+1913781Y+488411D01*
X+1926234Y+500864D01*
X+1951139Y+500863D01*
X+1951139Y+525769D01*
X+1963592Y+538222D01*
X+1988497Y+538221D01*
X+2025854Y+500864D01*
X+2025855Y+475959D01*
X+1976044Y+475958D02*
X+1951139Y+500863D01*
D18*
X+2243524Y+1588403D02*
X+2617103Y+1214824D01*
X+2900879Y+1498600D01*
X+2527300Y+1872179D01*
X+2243524Y+1588403D01*
D32*
X+2659369Y+1431429D02*
X+2609559Y+1431429D01*
X+2584654Y+1456334D01*
X+2584654Y+1506144D01*
X+2609559Y+1531049D01*
X+2659369Y+1531049D01*
X+2684274Y+1506144D01*
X+2684274Y+1456334D01*
X+2659369Y+1431429D01*
X+2634464Y+1506144D02*
X+2634464Y+1555954D01*
X+2509939Y+1630669D02*
X+2584654Y+1555954D01*
X+2485034Y+1555954D01*
X+2559749Y+1630669D01*
D18*
X+2243524Y+1029603D02*
X+2617103Y+656024D01*
X+2900879Y+939800D01*
X+2527300Y+1313379D01*
X+2243524Y+1029603D01*
D32*
X+2659369Y+872629D02*
X+2609559Y+872629D01*
X+2584654Y+897534D01*
X+2584654Y+947344D01*
X+2609559Y+972249D01*
X+2659369Y+972249D01*
X+2684274Y+947344D01*
X+2684274Y+897534D01*
X+2659369Y+872629D01*
X+2634464Y+947344D02*
X+2634464Y+997154D01*
X+2460129Y+1022059D02*
X+2522392Y+959796D01*
X+2547297Y+984701D01*
X+2497487Y+1034511D01*
X+2497486Y+1059416D01*
X+2522392Y+1084322D01*
X+2547297Y+1084321D01*
X+2584654Y+1046964D01*
X+2584655Y+1022059D01*
D18*
X+2230824Y+470803D02*
X+2604403Y+97224D01*
X+2888179Y+381000D01*
X+2514600Y+754579D01*
X+2230824Y+470803D01*
D32*
X+2646669Y+313829D02*
X+2596859Y+313829D01*
X+2571954Y+338734D01*
X+2571954Y+388544D01*
X+2596859Y+413449D01*
X+2646669Y+413449D01*
X+2671574Y+388544D01*
X+2671574Y+338734D01*
X+2646669Y+313829D01*
X+2621764Y+388544D02*
X+2621764Y+438354D01*
X+2459881Y+475711D02*
X+2459882Y+450806D01*
X+2497239Y+413449D01*
X+2522144Y+413448D01*
X+2571955Y+463259D01*
X+2571954Y+488164D01*
X+2534597Y+525521D01*
X+2509692Y+525522D01*
X+2497239Y+513069D01*
X+2497239Y+488163D01*
X+2547049Y+438353D01*
D18*
X+1397000Y+393700D02*
X+1574800Y+393700D01*
X+1574800Y+1587500D01*
X+1397000Y+1587500D01*
X+1397000Y+393700D01*
D33*
X+1517904Y+905256D02*
X+1453896Y+905256D01*
X+1453896Y+958596D01*
X+1464564Y+969264D01*
X+1475232Y+969264D01*
X+1485900Y+958596D01*
X+1485900Y+905256D01*
X+1485900Y+958596D02*
X+1496568Y+969264D01*
X+1517904Y+969264D01*
X+1475232Y+1011936D02*
X+1453896Y+1033272D01*
X+1517904Y+1033272D01*
D18*
X+1193800Y+393700D02*
X+1371600Y+393700D01*
X+1371600Y+1587500D01*
X+1193800Y+1587500D01*
X+1193800Y+393700D01*
D33*
X+1314704Y+905256D02*
X+1250696Y+905256D01*
X+1250696Y+958596D01*
X+1261364Y+969264D01*
X+1272032Y+969264D01*
X+1282700Y+958596D01*
X+1282700Y+905256D01*
X+1282700Y+958596D02*
X+1293368Y+969264D01*
X+1314704Y+969264D01*
X+1261364Y+1001268D02*
X+1250696Y+1011936D01*
X+1250696Y+1043940D01*
X+1261364Y+1054608D01*
X+1272032Y+1054608D01*
X+1282700Y+1043940D01*
X+1282700Y+1011936D01*
X+1293368Y+1001268D01*
X+1314704Y+1001268D01*
X+1314704Y+1054608D01*
D18*
X+990600Y+393700D02*
X+1168400Y+393700D01*
X+1168400Y+1587500D01*
X+990600Y+1587500D01*
X+990600Y+393700D01*
D33*
X+1111504Y+905256D02*
X+1047496Y+905256D01*
X+1047496Y+958596D01*
X+1058164Y+969264D01*
X+1068832Y+969264D01*
X+1079500Y+958596D01*
X+1079500Y+905256D01*
X+1079500Y+958596D02*
X+1090168Y+969264D01*
X+1111504Y+969264D01*
X+1058164Y+1001268D02*
X+1047496Y+1011936D01*
X+1047496Y+1043940D01*
X+1058164Y+1054608D01*
X+1068832Y+1054608D01*
X+1079500Y+1043940D01*
X+1090168Y+1054608D01*
X+1100836Y+1054608D01*
X+1111504Y+1043940D01*
X+1111504Y+1011936D01*
X+1100836Y+1001268D01*
X+1079500Y+1022604D02*
X+1079500Y+1043940D01*
D18*
X+761999Y+393700D02*
X+939799Y+393700D01*
X+939799Y+1587500D01*
X+761999Y+1587500D01*
X+761999Y+393700D01*
D33*
X+882903Y+905256D02*
X+818895Y+905256D01*
X+818895Y+958596D01*
X+829563Y+969264D01*
X+840231Y+969264D01*
X+850899Y+958596D01*
X+850899Y+905256D01*
X+850899Y+958596D02*
X+861567Y+969264D01*
X+882903Y+969264D01*
X+861567Y+1054608D02*
X+861567Y+990600D01*
X+818895Y+1033272D01*
X+882903Y+1033272D01*
D18*
X+558800Y+380999D02*
X+736600Y+380999D01*
X+736600Y+1574799D01*
X+558800Y+1574799D01*
X+558800Y+380999D01*
D33*
X+679704Y+892555D02*
X+615696Y+892555D01*
X+615696Y+945895D01*
X+626364Y+956563D01*
X+637032Y+956563D01*
X+647700Y+945895D01*
X+647700Y+892555D01*
X+647700Y+945895D02*
X+658368Y+956563D01*
X+679704Y+956563D01*
X+615696Y+1041907D02*
X+615696Y+988567D01*
X+637032Y+988567D01*
X+637032Y+1031239D01*
X+647700Y+1041907D01*
X+669036Y+1041907D01*
X+679704Y+1031239D01*
X+679704Y+999235D01*
X+669036Y+988567D01*
D18*
X+355600Y+393698D02*
X+533400Y+393698D01*
X+533400Y+1587498D01*
X+355600Y+1587498D01*
X+355600Y+393698D01*
D33*
X+476504Y+905254D02*
X+412496Y+905254D01*
X+412496Y+958594D01*
X+423164Y+969262D01*
X+433832Y+969262D01*
X+444500Y+958594D01*
X+444500Y+905254D01*
X+444500Y+958594D02*
X+455168Y+969262D01*
X+476504Y+969262D01*
X+423164Y+1054606D02*
X+412496Y+1043938D01*
X+412496Y+1011934D01*
X+423164Y+1001266D01*
X+465836Y+1001266D01*
X+476504Y+1011934D01*
X+476504Y+1043938D01*
X+465836Y+1054606D01*
X+455168Y+1054606D01*
X+444500Y+1043938D01*
X+444500Y+1001266D01*
D18*
X+2844800Y+393700D02*
X+3022600Y+393700D01*
X+3022600Y+1587500D01*
X+2844800Y+1587500D01*
X+2844800Y+393700D01*
D33*
X+2965704Y+905256D02*
X+2901696Y+905256D01*
X+2901696Y+958596D01*
X+2912364Y+969264D01*
X+2923032Y+969264D01*
X+2933700Y+958596D01*
X+2933700Y+905256D01*
X+2933700Y+958596D02*
X+2944368Y+969264D01*
X+2965704Y+969264D01*
X+2901696Y+1001268D02*
X+2901696Y+1054608D01*
X+2912364Y+1054608D01*
X+2965704Y+1001268D01*
D18*
X+3048000Y+393700D02*
X+3225800Y+393700D01*
X+3225800Y+1587500D01*
X+3048000Y+1587500D01*
X+3048000Y+393700D01*
D33*
X+3168904Y+905256D02*
X+3104896Y+905256D01*
X+3104896Y+958596D01*
X+3115564Y+969264D01*
X+3126232Y+969264D01*
X+3136900Y+958596D01*
X+3136900Y+905256D01*
X+3136900Y+958596D02*
X+3147568Y+969264D01*
X+3168904Y+969264D01*
X+3136900Y+1011936D02*
X+3126232Y+1001268D01*
X+3115564Y+1001268D01*
X+3104896Y+1011936D01*
X+3104896Y+1043940D01*
X+3115564Y+1054608D01*
X+3126232Y+1054608D01*
X+3136900Y+1043940D01*
X+3136900Y+1011936D01*
X+3147568Y+1001268D01*
X+3158236Y+1001268D01*
X+3168904Y+1011936D01*
X+3168904Y+1043940D01*
X+3158236Y+1054608D01*
X+3147568Y+1054608D01*
X+3136900Y+1043940D01*
D18*
X+3454400Y+393700D02*
X+3632200Y+393700D01*
X+3632200Y+1587500D01*
X+3454400Y+1587500D01*
X+3454400Y+393700D01*
D33*
X+3575304Y+905256D02*
X+3511296Y+905256D01*
X+3511296Y+958596D01*
X+3521964Y+969264D01*
X+3532632Y+969264D01*
X+3543300Y+958596D01*
X+3543300Y+905256D01*
X+3543300Y+958596D02*
X+3553968Y+969264D01*
X+3575304Y+969264D01*
X+3532632Y+1054608D02*
X+3543300Y+1043940D01*
X+3543300Y+1011936D01*
X+3532632Y+1001268D01*
X+3521964Y+1001268D01*
X+3511296Y+1011936D01*
X+3511296Y+1043940D01*
X+3521964Y+1054608D01*
X+3564636Y+1054608D01*
X+3575304Y+1043940D01*
X+3575304Y+1011936D01*
D18*
X+3251200Y+393700D02*
X+3429000Y+393700D01*
X+3429000Y+1587500D01*
X+3251200Y+1587500D01*
X+3251200Y+393700D01*
D33*
X+3372104Y+862584D02*
X+3308096Y+862584D01*
X+3308096Y+915924D01*
X+3318764Y+926592D01*
X+3329432Y+926592D01*
X+3340100Y+915924D01*
X+3340100Y+862584D01*
X+3340100Y+915924D02*
X+3350768Y+926592D01*
X+3372104Y+926592D01*
X+3329432Y+969264D02*
X+3308096Y+990600D01*
X+3372104Y+990600D01*
X+3361436Y+1033272D02*
X+3318764Y+1033272D01*
X+3308096Y+1043940D01*
X+3308096Y+1086612D01*
X+3318764Y+1097280D01*
X+3361436Y+1097280D01*
X+3372104Y+1086612D01*
X+3372104Y+1043940D01*
X+3361436Y+1033272D01*
X+3372104Y+1033272D02*
X+3308096Y+1097280D01*
D18*
X+3860800Y+393700D02*
X+4038600Y+393700D01*
X+4038600Y+1587500D01*
X+3860800Y+1587500D01*
X+3860800Y+393700D01*
D33*
X+3981704Y+862584D02*
X+3917696Y+862584D01*
X+3917696Y+915924D01*
X+3928364Y+926592D01*
X+3939032Y+926592D01*
X+3949700Y+915924D01*
X+3949700Y+862584D01*
X+3949700Y+915924D02*
X+3960368Y+926592D01*
X+3981704Y+926592D01*
X+3939032Y+969264D02*
X+3917696Y+990600D01*
X+3981704Y+990600D01*
X+3939032Y+1054608D02*
X+3917696Y+1075944D01*
X+3981704Y+1075944D01*
D18*
X+3657600Y+393700D02*
X+3835400Y+393700D01*
X+3835400Y+1587500D01*
X+3657600Y+1587500D01*
X+3657600Y+393700D01*
D33*
X+3778504Y+862584D02*
X+3714496Y+862584D01*
X+3714496Y+915924D01*
X+3725164Y+926592D01*
X+3735832Y+926592D01*
X+3746500Y+915924D01*
X+3746500Y+862584D01*
X+3746500Y+915924D02*
X+3757168Y+926592D01*
X+3778504Y+926592D01*
X+3735832Y+969264D02*
X+3714496Y+990600D01*
X+3778504Y+990600D01*
X+3725164Y+1043940D02*
X+3714496Y+1054608D01*
X+3714496Y+1086612D01*
X+3725164Y+1097280D01*
X+3735832Y+1097280D01*
X+3746500Y+1086612D01*
X+3746500Y+1054608D01*
X+3757168Y+1043940D01*
X+3778504Y+1043940D01*
X+3778504Y+1097280D01*
D18*
X+4269740Y+574040D02*
X+4544060Y+574040D01*
X+4544060Y+1356360D01*
X+4269740Y+1356360D01*
X+4269740Y+574040D01*
D34*
X+4357523Y+767691D02*
X+4439819Y+767691D01*
X+4456278Y+784150D01*
X+4456278Y+849986D01*
X+4439819Y+866445D01*
X+4357523Y+866445D01*
X+4456278Y+899364D02*
X+4357523Y+899364D01*
X+4406900Y+948741D01*
X+4357523Y+998118D01*
X+4456278Y+998118D01*
X+4357523Y+1047496D02*
X+4357523Y+1113332D01*
X+4357523Y+1080414D02*
X+4456278Y+1080414D01*
X+4456278Y+1047496D02*
X+4456278Y+1113332D01*
D35*
X+1664700Y-614900D02*
X+1664700Y+295100D01*
X+1154700Y+295100D01*
X+1154700Y-614900D01*
X+1664700Y-614900D01*
X+1359700Y-159900D02*
X+1459700Y-159900D01*
X+1409700Y-109900D02*
X+1409700Y-209900D01*
D36*
X+1470700Y-220900D02*
X+1501200Y-251400D01*
X+1501200Y-342900D01*
X+1440200Y-403900D01*
X+1379200Y-403900D01*
X+1318200Y-342900D01*
X+1318200Y-251400D01*
X+1348700Y-220900D01*
X+1379200Y-98900D02*
X+1318200Y-37900D01*
X+1501200Y-37900D01*
D35*
X+1144000Y-614900D02*
X+1144000Y+295100D01*
X+634000Y+295100D01*
X+634000Y-614900D01*
X+1144000Y-614900D01*
X+839000Y-159900D02*
X+939000Y-159900D01*
X+889000Y-109900D02*
X+889000Y-209900D01*
D36*
X+950000Y-220900D02*
X+980500Y-251400D01*
X+980500Y-342900D01*
X+919500Y-403900D01*
X+858500Y-403900D01*
X+797500Y-342900D01*
X+797500Y-251400D01*
X+828000Y-220900D01*
X+828000Y-129400D02*
X+797500Y-98900D01*
X+797500Y-7400D01*
X+828000Y+23100D01*
X+858500Y+23100D01*
X+889000Y-7400D01*
X+889000Y-98900D01*
X+919500Y-129400D01*
X+980500Y-129400D01*
X+980500Y+23100D01*
D18*
X+497840Y+2174240D02*
X+1026160Y+2174240D01*
X+1026160Y+2448560D01*
X+497840Y+2448560D01*
X+497840Y+2174240D01*
D37*
X+592938Y+2311400D02*
X+656336Y+2311400D01*
X+624637Y+2332532D02*
X+624637Y+2290267D01*
X+698601Y+2321966D02*
X+719734Y+2343099D01*
X+719734Y+2279700D01*
X+772566Y+2332532D02*
X+783132Y+2343099D01*
X+814831Y+2343099D01*
X+825398Y+2332532D01*
X+825398Y+2321966D01*
X+814831Y+2311400D01*
X+783132Y+2311400D01*
X+772566Y+2300833D01*
X+772566Y+2279700D01*
X+825398Y+2279700D01*
X+846531Y+2343099D02*
X+846531Y+2311400D01*
X+878230Y+2279700D01*
X+909929Y+2311400D01*
X+909929Y+2343099D01*
D18*
X+218440Y-556260D02*
X+619760Y-556260D01*
X+619760Y+226060D01*
X+218440Y+226060D01*
X+218440Y-556260D01*
D38*
X+385572Y-433324D02*
X+452628Y-433324D01*
X+452628Y-366268D01*
X+452628Y-343916D02*
X+385572Y-343916D01*
X+419100Y-310388D01*
X+385572Y-276860D01*
X+452628Y-276860D01*
X+385572Y-243332D02*
X+385572Y-187452D01*
X+396748Y-187452D01*
X+452628Y-243332D01*
X+419100Y-142748D02*
X+407924Y-153924D01*
X+396748Y-153924D01*
X+385572Y-142748D01*
X+385572Y-109220D01*
X+396748Y-98044D01*
X+407924Y-98044D01*
X+419100Y-109220D01*
X+419100Y-142748D01*
X+430276Y-153924D01*
X+441452Y-153924D01*
X+452628Y-142748D01*
X+452628Y-109220D01*
X+441452Y-98044D01*
X+430276Y-98044D01*
X+419100Y-109220D01*
X+441452Y-75692D02*
X+396748Y-75692D01*
X+385572Y-64516D01*
X+385572Y-19812D01*
X+396748Y-8636D01*
X+441452Y-8636D01*
X+452628Y-19812D01*
X+452628Y-64516D01*
X+441452Y-75692D01*
X+452628Y-75692D02*
X+385572Y-8636D01*
X+385572Y+80772D02*
X+385572Y+24892D01*
X+407924Y+24892D01*
X+407924Y+69596D01*
X+419100Y+80772D01*
X+441452Y+80772D01*
X+452628Y+69596D01*
X+452628Y+36068D01*
X+441452Y+24892D01*
D18*
X+3939540Y+1717039D02*
X+4467860Y+1717039D01*
X+4467860Y+1991359D01*
X+3939540Y+1991359D01*
X+3939540Y+1717039D01*
D39*
X+4045204Y+1893823D02*
X+4045204Y+1814575D01*
X+4124452Y+1814575D01*
X+4150868Y+1814575D02*
X+4150868Y+1893823D01*
X+4203700Y+1893823D01*
X+4230116Y+1867407D01*
X+4230116Y+1840991D01*
X+4203700Y+1814575D01*
X+4150868Y+1814575D01*
X+4256532Y+1814575D02*
X+4256532Y+1893823D01*
X+4322572Y+1893823D01*
X+4335780Y+1880615D01*
X+4335780Y+1867407D01*
X+4322572Y+1854199D01*
X+4256532Y+1854199D01*
X+4322572Y+1854199D02*
X+4335780Y+1840991D01*
X+4335780Y+1814575D01*
D35*
X+2963000Y+2018600D02*
X+3423000Y+2018600D01*
X+3423000Y+2248600D01*
X+2963000Y+2248600D01*
X+2963000Y+2018600D01*
X+3193000Y+2183600D02*
X+3193000Y+2083600D01*
X+3243000Y+2133600D02*
X+3143000Y+2133600D01*
D40*
X+3053500Y+2098725D02*
X+3053500Y+2168475D01*
X+3111625Y+2168475D01*
X+3123250Y+2156850D01*
X+3123250Y+2145225D01*
X+3111625Y+2133600D01*
X+3053500Y+2133600D01*
X+3111625Y+2133600D02*
X+3123250Y+2121975D01*
X+3123250Y+2098725D01*
X+3169750Y+2145225D02*
X+3193000Y+2168475D01*
X+3193000Y+2098725D01*
X+3251125Y+2156850D02*
X+3262750Y+2168475D01*
X+3297625Y+2168475D01*
X+3309250Y+2156850D01*
X+3309250Y+2145225D01*
X+3297625Y+2133600D01*
X+3309250Y+2121975D01*
X+3309250Y+2110350D01*
X+3297625Y+2098725D01*
X+3262750Y+2098725D01*
X+3251125Y+2110350D01*
X+3274375Y+2133600D02*
X+3297625Y+2133600D01*
D21*
X+1079170Y+2640000D02*
X+1079170Y+2388540D01*
X+4429430Y+2388540D01*
X+4429430Y+2640000D01*
X+1079170Y+2640000D01*
X+1079170Y+2388540D01*
X+4429430Y+2388540D01*
X+4429430Y+2640000D01*
X+1079170Y+2640000D01*
D41*
X+2306244Y+2466264D02*
X+2306244Y+2562276D01*
X+2370252Y+2562276D01*
X+2402256Y+2530272D01*
X+2402256Y+2498268D01*
X+2370252Y+2466264D01*
X+2306244Y+2466264D01*
X+2450262Y+2562276D02*
X+2514270Y+2562276D01*
X+2482266Y+2562276D02*
X+2482266Y+2466264D01*
X+2450262Y+2466264D02*
X+2514270Y+2466264D01*
X+2562276Y+2482266D02*
X+2578278Y+2466264D01*
X+2642286Y+2466264D01*
X+2658288Y+2482266D01*
X+2658288Y+2498268D01*
X+2642286Y+2514270D01*
X+2578278Y+2514270D01*
X+2562276Y+2530272D01*
X+2562276Y+2546274D01*
X+2578278Y+2562276D01*
X+2642286Y+2562276D01*
X+2658288Y+2546274D01*
X+2690292Y+2466264D02*
X+2690292Y+2562276D01*
X+2770302Y+2562276D01*
X+2786304Y+2546274D01*
X+2786304Y+2530272D01*
X+2770302Y+2514270D01*
X+2690292Y+2514270D01*
X+2818308Y+2562276D02*
X+2818308Y+2466264D01*
X+2914320Y+2466264D01*
X+2946324Y+2466264D02*
X+2946324Y+2530272D01*
X+2978328Y+2562276D01*
X+3010332Y+2562276D01*
X+3042336Y+2530272D01*
X+3042336Y+2466264D01*
X+2946324Y+2498268D02*
X+3042336Y+2498268D01*
X+3170352Y+2562276D02*
X+3074340Y+2466264D01*
X+3074340Y+2562276D02*
X+3122346Y+2514270D01*
D17*
X+0Y-749300D02*
X+1714500Y-749300D01*
X+2235200Y+0D01*
X+4673600Y+0D01*
X+0Y-749300D02*
X+0Y+2743200D01*
X+4673600Y+2743200D01*
X+4673600Y+0D02*
X+4673600Y+2743200D01*
M02*
