G04 PROTEUS GERBER X2 FILE*
%TF.GenerationSoftware,Labcenter,Proteus,8.5-SP0-Build22067*%
%TF.CreationDate,2017-11-28T10:59:28+00:00*%
%TF.FileFunction,Copper,L16,Bot*%
%TF.FilePolarity,Positive*%
%TF.Part,Single*%
%FSLAX45Y45*%
%MOMM*%
G01*
%TA.AperFunction,Conductor*%
%ADD10C,0.254000*%
%TA.AperFunction,ComponentPad*%
%ADD11C,1.778000*%
%ADD12R,2.032000X2.032000*%
%ADD13C,1.016000*%
%ADD14R,2.286000X2.286000*%
%TA.AperFunction,WasherPad*%
%ADD16C,1.397000*%
%TA.AperFunction,Profile*%
%ADD17C,0.203200*%
G36*
X+1536700Y+2133600D02*
X+1502204Y+2051666D01*
X+1585793Y+2016472D01*
X+1619307Y+2100749D01*
X+1536700Y+2133600D01*
G37*
G36*
X+1790700Y+2133600D02*
X+1727364Y+2071217D01*
X+1791008Y+2006600D01*
X+1854338Y+2071525D01*
X+1790700Y+2133600D01*
G37*
G36*
X+2044700Y+2133600D02*
X+1990998Y+2062754D01*
X+2063276Y+2007966D01*
X+2116606Y+2081326D01*
X+2044700Y+2133600D01*
G37*
G36*
X+2298700Y+2133600D02*
X+2230181Y+2076959D01*
X+2287966Y+2007055D01*
X+2356700Y+2066227D01*
X+2298700Y+2133600D01*
G37*
G36*
X+2552700Y+2133600D02*
X+2489213Y+2071371D01*
X+2552700Y+2006600D01*
X+2616187Y+2071371D01*
X+2552700Y+2133600D01*
G37*
G36*
X+2806700Y+2133600D02*
X+2742908Y+2071684D01*
X+2806075Y+2006602D01*
X+2869880Y+2071059D01*
X+2806700Y+2133600D01*
G37*
G36*
X+1968500Y+1498600D02*
X+2005958Y+1505561D01*
X+1993900Y+1570442D01*
X+1943742Y+1527559D01*
X+1968500Y+1498600D01*
G37*
G36*
X+1968500Y+939800D02*
X+2005301Y+929939D01*
X+2022381Y+993681D01*
X+1958639Y+976601D01*
X+1968500Y+939800D01*
G37*
G36*
X+2514600Y+381000D02*
X+2551401Y+371139D01*
X+2568481Y+434881D01*
X+2504739Y+417801D01*
X+2514600Y+381000D01*
G37*
G36*
X+3340100Y+1498600D02*
X+3396896Y+1549400D01*
X+3340100Y+1612900D01*
X+3283304Y+1549399D01*
X+3340100Y+1498600D01*
G37*
G36*
X+3746500Y+1498600D02*
X+3689704Y+1447801D01*
X+3746500Y+1384300D01*
X+3803296Y+1447800D01*
X+3746500Y+1498600D01*
G37*
G36*
X+4406900Y+1219200D02*
X+4406900Y+1308099D01*
X+4316204Y+1308100D01*
X+4318018Y+1217423D01*
X+4406900Y+1219200D01*
G37*
G36*
X+1409700Y+150100D02*
X+1479433Y+223990D01*
X+1409700Y+289800D01*
X+1339967Y+223990D01*
X+1409700Y+150100D01*
G37*
G36*
X+4076700Y+1854199D02*
X+4077589Y+1943094D01*
X+3986898Y+1944001D01*
X+3987805Y+1853310D01*
X+4076700Y+1854199D01*
G37*
G36*
X+3048000Y+2133600D02*
X+3098800Y+2076804D01*
X+3162300Y+2133600D01*
X+3098800Y+2190396D01*
X+3048000Y+2133600D01*
G37*
G36*
X+63500Y-685800D02*
X+1681300Y-685800D01*
X+2202000Y+63500D01*
X+4610100Y+63500D01*
X+4610100Y+2679700D01*
X+63500Y+2679700D01*
X+63500Y-685800D01*
G37*
%LPC*%
G36*
X+2946399Y+2211603D02*
X+2995395Y+2260599D01*
X+3100605Y+2260599D01*
X+3135317Y+2225887D01*
X+3181702Y+2184399D01*
X+3818340Y+2184399D01*
X+4008149Y+1994590D01*
X+4077297Y+1993898D01*
X+4470399Y+1993898D01*
X+4470399Y+1714500D01*
X+3937001Y+1714500D01*
X+3937001Y+1853602D01*
X+3936309Y+1922750D01*
X+3776258Y+2082801D01*
X+3181702Y+2082801D01*
X+3135317Y+2041313D01*
X+3100605Y+2006601D01*
X+2995395Y+2006601D01*
X+2946399Y+2055597D01*
X+2946399Y+1993901D01*
X+2864980Y+1993901D01*
X+2856874Y+1985712D01*
X+2856874Y+1601378D01*
X+2881095Y+1625599D01*
X+2986305Y+1625599D01*
X+3035300Y+1576604D01*
X+3084295Y+1625599D01*
X+3189505Y+1625599D01*
X+3238500Y+1576604D01*
X+3247821Y+1585925D01*
X+3289301Y+1632302D01*
X+3289301Y+1659205D01*
X+3285701Y+1663701D01*
X+2959101Y+1663701D01*
X+2959101Y+1943099D01*
X+3746499Y+1943099D01*
X+3746499Y+1663701D01*
X+3403415Y+1663701D01*
X+3390899Y+1653260D01*
X+3390899Y+1632302D01*
X+3432387Y+1585917D01*
X+3441700Y+1576604D01*
X+3490695Y+1625599D01*
X+3595905Y+1625599D01*
X+3644900Y+1576604D01*
X+3693895Y+1625599D01*
X+3799105Y+1625599D01*
X+3848100Y+1576604D01*
X+3897095Y+1625599D01*
X+4002305Y+1625599D01*
X+4051300Y+1576604D01*
X+4100295Y+1625599D01*
X+4205505Y+1625599D01*
X+4279899Y+1551205D01*
X+4279899Y+1445995D01*
X+4205505Y+1371601D01*
X+4100295Y+1371601D01*
X+4051300Y+1420596D01*
X+4002305Y+1371601D01*
X+3897095Y+1371601D01*
X+3848100Y+1420596D01*
X+3838787Y+1411283D01*
X+3810397Y+1379543D01*
X+3831041Y+1358899D01*
X+4546599Y+1358899D01*
X+4546599Y+571501D01*
X+4267201Y+571501D01*
X+4267201Y+1217857D01*
X+4266412Y+1257301D01*
X+3788959Y+1257301D01*
X+3695701Y+1350559D01*
X+3695701Y+1364898D01*
X+3654221Y+1411275D01*
X+3644900Y+1420596D01*
X+3595905Y+1371601D01*
X+3490695Y+1371601D01*
X+3441700Y+1420596D01*
X+3392705Y+1371601D01*
X+3287495Y+1371601D01*
X+3238500Y+1420596D01*
X+3189505Y+1371601D01*
X+3084295Y+1371601D01*
X+3035300Y+1420596D01*
X+2986305Y+1371601D01*
X+2881095Y+1371601D01*
X+2856874Y+1395822D01*
X+2856874Y+1388034D01*
X+2619933Y+1151093D01*
X+2619933Y+1081206D01*
X+2765257Y+935882D01*
X+2765257Y+559817D01*
X+2614025Y+408585D01*
X+2606391Y+380097D01*
X+2641226Y+380097D01*
X+2693302Y+328021D01*
X+2693302Y+311323D01*
X+2788448Y+406469D01*
X+2830227Y+406469D01*
X+2806701Y+429995D01*
X+2806701Y+535205D01*
X+2881095Y+609599D01*
X+2986305Y+609599D01*
X+3035300Y+560604D01*
X+3084295Y+609599D01*
X+3189505Y+609599D01*
X+3238500Y+560604D01*
X+3287495Y+609599D01*
X+3392705Y+609599D01*
X+3441700Y+560604D01*
X+3490695Y+609599D01*
X+3595905Y+609599D01*
X+3644900Y+560604D01*
X+3693895Y+609599D01*
X+3799105Y+609599D01*
X+3848100Y+560604D01*
X+3897095Y+609599D01*
X+4002305Y+609599D01*
X+4051300Y+560604D01*
X+4100295Y+609599D01*
X+4205505Y+609599D01*
X+4279899Y+535205D01*
X+4279899Y+429995D01*
X+4205505Y+355601D01*
X+4100295Y+355601D01*
X+4051300Y+404596D01*
X+4002305Y+355601D01*
X+3897095Y+355601D01*
X+3848100Y+404596D01*
X+3799105Y+355601D01*
X+3693895Y+355601D01*
X+3644900Y+404596D01*
X+3595905Y+355601D01*
X+3490695Y+355601D01*
X+3441700Y+404596D01*
X+3392705Y+355601D01*
X+3287495Y+355601D01*
X+3238500Y+404596D01*
X+3189505Y+355601D01*
X+3084295Y+355601D01*
X+3083018Y+356878D01*
X+3031011Y+304871D01*
X+2830530Y+304871D01*
X+2672157Y+146498D01*
X+2006820Y+146498D01*
X+1848517Y+304801D01*
X+1467817Y+304801D01*
X+1470256Y+302499D01*
X+1562099Y+302499D01*
X+1562099Y-2299D01*
X+1257301Y-2299D01*
X+1257301Y+302499D01*
X+1349144Y+302499D01*
X+1358901Y+311707D01*
X+1358901Y+334559D01*
X+1336582Y+356878D01*
X+1335305Y+355601D01*
X+1230095Y+355601D01*
X+1181100Y+404596D01*
X+1132105Y+355601D01*
X+1026895Y+355601D01*
X+965200Y+417296D01*
X+903505Y+355601D01*
X+798295Y+355601D01*
X+755651Y+398245D01*
X+700306Y+342900D01*
X+595096Y+342900D01*
X+539751Y+398245D01*
X+497105Y+355599D01*
X+391895Y+355599D01*
X+317501Y+429993D01*
X+317501Y+535203D01*
X+391895Y+609597D01*
X+497105Y+609597D01*
X+552450Y+554252D01*
X+595096Y+596898D01*
X+700306Y+596898D01*
X+742950Y+554254D01*
X+798295Y+609599D01*
X+903505Y+609599D01*
X+965200Y+547904D01*
X+1026895Y+609599D01*
X+1132105Y+609599D01*
X+1181100Y+560604D01*
X+1230095Y+609599D01*
X+1335305Y+609599D01*
X+1384300Y+560604D01*
X+1433294Y+609599D01*
X+1538504Y+609599D01*
X+1612898Y+535205D01*
X+1612898Y+429995D01*
X+1589302Y+406399D01*
X+1830078Y+406399D01*
X+1789798Y+446679D01*
X+1789798Y+520325D01*
X+1841874Y+572401D01*
X+1915520Y+572401D01*
X+1917701Y+570220D01*
X+1917701Y+864877D01*
X+1879601Y+902977D01*
X+1879601Y+940703D01*
X+1841874Y+940703D01*
X+1789798Y+992779D01*
X+1789798Y+1066425D01*
X+1841874Y+1118501D01*
X+1915520Y+1118501D01*
X+1967596Y+1066425D01*
X+1967596Y+1031591D01*
X+1996085Y+1039225D01*
X+2146301Y+1189441D01*
X+2146301Y+1371073D01*
X+2095126Y+1319898D01*
X+2021480Y+1319898D01*
X+1969404Y+1371974D01*
X+1969404Y+1409701D01*
X+1931677Y+1409701D01*
X+1879601Y+1461777D01*
X+1879601Y+1499503D01*
X+1841875Y+1499503D01*
X+1789799Y+1551579D01*
X+1789799Y+1625225D01*
X+1841875Y+1677301D01*
X+1915521Y+1677301D01*
X+1943101Y+1649721D01*
X+1943101Y+1756959D01*
X+1899586Y+1800474D01*
X+1729951Y+1800474D01*
X+1556909Y+1973516D01*
X+1508492Y+1993901D01*
X+1397001Y+1993901D01*
X+1397001Y+2273299D01*
X+2946399Y+2273299D01*
X+2946399Y+2211603D01*
G37*
G36*
X+1244599Y+1739901D02*
X+203201Y+1739901D01*
X+203201Y+2019299D01*
X+1244599Y+2019299D01*
X+1244599Y+1739901D01*
G37*
G36*
X+1612899Y+1551205D02*
X+1612899Y+1445995D01*
X+1538505Y+1371601D01*
X+1433295Y+1371601D01*
X+1384300Y+1420596D01*
X+1335305Y+1371601D01*
X+1230095Y+1371601D01*
X+1181100Y+1420596D01*
X+1132105Y+1371601D01*
X+1026895Y+1371601D01*
X+965200Y+1433296D01*
X+903504Y+1371601D01*
X+798294Y+1371601D01*
X+755650Y+1414245D01*
X+700305Y+1358900D01*
X+595095Y+1358900D01*
X+539750Y+1414244D01*
X+497105Y+1371599D01*
X+391895Y+1371599D01*
X+317501Y+1445993D01*
X+317501Y+1551203D01*
X+391895Y+1625597D01*
X+497105Y+1625597D01*
X+552450Y+1570252D01*
X+595095Y+1612898D01*
X+700305Y+1612898D01*
X+742949Y+1570254D01*
X+798294Y+1625599D01*
X+903504Y+1625599D01*
X+965200Y+1563904D01*
X+1026895Y+1625599D01*
X+1132105Y+1625599D01*
X+1181100Y+1576604D01*
X+1230095Y+1625599D01*
X+1335305Y+1625599D01*
X+1384300Y+1576604D01*
X+1433295Y+1625599D01*
X+1538505Y+1625599D01*
X+1612899Y+1551205D01*
G37*
G36*
X+1257301Y-317501D02*
X+1562099Y-317501D01*
X+1562099Y-622299D01*
X+1257301Y-622299D01*
X+1257301Y-317501D01*
G37*
G36*
X+736601Y-317501D02*
X+1041399Y-317501D01*
X+1041399Y-622299D01*
X+736601Y-622299D01*
X+736601Y-317501D01*
G37*
G36*
X+736601Y+302499D02*
X+1041399Y+302499D01*
X+1041399Y-2299D01*
X+736601Y-2299D01*
X+736601Y+302499D01*
G37*
G36*
X+1028699Y+2171701D02*
X+495301Y+2171701D01*
X+495301Y+2451099D01*
X+1028699Y+2451099D01*
X+1028699Y+2171701D01*
G37*
G36*
X+495299Y-50799D02*
X+495299Y-558799D01*
X+215901Y-558799D01*
X+215901Y+228599D01*
X+495299Y+228599D01*
X+495299Y-50799D01*
G37*
G36*
X+3937001Y+2080995D02*
X+3937001Y+2186205D01*
X+4011395Y+2260599D01*
X+4116605Y+2260599D01*
X+4190999Y+2186205D01*
X+4190999Y+2080995D01*
X+4116605Y+2006601D01*
X+4011395Y+2006601D01*
X+3937001Y+2080995D01*
G37*
G36*
X+4362249Y+2559314D02*
X+4362249Y+2469886D01*
X+4299014Y+2406651D01*
X+4209586Y+2406651D01*
X+4154300Y+2461937D01*
X+4099014Y+2406651D01*
X+4009586Y+2406651D01*
X+3954300Y+2461937D01*
X+3899014Y+2406651D01*
X+3809586Y+2406651D01*
X+3754300Y+2461937D01*
X+3699014Y+2406651D01*
X+3609586Y+2406651D01*
X+3554300Y+2461937D01*
X+3499014Y+2406651D01*
X+3409586Y+2406651D01*
X+3354300Y+2461937D01*
X+3299014Y+2406651D01*
X+3209586Y+2406651D01*
X+3154300Y+2461937D01*
X+3099014Y+2406651D01*
X+3009586Y+2406651D01*
X+2954300Y+2461937D01*
X+2899014Y+2406651D01*
X+2809586Y+2406651D01*
X+2754300Y+2461937D01*
X+2699014Y+2406651D01*
X+2609586Y+2406651D01*
X+2554300Y+2461937D01*
X+2499014Y+2406651D01*
X+2409586Y+2406651D01*
X+2354300Y+2461937D01*
X+2299014Y+2406651D01*
X+2209586Y+2406651D01*
X+2154300Y+2461937D01*
X+2099014Y+2406651D01*
X+2009586Y+2406651D01*
X+1954300Y+2461937D01*
X+1899014Y+2406651D01*
X+1809586Y+2406651D01*
X+1754300Y+2461937D01*
X+1699014Y+2406651D01*
X+1609586Y+2406651D01*
X+1554300Y+2461937D01*
X+1499014Y+2406651D01*
X+1409586Y+2406651D01*
X+1354300Y+2461937D01*
X+1299014Y+2406651D01*
X+1209586Y+2406651D01*
X+1146351Y+2469886D01*
X+1146351Y+2559314D01*
X+1209586Y+2622549D01*
X+1299014Y+2622549D01*
X+1354300Y+2567263D01*
X+1409586Y+2622549D01*
X+1499014Y+2622549D01*
X+1554300Y+2567263D01*
X+1609586Y+2622549D01*
X+1699014Y+2622549D01*
X+1754300Y+2567263D01*
X+1809586Y+2622549D01*
X+1899014Y+2622549D01*
X+1954300Y+2567263D01*
X+2009586Y+2622549D01*
X+2099014Y+2622549D01*
X+2154300Y+2567263D01*
X+2209586Y+2622549D01*
X+2299014Y+2622549D01*
X+2354300Y+2567263D01*
X+2409586Y+2622549D01*
X+2499014Y+2622549D01*
X+2554300Y+2567263D01*
X+2609586Y+2622549D01*
X+2699014Y+2622549D01*
X+2754300Y+2567263D01*
X+2809586Y+2622549D01*
X+2899014Y+2622549D01*
X+2954300Y+2567263D01*
X+3009586Y+2622549D01*
X+3099014Y+2622549D01*
X+3154300Y+2567263D01*
X+3209586Y+2622549D01*
X+3299014Y+2622549D01*
X+3354300Y+2567263D01*
X+3409586Y+2622549D01*
X+3499014Y+2622549D01*
X+3554300Y+2567263D01*
X+3609586Y+2622549D01*
X+3699014Y+2622549D01*
X+3754300Y+2567263D01*
X+3809586Y+2622549D01*
X+3899014Y+2622549D01*
X+3954300Y+2567263D01*
X+4009586Y+2622549D01*
X+4099014Y+2622549D01*
X+4154300Y+2567263D01*
X+4209586Y+2622549D01*
X+4299014Y+2622549D01*
X+4362249Y+2559314D01*
G37*
G36*
X+127001Y+2411195D02*
X+127001Y+2516405D01*
X+201395Y+2590799D01*
X+306605Y+2590799D01*
X+380999Y+2516405D01*
X+380999Y+2411195D01*
X+306605Y+2336801D01*
X+201395Y+2336801D01*
X+127001Y+2411195D01*
G37*
G36*
X+4356101Y+137895D02*
X+4356101Y+243105D01*
X+4430495Y+317499D01*
X+4535705Y+317499D01*
X+4610099Y+243105D01*
X+4610099Y+137895D01*
X+4535705Y+63501D01*
X+4430495Y+63501D01*
X+4356101Y+137895D01*
G37*
G36*
X+4343401Y+2182595D02*
X+4343401Y+2287805D01*
X+4417795Y+2362199D01*
X+4523005Y+2362199D01*
X+4597399Y+2287805D01*
X+4597399Y+2182595D01*
X+4523005Y+2108201D01*
X+4417795Y+2108201D01*
X+4343401Y+2182595D01*
G37*
%LPD*%
G36*
X+3352800Y+1803400D02*
X+3283408Y+1747831D01*
X+3340100Y+1677037D01*
X+3409746Y+1735134D01*
X+3352800Y+1803400D01*
G37*
D10*
X+1968500Y+596900D02*
X+1968500Y+939800D01*
X+1968500Y+596900D02*
X+1968500Y+393700D01*
X+3746500Y+1498600D02*
X+3746500Y+1371600D01*
X+3810000Y+1308100D01*
X+4318000Y+1308100D01*
X+4406900Y+1219200D01*
X+3340100Y+1498600D02*
X+3340100Y+1790700D01*
X+3352800Y+1803400D01*
X+1968500Y+596900D02*
X+2243350Y+871750D01*
X+2243350Y+1768536D01*
X+2072753Y+1939133D01*
X+2063276Y+1939133D01*
X+2063276Y+2115024D01*
X+2044700Y+2133600D01*
X+2527300Y+1498600D02*
X+2398178Y+1498600D01*
X+2287966Y+1608812D01*
X+2287966Y+1608813D01*
X+2287966Y+2122866D01*
X+2298700Y+2133600D01*
X+2527300Y+939800D02*
X+2527300Y+1188928D01*
X+2711299Y+1372927D01*
X+2711299Y+1492975D01*
X+2552700Y+1651574D01*
X+2552700Y+2133600D01*
X+2514600Y+381000D02*
X+2714458Y+580858D01*
X+2714458Y+914841D01*
X+2569134Y+1060165D01*
X+2569134Y+1172134D01*
X+2806075Y+1409075D01*
X+2806075Y+2132975D01*
X+2806700Y+2133600D01*
X+1968500Y+939800D02*
X+2197100Y+1168400D01*
X+2197100Y+1739900D01*
X+2001229Y+1935771D01*
X+1791008Y+1935771D01*
X+1791008Y+2133292D01*
X+1790700Y+2133600D01*
X+1536700Y+2133600D02*
X+1536700Y+2065565D01*
X+1750992Y+1851273D01*
X+1920627Y+1851273D01*
X+1993900Y+1778000D01*
X+1993900Y+1508928D01*
X+1974242Y+1489270D01*
X+1968500Y+1498600D01*
X+1409700Y+150100D02*
X+1409700Y+355600D01*
X+1282700Y+482600D01*
X+3136900Y+482600D02*
X+3009970Y+355670D01*
X+2809489Y+355670D01*
X+2651116Y+197297D01*
X+2027861Y+197297D01*
X+1869558Y+355600D01*
X+1409700Y+355600D01*
X+3048000Y+2133600D02*
X+3797299Y+2133600D01*
X+4076700Y+1854199D01*
X+3352800Y+1803400D02*
X+3283408Y+1747831D01*
X+3340100Y+1677037D01*
X+3409746Y+1735134D01*
X+3352800Y+1803400D01*
X+1536700Y+2133600D02*
X+1502204Y+2051666D01*
X+1585793Y+2016472D01*
X+1619307Y+2100749D01*
X+1536700Y+2133600D01*
X+1790700Y+2133600D02*
X+1727364Y+2071217D01*
X+1791008Y+2006600D01*
X+1854338Y+2071525D01*
X+1790700Y+2133600D01*
X+2044700Y+2133600D02*
X+1990998Y+2062754D01*
X+2063276Y+2007966D01*
X+2116606Y+2081326D01*
X+2044700Y+2133600D01*
X+2298700Y+2133600D02*
X+2230181Y+2076959D01*
X+2287966Y+2007055D01*
X+2356700Y+2066227D01*
X+2298700Y+2133600D01*
X+2552700Y+2133600D02*
X+2489213Y+2071371D01*
X+2552700Y+2006600D01*
X+2616187Y+2071371D01*
X+2552700Y+2133600D01*
X+2806700Y+2133600D02*
X+2742908Y+2071684D01*
X+2806075Y+2006602D01*
X+2869880Y+2071059D01*
X+2806700Y+2133600D01*
X+1968500Y+1498600D02*
X+2005958Y+1505561D01*
X+1993900Y+1570442D01*
X+1943742Y+1527559D01*
X+1968500Y+1498600D01*
X+1968500Y+939800D02*
X+2005301Y+929939D01*
X+2022381Y+993681D01*
X+1958639Y+976601D01*
X+1968500Y+939800D01*
X+2514600Y+381000D02*
X+2551401Y+371139D01*
X+2568481Y+434881D01*
X+2504739Y+417801D01*
X+2514600Y+381000D01*
X+3340100Y+1498600D02*
X+3396896Y+1549400D01*
X+3340100Y+1612900D01*
X+3283304Y+1549399D01*
X+3340100Y+1498600D01*
X+3746500Y+1498600D02*
X+3689704Y+1447801D01*
X+3746500Y+1384300D01*
X+3803296Y+1447800D01*
X+3746500Y+1498600D01*
X+4406900Y+1219200D02*
X+4406900Y+1308099D01*
X+4316204Y+1308100D01*
X+4318018Y+1217423D01*
X+4406900Y+1219200D01*
X+1409700Y+150100D02*
X+1479433Y+223990D01*
X+1409700Y+289800D01*
X+1339967Y+223990D01*
X+1409700Y+150100D01*
X+4076700Y+1854199D02*
X+4077589Y+1943094D01*
X+3986898Y+1944001D01*
X+3987805Y+1853310D01*
X+4076700Y+1854199D01*
X+3048000Y+2133600D02*
X+3098800Y+2076804D01*
X+3162300Y+2133600D01*
X+3098800Y+2190396D01*
X+3048000Y+2133600D01*
X+63500Y-685800D02*
X+1681300Y-685800D01*
X+2202000Y+63500D01*
X+4610100Y+63500D01*
X+4610100Y+2679700D01*
X+63500Y+2679700D01*
X+63500Y-685800D01*
X+2946399Y+2211603D02*
X+2995395Y+2260599D01*
X+3100605Y+2260599D01*
X+3135317Y+2225887D01*
X+3181702Y+2184399D01*
X+3818340Y+2184399D01*
X+4008149Y+1994590D01*
X+4077297Y+1993898D01*
X+4470399Y+1993898D01*
X+4470399Y+1714500D01*
X+3937001Y+1714500D01*
X+3937001Y+1853602D01*
X+3936309Y+1922750D01*
X+3776258Y+2082801D01*
X+3181702Y+2082801D01*
X+3135317Y+2041313D01*
X+3100605Y+2006601D01*
X+2995395Y+2006601D01*
X+2946399Y+2055597D01*
X+2946399Y+1993901D01*
X+2864980Y+1993901D01*
X+2856874Y+1985712D01*
X+2856874Y+1601378D01*
X+2881095Y+1625599D01*
X+2986305Y+1625599D01*
X+3035300Y+1576604D01*
X+3084295Y+1625599D01*
X+3189505Y+1625599D01*
X+3238500Y+1576604D01*
X+3247821Y+1585925D01*
X+3289301Y+1632302D01*
X+3289301Y+1659205D01*
X+3285701Y+1663701D01*
X+2959101Y+1663701D01*
X+2959101Y+1943099D01*
X+3746499Y+1943099D01*
X+3746499Y+1663701D01*
X+3403415Y+1663701D01*
X+3390899Y+1653260D01*
X+3390899Y+1632302D01*
X+3432387Y+1585917D01*
X+3441700Y+1576604D01*
X+3490695Y+1625599D01*
X+3595905Y+1625599D01*
X+3644900Y+1576604D01*
X+3693895Y+1625599D01*
X+3799105Y+1625599D01*
X+3848100Y+1576604D01*
X+3897095Y+1625599D01*
X+4002305Y+1625599D01*
X+4051300Y+1576604D01*
X+4100295Y+1625599D01*
X+4205505Y+1625599D01*
X+4279899Y+1551205D01*
X+4279899Y+1445995D01*
X+4205505Y+1371601D01*
X+4100295Y+1371601D01*
X+4051300Y+1420596D01*
X+4002305Y+1371601D01*
X+3897095Y+1371601D01*
X+3848100Y+1420596D01*
X+3838787Y+1411283D01*
X+3810397Y+1379543D01*
X+3831041Y+1358899D01*
X+4546599Y+1358899D01*
X+4546599Y+571501D01*
X+4267201Y+571501D01*
X+4267201Y+1217857D01*
X+4266412Y+1257301D01*
X+3788959Y+1257301D01*
X+3695701Y+1350559D01*
X+3695701Y+1364898D01*
X+3654221Y+1411275D01*
X+3644900Y+1420596D01*
X+3595905Y+1371601D01*
X+3490695Y+1371601D01*
X+3441700Y+1420596D01*
X+3392705Y+1371601D01*
X+3287495Y+1371601D01*
X+3238500Y+1420596D01*
X+3189505Y+1371601D01*
X+3084295Y+1371601D01*
X+3035300Y+1420596D01*
X+2986305Y+1371601D01*
X+2881095Y+1371601D01*
X+2856874Y+1395822D01*
X+2856874Y+1388034D01*
X+2619933Y+1151093D01*
X+2619933Y+1081206D01*
X+2765257Y+935882D01*
X+2765257Y+559817D01*
X+2614025Y+408585D01*
X+2606391Y+380097D01*
X+2641226Y+380097D01*
X+2693302Y+328021D01*
X+2693302Y+311323D01*
X+2788448Y+406469D01*
X+2830227Y+406469D01*
X+2806701Y+429995D01*
X+2806701Y+535205D01*
X+2881095Y+609599D01*
X+2986305Y+609599D01*
X+3035300Y+560604D01*
X+3084295Y+609599D01*
X+3189505Y+609599D01*
X+3238500Y+560604D01*
X+3287495Y+609599D01*
X+3392705Y+609599D01*
X+3441700Y+560604D01*
X+3490695Y+609599D01*
X+3595905Y+609599D01*
X+3644900Y+560604D01*
X+3693895Y+609599D01*
X+3799105Y+609599D01*
X+3848100Y+560604D01*
X+3897095Y+609599D01*
X+4002305Y+609599D01*
X+4051300Y+560604D01*
X+4100295Y+609599D01*
X+4205505Y+609599D01*
X+4279899Y+535205D01*
X+4279899Y+429995D01*
X+4205505Y+355601D01*
X+4100295Y+355601D01*
X+4051300Y+404596D01*
X+4002305Y+355601D01*
X+3897095Y+355601D01*
X+3848100Y+404596D01*
X+3799105Y+355601D01*
X+3693895Y+355601D01*
X+3644900Y+404596D01*
X+3595905Y+355601D01*
X+3490695Y+355601D01*
X+3441700Y+404596D01*
X+3392705Y+355601D01*
X+3287495Y+355601D01*
X+3238500Y+404596D01*
X+3189505Y+355601D01*
X+3084295Y+355601D01*
X+3083018Y+356878D01*
X+3031011Y+304871D01*
X+2830530Y+304871D01*
X+2672157Y+146498D01*
X+2006820Y+146498D01*
X+1848517Y+304801D01*
X+1467817Y+304801D01*
X+1470256Y+302499D01*
X+1562099Y+302499D01*
X+1562099Y-2299D01*
X+1257301Y-2299D01*
X+1257301Y+302499D01*
X+1349144Y+302499D01*
X+1358901Y+311707D01*
X+1358901Y+334559D01*
X+1336582Y+356878D01*
X+1335305Y+355601D01*
X+1230095Y+355601D01*
X+1181100Y+404596D01*
X+1132105Y+355601D01*
X+1026895Y+355601D01*
X+965200Y+417296D01*
X+903505Y+355601D01*
X+798295Y+355601D01*
X+755651Y+398245D01*
X+700306Y+342900D01*
X+595096Y+342900D01*
X+539751Y+398245D01*
X+497105Y+355599D01*
X+391895Y+355599D01*
X+317501Y+429993D01*
X+317501Y+535203D01*
X+391895Y+609597D01*
X+497105Y+609597D01*
X+552450Y+554252D01*
X+595096Y+596898D01*
X+700306Y+596898D01*
X+742950Y+554254D01*
X+798295Y+609599D01*
X+903505Y+609599D01*
X+965200Y+547904D01*
X+1026895Y+609599D01*
X+1132105Y+609599D01*
X+1181100Y+560604D01*
X+1230095Y+609599D01*
X+1335305Y+609599D01*
X+1384300Y+560604D01*
X+1433294Y+609599D01*
X+1538504Y+609599D01*
X+1612898Y+535205D01*
X+1612898Y+429995D01*
X+1589302Y+406399D01*
X+1830078Y+406399D01*
X+1789798Y+446679D01*
X+1789798Y+520325D01*
X+1841874Y+572401D01*
X+1915520Y+572401D01*
X+1917701Y+570220D01*
X+1917701Y+864877D01*
X+1879601Y+902977D01*
X+1879601Y+940703D01*
X+1841874Y+940703D01*
X+1789798Y+992779D01*
X+1789798Y+1066425D01*
X+1841874Y+1118501D01*
X+1915520Y+1118501D01*
X+1967596Y+1066425D01*
X+1967596Y+1031591D01*
X+1996085Y+1039225D01*
X+2146301Y+1189441D01*
X+2146301Y+1371073D01*
X+2095126Y+1319898D01*
X+2021480Y+1319898D01*
X+1969404Y+1371974D01*
X+1969404Y+1409701D01*
X+1931677Y+1409701D01*
X+1879601Y+1461777D01*
X+1879601Y+1499503D01*
X+1841875Y+1499503D01*
X+1789799Y+1551579D01*
X+1789799Y+1625225D01*
X+1841875Y+1677301D01*
X+1915521Y+1677301D01*
X+1943101Y+1649721D01*
X+1943101Y+1756959D01*
X+1899586Y+1800474D01*
X+1729951Y+1800474D01*
X+1556909Y+1973516D01*
X+1508492Y+1993901D01*
X+1397001Y+1993901D01*
X+1397001Y+2273299D01*
X+2946399Y+2273299D01*
X+2946399Y+2211603D01*
X+1244599Y+1739901D02*
X+203201Y+1739901D01*
X+203201Y+2019299D01*
X+1244599Y+2019299D01*
X+1244599Y+1739901D01*
X+1612899Y+1551205D02*
X+1612899Y+1445995D01*
X+1538505Y+1371601D01*
X+1433295Y+1371601D01*
X+1384300Y+1420596D01*
X+1335305Y+1371601D01*
X+1230095Y+1371601D01*
X+1181100Y+1420596D01*
X+1132105Y+1371601D01*
X+1026895Y+1371601D01*
X+965200Y+1433296D01*
X+903504Y+1371601D01*
X+798294Y+1371601D01*
X+755650Y+1414245D01*
X+700305Y+1358900D01*
X+595095Y+1358900D01*
X+539750Y+1414244D01*
X+497105Y+1371599D01*
X+391895Y+1371599D01*
X+317501Y+1445993D01*
X+317501Y+1551203D01*
X+391895Y+1625597D01*
X+497105Y+1625597D01*
X+552450Y+1570252D01*
X+595095Y+1612898D01*
X+700305Y+1612898D01*
X+742949Y+1570254D01*
X+798294Y+1625599D01*
X+903504Y+1625599D01*
X+965200Y+1563904D01*
X+1026895Y+1625599D01*
X+1132105Y+1625599D01*
X+1181100Y+1576604D01*
X+1230095Y+1625599D01*
X+1335305Y+1625599D01*
X+1384300Y+1576604D01*
X+1433295Y+1625599D01*
X+1538505Y+1625599D01*
X+1612899Y+1551205D01*
X+1257301Y-317501D02*
X+1562099Y-317501D01*
X+1562099Y-622299D01*
X+1257301Y-622299D01*
X+1257301Y-317501D01*
X+736601Y-317501D02*
X+1041399Y-317501D01*
X+1041399Y-622299D01*
X+736601Y-622299D01*
X+736601Y-317501D01*
X+736601Y+302499D02*
X+1041399Y+302499D01*
X+1041399Y-2299D01*
X+736601Y-2299D01*
X+736601Y+302499D01*
X+1028699Y+2171701D02*
X+495301Y+2171701D01*
X+495301Y+2451099D01*
X+1028699Y+2451099D01*
X+1028699Y+2171701D01*
X+495299Y-50799D02*
X+495299Y-558799D01*
X+215901Y-558799D01*
X+215901Y+228599D01*
X+495299Y+228599D01*
X+495299Y-50799D01*
X+3937001Y+2080995D02*
X+3937001Y+2186205D01*
X+4011395Y+2260599D01*
X+4116605Y+2260599D01*
X+4190999Y+2186205D01*
X+4190999Y+2080995D01*
X+4116605Y+2006601D01*
X+4011395Y+2006601D01*
X+3937001Y+2080995D01*
X+4362249Y+2559314D02*
X+4362249Y+2469886D01*
X+4299014Y+2406651D01*
X+4209586Y+2406651D01*
X+4154300Y+2461937D01*
X+4099014Y+2406651D01*
X+4009586Y+2406651D01*
X+3954300Y+2461937D01*
X+3899014Y+2406651D01*
X+3809586Y+2406651D01*
X+3754300Y+2461937D01*
X+3699014Y+2406651D01*
X+3609586Y+2406651D01*
X+3554300Y+2461937D01*
X+3499014Y+2406651D01*
X+3409586Y+2406651D01*
X+3354300Y+2461937D01*
X+3299014Y+2406651D01*
X+3209586Y+2406651D01*
X+3154300Y+2461937D01*
X+3099014Y+2406651D01*
X+3009586Y+2406651D01*
X+2954300Y+2461937D01*
X+2899014Y+2406651D01*
X+2809586Y+2406651D01*
X+2754300Y+2461937D01*
X+2699014Y+2406651D01*
X+2609586Y+2406651D01*
X+2554300Y+2461937D01*
X+2499014Y+2406651D01*
X+2409586Y+2406651D01*
X+2354300Y+2461937D01*
X+2299014Y+2406651D01*
X+2209586Y+2406651D01*
X+2154300Y+2461937D01*
X+2099014Y+2406651D01*
X+2009586Y+2406651D01*
X+1954300Y+2461937D01*
X+1899014Y+2406651D01*
X+1809586Y+2406651D01*
X+1754300Y+2461937D01*
X+1699014Y+2406651D01*
X+1609586Y+2406651D01*
X+1554300Y+2461937D01*
X+1499014Y+2406651D01*
X+1409586Y+2406651D01*
X+1354300Y+2461937D01*
X+1299014Y+2406651D01*
X+1209586Y+2406651D01*
X+1146351Y+2469886D01*
X+1146351Y+2559314D01*
X+1209586Y+2622549D01*
X+1299014Y+2622549D01*
X+1354300Y+2567263D01*
X+1409586Y+2622549D01*
X+1499014Y+2622549D01*
X+1554300Y+2567263D01*
X+1609586Y+2622549D01*
X+1699014Y+2622549D01*
X+1754300Y+2567263D01*
X+1809586Y+2622549D01*
X+1899014Y+2622549D01*
X+1954300Y+2567263D01*
X+2009586Y+2622549D01*
X+2099014Y+2622549D01*
X+2154300Y+2567263D01*
X+2209586Y+2622549D01*
X+2299014Y+2622549D01*
X+2354300Y+2567263D01*
X+2409586Y+2622549D01*
X+2499014Y+2622549D01*
X+2554300Y+2567263D01*
X+2609586Y+2622549D01*
X+2699014Y+2622549D01*
X+2754300Y+2567263D01*
X+2809586Y+2622549D01*
X+2899014Y+2622549D01*
X+2954300Y+2567263D01*
X+3009586Y+2622549D01*
X+3099014Y+2622549D01*
X+3154300Y+2567263D01*
X+3209586Y+2622549D01*
X+3299014Y+2622549D01*
X+3354300Y+2567263D01*
X+3409586Y+2622549D01*
X+3499014Y+2622549D01*
X+3554300Y+2567263D01*
X+3609586Y+2622549D01*
X+3699014Y+2622549D01*
X+3754300Y+2567263D01*
X+3809586Y+2622549D01*
X+3899014Y+2622549D01*
X+3954300Y+2567263D01*
X+4009586Y+2622549D01*
X+4099014Y+2622549D01*
X+4154300Y+2567263D01*
X+4209586Y+2622549D01*
X+4299014Y+2622549D01*
X+4362249Y+2559314D01*
X+127001Y+2411195D02*
X+127001Y+2516405D01*
X+201395Y+2590799D01*
X+306605Y+2590799D01*
X+380999Y+2516405D01*
X+380999Y+2411195D01*
X+306605Y+2336801D01*
X+201395Y+2336801D01*
X+127001Y+2411195D01*
X+4356101Y+137895D02*
X+4356101Y+243105D01*
X+4430495Y+317499D01*
X+4535705Y+317499D01*
X+4610099Y+243105D01*
X+4610099Y+137895D01*
X+4535705Y+63501D01*
X+4430495Y+63501D01*
X+4356101Y+137895D01*
X+4343401Y+2182595D02*
X+4343401Y+2287805D01*
X+4417795Y+2362199D01*
X+4523005Y+2362199D01*
X+4597399Y+2287805D01*
X+4597399Y+2182595D01*
X+4523005Y+2108201D01*
X+4417795Y+2108201D01*
X+4343401Y+2182595D01*
X+3746499Y+1803400D02*
X+3606800Y+1803400D01*
X+3606800Y+1663701D02*
X+3606800Y+1803400D01*
X+3606800Y+1943099D02*
X+3606800Y+1803400D01*
X+4546599Y+965200D02*
X+4406900Y+965200D01*
X+4267201Y+965200D02*
X+4406900Y+965200D01*
X+1257301Y-469900D02*
X+1409700Y-469900D01*
X+1562099Y-469900D02*
X+1409700Y-469900D01*
X+1409700Y-622299D02*
X+1409700Y-469900D01*
X+1409700Y-317501D02*
X+1409700Y-469900D01*
X+736601Y-469900D02*
X+889000Y-469900D01*
X+1041399Y-469900D02*
X+889000Y-469900D01*
X+889000Y-622299D02*
X+889000Y-469900D01*
X+889000Y-317501D02*
X+889000Y-469900D01*
X+1028699Y+2311400D02*
X+889000Y+2311400D01*
X+889000Y+2451099D02*
X+889000Y+2311400D01*
X+889000Y+2171701D02*
X+889000Y+2311400D01*
X+215901Y-165100D02*
X+355600Y-165100D01*
X+495299Y-165100D02*
X+355600Y-165100D01*
D11*
X+4152900Y+1498600D03*
X+4152900Y+482600D03*
D12*
X+3098800Y+1803400D03*
X+3352800Y+1803400D03*
X+3606800Y+1803400D03*
X+1536700Y+2133600D03*
X+1790700Y+2133600D03*
X+2044700Y+2133600D03*
X+2298700Y+2133600D03*
X+2552700Y+2133600D03*
X+2806700Y+2133600D03*
X+342900Y+1879600D03*
X+596900Y+1879600D03*
X+850900Y+1879600D03*
X+1104900Y+1879600D03*
D13*
X+1878698Y+1588402D03*
X+1968500Y+1498600D03*
X+2058303Y+1408797D03*
X+1878697Y+1029602D03*
X+1968500Y+939800D03*
X+2058302Y+849997D03*
X+1878697Y+483502D03*
X+1968500Y+393700D03*
X+2058302Y+303897D03*
X+2437497Y+1588402D03*
X+2527300Y+1498600D03*
X+2617102Y+1408797D03*
X+2437498Y+1029603D03*
X+2527300Y+939800D03*
X+2617103Y+849998D03*
X+2424798Y+470803D03*
X+2514600Y+381000D03*
X+2604403Y+291198D03*
D11*
X+1485900Y+1498600D03*
X+1485899Y+482600D03*
X+1282700Y+1498600D03*
X+1282700Y+482600D03*
X+1079500Y+1498600D03*
X+1079500Y+482600D03*
X+850899Y+1498600D03*
X+850900Y+482600D03*
X+647700Y+1485899D03*
X+647701Y+469899D03*
X+444500Y+1498598D03*
X+444500Y+482598D03*
X+2933700Y+1498600D03*
X+2933700Y+482600D03*
X+3136900Y+1498600D03*
X+3136900Y+482600D03*
X+3543300Y+1498600D03*
X+3543300Y+482600D03*
X+3340100Y+1498600D03*
X+3340100Y+482600D03*
X+3949700Y+1498600D03*
X+3949700Y+482600D03*
X+3746500Y+1498600D03*
X+3746500Y+482600D03*
D12*
X+4406900Y+711200D03*
X+4406900Y+965200D03*
X+4406900Y+1219200D03*
D14*
X+1409700Y-469900D03*
X+1409700Y+150100D03*
X+889000Y-469900D03*
X+889000Y+150100D03*
D12*
X+889000Y+2311400D03*
X+635000Y+2311400D03*
X+355600Y+88900D03*
X+355600Y-165100D03*
X+355600Y-419100D03*
X+4076700Y+1854199D03*
X+4330700Y+1854199D03*
D11*
X+3048000Y+2133600D03*
X+4064000Y+2133600D03*
D16*
X+1254300Y+2514600D03*
X+1454300Y+2514600D03*
X+1654300Y+2514600D03*
X+1854300Y+2514600D03*
X+2054300Y+2514600D03*
X+2254300Y+2514600D03*
X+2454300Y+2514600D03*
X+2654300Y+2514600D03*
X+2854300Y+2514600D03*
X+3054300Y+2514600D03*
X+3254300Y+2514600D03*
X+3454300Y+2514600D03*
X+3654300Y+2514600D03*
X+3854300Y+2514600D03*
X+4054300Y+2514600D03*
X+4254300Y+2514600D03*
D11*
X+254000Y+2463800D03*
X+4483100Y+190500D03*
X+4470400Y+2235200D03*
D17*
X+0Y-749300D02*
X+1714500Y-749300D01*
X+2235200Y+0D01*
X+4673600Y+0D01*
X+0Y-749300D02*
X+0Y+2743200D01*
X+4673600Y+2743200D01*
X+4673600Y+0D02*
X+4673600Y+2743200D01*
M02*
