G04 PROTEUS GERBER X2 FILE*
%TF.GenerationSoftware,Labcenter,Proteus,8.5-SP0-Build22067*%
%TF.CreationDate,2017-11-28T10:59:28+00:00*%
%TF.FileFunction,Copper,L1,Top*%
%TF.FilePolarity,Positive*%
%TF.Part,Single*%
%FSLAX45Y45*%
%MOMM*%
G01*
%TA.AperFunction,Conductor*%
%ADD10C,0.254000*%
%TA.AperFunction,ComponentPad*%
%ADD11C,1.778000*%
%ADD12R,2.032000X2.032000*%
%ADD13C,1.016000*%
%ADD14R,2.286000X2.286000*%
%TA.AperFunction,SMDPad,CuDef*%
%ADD15R,1.143000X1.803400*%
%TA.AperFunction,WasherPad*%
%ADD16C,1.397000*%
%TA.AperFunction,Profile*%
%ADD17C,0.203200*%
G36*
X+4152900Y+1498600D02*
X+4096104Y+1447801D01*
X+4152900Y+1384300D01*
X+4209696Y+1447800D01*
X+4152900Y+1498600D01*
G37*
G36*
X+4152900Y+482600D02*
X+4215265Y+438817D01*
X+4264216Y+508543D01*
X+4189482Y+549444D01*
X+4152900Y+482600D01*
G37*
G36*
X+3352800Y+1803400D02*
X+3441418Y+1810465D01*
X+3434211Y+1900875D01*
X+3343964Y+1891859D01*
X+3352800Y+1803400D01*
G37*
G36*
X+2806700Y+2133600D02*
X+2868929Y+2070113D01*
X+2933700Y+2133600D01*
X+2868929Y+2197087D01*
X+2806700Y+2133600D01*
G37*
G36*
X+342900Y+1879600D02*
X+431793Y+1880697D01*
X+430674Y+1971387D01*
X+340025Y+1968453D01*
X+342900Y+1879600D01*
G37*
G36*
X+596900Y+1879600D02*
X+533413Y+1817371D01*
X+596900Y+1752600D01*
X+660387Y+1817371D01*
X+596900Y+1879600D01*
G37*
G36*
X+850900Y+1879600D02*
X+787413Y+1817371D01*
X+850899Y+1752600D01*
X+914386Y+1817370D01*
X+850900Y+1879600D01*
G37*
G36*
X+1104900Y+1879600D02*
X+1104011Y+1790705D01*
X+1194702Y+1789798D01*
X+1193795Y+1880489D01*
X+1104900Y+1879600D01*
G37*
G36*
X+1878698Y+1588402D02*
X+1878147Y+1626498D01*
X+1812162Y+1625542D01*
X+1845982Y+1568877D01*
X+1878698Y+1588402D01*
G37*
G36*
X+1878697Y+1029602D02*
X+1911692Y+1048652D01*
X+1878697Y+1105802D01*
X+1845702Y+1048651D01*
X+1878697Y+1029602D01*
G37*
G36*
X+1878697Y+483502D02*
X+1911692Y+502552D01*
X+1878697Y+559702D01*
X+1845702Y+502551D01*
X+1878697Y+483502D01*
G37*
G36*
X+2437497Y+1588402D02*
X+2418447Y+1621397D01*
X+2361297Y+1588402D01*
X+2418447Y+1555407D01*
X+2437497Y+1588402D01*
G37*
G36*
X+2437497Y+1588402D02*
X+2470307Y+1569035D01*
X+2503852Y+1625864D01*
X+2437864Y+1626500D01*
X+2437497Y+1588402D01*
G37*
G36*
X+2617102Y+1408797D02*
X+2636152Y+1375802D01*
X+2693302Y+1408797D01*
X+2636152Y+1441792D01*
X+2617102Y+1408797D01*
G37*
G36*
X+2437498Y+1029603D02*
X+2472512Y+1014585D01*
X+2498526Y+1075232D01*
X+2432998Y+1067436D01*
X+2437498Y+1029603D01*
G37*
G36*
X+2424798Y+470803D02*
X+2461599Y+460942D01*
X+2478679Y+524684D01*
X+2414937Y+507604D01*
X+2424798Y+470803D01*
G37*
G36*
X+1485900Y+1498600D02*
X+1481661Y+1422519D01*
X+1566722Y+1417778D01*
X+1561981Y+1502839D01*
X+1485900Y+1498600D01*
G37*
G36*
X+1485899Y+482600D02*
X+1481660Y+406519D01*
X+1566721Y+401778D01*
X+1561980Y+486839D01*
X+1485899Y+482600D01*
G37*
G36*
X+1282700Y+1498600D02*
X+1339496Y+1549400D01*
X+1282700Y+1612900D01*
X+1225904Y+1549399D01*
X+1282700Y+1498600D01*
G37*
G36*
X+1079500Y+482600D02*
X+1003718Y+490569D01*
X+994808Y+405842D01*
X+1080000Y+406402D01*
X+1079500Y+482600D01*
G37*
G36*
X+850899Y+1498600D02*
X+846660Y+1422519D01*
X+931721Y+1417778D01*
X+926980Y+1502839D01*
X+850899Y+1498600D01*
G37*
G36*
X+850899Y+1498600D02*
X+907695Y+1549400D01*
X+850899Y+1612900D01*
X+794103Y+1549399D01*
X+850899Y+1498600D01*
G37*
G36*
X+850900Y+482600D02*
X+926981Y+478361D01*
X+931722Y+563422D01*
X+846661Y+558681D01*
X+850900Y+482600D01*
G37*
G36*
X+850900Y+482600D02*
X+855139Y+558681D01*
X+770078Y+563422D01*
X+774819Y+478361D01*
X+850900Y+482600D01*
G37*
G36*
X+647700Y+1485899D02*
X+643461Y+1409818D01*
X+728522Y+1405077D01*
X+723781Y+1490138D01*
X+647700Y+1485899D01*
G37*
G36*
X+647701Y+469899D02*
X+643462Y+393818D01*
X+728523Y+389077D01*
X+723782Y+474138D01*
X+647701Y+469899D01*
G37*
G36*
X+444500Y+1498598D02*
X+520581Y+1494359D01*
X+525322Y+1579420D01*
X+440261Y+1574679D01*
X+444500Y+1498598D01*
G37*
G36*
X+444500Y+482598D02*
X+520581Y+478359D01*
X+525322Y+563420D01*
X+440261Y+558679D01*
X+444500Y+482598D01*
G37*
G36*
X+2933700Y+1498600D02*
X+2857619Y+1502839D01*
X+2852878Y+1417778D01*
X+2937939Y+1422519D01*
X+2933700Y+1498600D01*
G37*
G36*
X+2933700Y+482600D02*
X+2857619Y+486839D01*
X+2852878Y+401778D01*
X+2937939Y+406519D01*
X+2933700Y+482600D01*
G37*
G36*
X+3136900Y+482600D02*
X+3187700Y+425804D01*
X+3251200Y+482600D01*
X+3187700Y+539396D01*
X+3136900Y+482600D01*
G37*
G36*
X+3340100Y+482600D02*
X+3289300Y+539396D01*
X+3225800Y+482600D01*
X+3289300Y+425804D01*
X+3340100Y+482600D01*
G37*
G36*
X+1409700Y+150100D02*
X+1328427Y+211068D01*
X+1270889Y+134369D01*
X+1344132Y+72490D01*
X+1409700Y+150100D01*
G37*
G36*
X+889000Y+150100D02*
X+792029Y+180415D01*
X+763419Y+88900D01*
X+853126Y+55045D01*
X+889000Y+150100D01*
G37*
G36*
X+635000Y+2311400D02*
X+546105Y+2312289D01*
X+545198Y+2221598D01*
X+635889Y+2222505D01*
X+635000Y+2311400D01*
G37*
G36*
X+355600Y+88900D02*
X+417829Y+25413D01*
X+482600Y+88900D01*
X+417829Y+152387D01*
X+355600Y+88900D01*
G37*
G36*
X+355600Y+88900D02*
X+395922Y+168129D01*
X+315093Y+209266D01*
X+275581Y+127630D01*
X+355600Y+88900D01*
G37*
G36*
X+355600Y-419100D02*
X+444495Y-419989D01*
X+445402Y-329298D01*
X+354711Y-330205D01*
X+355600Y-419100D01*
G37*
G36*
X+3048000Y+2133600D02*
X+2997200Y+2190396D01*
X+2933700Y+2133600D01*
X+2997200Y+2076804D01*
X+3048000Y+2133600D01*
G37*
G36*
X+4064000Y+2133600D02*
X+4013200Y+2190396D01*
X+3949700Y+2133600D01*
X+4013200Y+2076804D01*
X+4064000Y+2133600D01*
G37*
D10*
X+1485900Y+1498600D02*
X+1575703Y+1408797D01*
X+2058303Y+1408797D01*
X+444500Y+482598D02*
X+558802Y+596900D01*
X+736600Y+596900D01*
X+850900Y+482600D01*
X+977820Y+609520D01*
X+1132194Y+609520D01*
X+1257300Y+484414D01*
X+1257300Y+482600D01*
X+1282700Y+482600D01*
X+1282700Y+1498600D02*
X+1409642Y+1625542D01*
X+1841558Y+1625542D01*
X+1878698Y+1588402D01*
X+1079500Y+1498600D02*
X+1222427Y+1355673D01*
X+1890066Y+1355673D01*
X+2057400Y+1188339D01*
X+2057400Y+850899D01*
X+2058302Y+849997D01*
X+850899Y+1498600D02*
X+977891Y+1371608D01*
X+1134728Y+1371608D01*
X+1201511Y+1304825D01*
X+1746485Y+1304825D01*
X+1875587Y+1175723D01*
X+1878697Y+1172613D01*
X+1878697Y+1029602D01*
X+647700Y+1485899D02*
X+827462Y+1306137D01*
X+1128337Y+1306137D01*
X+1180449Y+1254025D01*
X+1574800Y+1254025D01*
X+1574800Y+1099279D01*
X+2057063Y+617016D01*
X+2057063Y+406737D01*
X+2057400Y+406400D01*
X+2057400Y+304799D01*
X+2058302Y+303897D01*
X+444500Y+1498598D02*
X+687760Y+1255338D01*
X+1096403Y+1255338D01*
X+1107290Y+1255338D01*
X+1159411Y+1203217D01*
X+1517831Y+1203217D01*
X+1517831Y+1084430D01*
X+1878697Y+723564D01*
X+1878697Y+483502D01*
X+2933700Y+1498600D02*
X+2843897Y+1408797D01*
X+2617102Y+1408797D01*
X+3136900Y+1498600D02*
X+3009636Y+1625864D01*
X+2474959Y+1625864D01*
X+2437497Y+1588402D01*
X+3340100Y+1498600D02*
X+3199506Y+1358006D01*
X+2781300Y+1358006D01*
X+2452897Y+1029603D01*
X+2437498Y+1029603D01*
X+3543300Y+1498600D02*
X+3416090Y+1371390D01*
X+3284690Y+1371390D01*
X+3220542Y+1307242D01*
X+2881582Y+1307242D01*
X+2617103Y+1042763D01*
X+2617103Y+849998D01*
X+2424798Y+470803D02*
X+3210440Y+1256445D01*
X+3252212Y+1256445D01*
X+3316329Y+1320562D01*
X+3568462Y+1320562D01*
X+3746500Y+1498600D01*
X+2604403Y+291198D02*
X+2604403Y+578564D01*
X+3231279Y+1205440D01*
X+3275570Y+1205440D01*
X+3339849Y+1269719D01*
X+3697203Y+1269719D01*
X+3926084Y+1498600D01*
X+3949700Y+1498600D01*
X+647701Y+469899D02*
X+762000Y+355600D01*
X+944172Y+355600D01*
X+990600Y+402028D01*
X+1079500Y+482600D01*
X+1210485Y+351615D01*
X+1354914Y+351615D01*
X+1485899Y+482600D01*
X+1574799Y+393700D01*
X+1948605Y+393700D01*
X+1953557Y+398652D01*
X+1968500Y+393700D01*
X+2501900Y+368300D02*
X+2501900Y+267417D01*
X+2574031Y+195286D01*
X+2646386Y+195286D01*
X+2933700Y+482600D01*
X+1968500Y+393700D02*
X+1968500Y+265426D01*
X+2019963Y+213963D01*
X+2347563Y+213963D01*
X+2501900Y+368300D01*
X+2514600Y+381000D01*
X+2933700Y+482600D02*
X+3063301Y+352999D01*
X+3413699Y+352999D01*
X+3543300Y+482600D01*
X+3670273Y+355627D01*
X+3822727Y+355627D01*
X+3949700Y+482600D01*
X+3746500Y+482600D02*
X+3616536Y+612564D01*
X+3470064Y+612564D01*
X+3340100Y+482600D01*
X+3136900Y+482600D01*
X+1968500Y+1498600D02*
X+2527300Y+1498600D01*
X+2527300Y+939800D02*
X+2401616Y+939800D01*
X+2273820Y+939800D01*
X+2095209Y+761189D01*
X+2021491Y+761189D01*
X+1968500Y+814180D01*
X+1968500Y+939800D01*
X+2527300Y+1498600D02*
X+2527300Y+1247792D01*
X+2332844Y+1053336D01*
X+2332844Y+1045008D01*
X+2332844Y+1008572D01*
X+2401616Y+939800D01*
X+850899Y+1498600D02*
X+850899Y+1879599D01*
X+850900Y+1879600D01*
X+1282700Y+1498600D02*
X+1282700Y+1701800D01*
X+1104900Y+1879600D01*
X+444500Y+1498598D02*
X+596900Y+1650998D01*
X+596900Y+1879600D01*
X+2437497Y+1588402D02*
X+2016220Y+1588402D01*
X+1864722Y+1739900D01*
X+1358900Y+1739900D01*
X+1282444Y+1816356D01*
X+1282444Y+2041374D01*
X+500661Y+2041374D01*
X+363449Y+1904162D01*
X+363449Y+1888208D01*
X+342900Y+1879600D01*
X+3352800Y+1803400D02*
X+3352800Y+1819464D01*
X+3497493Y+1964157D01*
X+3774289Y+1964157D01*
X+3774289Y+1684107D01*
X+3771032Y+1680850D01*
X+4158545Y+1680850D01*
X+4292058Y+1547337D01*
X+4292058Y+1404055D01*
X+4529777Y+1404055D01*
X+4594904Y+1338928D01*
X+4594904Y+586697D01*
X+4516750Y+508543D01*
X+4178843Y+508543D01*
X+4152900Y+482600D01*
X+4152900Y+1498600D02*
X+4152900Y+952500D01*
X+4394200Y+711200D01*
X+4406900Y+711200D01*
X+3746500Y+482600D02*
X+3975100Y+711200D01*
X+4394200Y+711200D01*
X+355600Y+88900D02*
X+800100Y+88900D01*
X+812800Y+101600D01*
X+889000Y+150100D01*
X+355600Y-419100D02*
X+468750Y-305950D01*
X+729676Y-305950D01*
X+1169995Y+134369D01*
X+1287780Y+134369D01*
X+1409700Y+150100D01*
X+635000Y+2311400D02*
X+368300Y+2044700D01*
X+177800Y+2044700D01*
X+177800Y+1739901D01*
X+315093Y+1602608D01*
X+315093Y+129407D01*
X+355600Y+88900D01*
X+3098800Y+1813038D02*
X+3208920Y+1678929D01*
X+3262268Y+1625581D01*
X+4025919Y+1625581D01*
X+4152900Y+1498600D01*
X+3048000Y+2133600D02*
X+2806700Y+2133600D01*
X+3098800Y+1803400D02*
X+3098800Y+1813038D01*
X+3098800Y+1894400D01*
X+3338000Y+2133600D01*
X+4064000Y+2133600D01*
X+4152900Y+1498600D02*
X+4096104Y+1447801D01*
X+4152900Y+1384300D01*
X+4209696Y+1447800D01*
X+4152900Y+1498600D01*
X+4152900Y+482600D02*
X+4215265Y+438817D01*
X+4264216Y+508543D01*
X+4189482Y+549444D01*
X+4152900Y+482600D01*
X+3352800Y+1803400D02*
X+3441418Y+1810465D01*
X+3434211Y+1900875D01*
X+3343964Y+1891859D01*
X+3352800Y+1803400D01*
X+2806700Y+2133600D02*
X+2868929Y+2070113D01*
X+2933700Y+2133600D01*
X+2868929Y+2197087D01*
X+2806700Y+2133600D01*
X+342900Y+1879600D02*
X+431793Y+1880697D01*
X+430674Y+1971387D01*
X+340025Y+1968453D01*
X+342900Y+1879600D01*
X+596900Y+1879600D02*
X+533413Y+1817371D01*
X+596900Y+1752600D01*
X+660387Y+1817371D01*
X+596900Y+1879600D01*
X+850900Y+1879600D02*
X+787413Y+1817371D01*
X+850899Y+1752600D01*
X+914386Y+1817370D01*
X+850900Y+1879600D01*
X+1104900Y+1879600D02*
X+1104011Y+1790705D01*
X+1194702Y+1789798D01*
X+1193795Y+1880489D01*
X+1104900Y+1879600D01*
X+1878698Y+1588402D02*
X+1878147Y+1626498D01*
X+1812162Y+1625542D01*
X+1845982Y+1568877D01*
X+1878698Y+1588402D01*
X+1878697Y+1029602D02*
X+1911692Y+1048652D01*
X+1878697Y+1105802D01*
X+1845702Y+1048651D01*
X+1878697Y+1029602D01*
X+1878697Y+483502D02*
X+1911692Y+502552D01*
X+1878697Y+559702D01*
X+1845702Y+502551D01*
X+1878697Y+483502D01*
X+2437497Y+1588402D02*
X+2418447Y+1621397D01*
X+2361297Y+1588402D01*
X+2418447Y+1555407D01*
X+2437497Y+1588402D01*
X+2470307Y+1569035D01*
X+2503852Y+1625864D01*
X+2437864Y+1626500D01*
X+2437497Y+1588402D01*
X+2617102Y+1408797D02*
X+2636152Y+1375802D01*
X+2693302Y+1408797D01*
X+2636152Y+1441792D01*
X+2617102Y+1408797D01*
X+2437498Y+1029603D02*
X+2472512Y+1014585D01*
X+2498526Y+1075232D01*
X+2432998Y+1067436D01*
X+2437498Y+1029603D01*
X+2424798Y+470803D02*
X+2461599Y+460942D01*
X+2478679Y+524684D01*
X+2414937Y+507604D01*
X+2424798Y+470803D01*
X+1485900Y+1498600D02*
X+1481661Y+1422519D01*
X+1566722Y+1417778D01*
X+1561981Y+1502839D01*
X+1485900Y+1498600D01*
X+1485899Y+482600D02*
X+1481660Y+406519D01*
X+1566721Y+401778D01*
X+1561980Y+486839D01*
X+1485899Y+482600D01*
X+1282700Y+1498600D02*
X+1339496Y+1549400D01*
X+1282700Y+1612900D01*
X+1225904Y+1549399D01*
X+1282700Y+1498600D01*
X+1079500Y+482600D02*
X+1003718Y+490569D01*
X+994808Y+405842D01*
X+1080000Y+406402D01*
X+1079500Y+482600D01*
X+850899Y+1498600D02*
X+846660Y+1422519D01*
X+931721Y+1417778D01*
X+926980Y+1502839D01*
X+850899Y+1498600D01*
X+907695Y+1549400D01*
X+850899Y+1612900D01*
X+794103Y+1549399D01*
X+850899Y+1498600D01*
X+850900Y+482600D02*
X+926981Y+478361D01*
X+931722Y+563422D01*
X+846661Y+558681D01*
X+850900Y+482600D01*
X+855139Y+558681D01*
X+770078Y+563422D01*
X+774819Y+478361D01*
X+850900Y+482600D01*
X+647700Y+1485899D02*
X+643461Y+1409818D01*
X+728522Y+1405077D01*
X+723781Y+1490138D01*
X+647700Y+1485899D01*
X+647701Y+469899D02*
X+643462Y+393818D01*
X+728523Y+389077D01*
X+723782Y+474138D01*
X+647701Y+469899D01*
X+444500Y+1498598D02*
X+520581Y+1494359D01*
X+525322Y+1579420D01*
X+440261Y+1574679D01*
X+444500Y+1498598D01*
X+444500Y+482598D02*
X+520581Y+478359D01*
X+525322Y+563420D01*
X+440261Y+558679D01*
X+444500Y+482598D01*
X+2933700Y+1498600D02*
X+2857619Y+1502839D01*
X+2852878Y+1417778D01*
X+2937939Y+1422519D01*
X+2933700Y+1498600D01*
X+2933700Y+482600D02*
X+2857619Y+486839D01*
X+2852878Y+401778D01*
X+2937939Y+406519D01*
X+2933700Y+482600D01*
X+3136900Y+482600D02*
X+3187700Y+425804D01*
X+3251200Y+482600D01*
X+3187700Y+539396D01*
X+3136900Y+482600D01*
X+3340100Y+482600D02*
X+3289300Y+539396D01*
X+3225800Y+482600D01*
X+3289300Y+425804D01*
X+3340100Y+482600D01*
X+1409700Y+150100D02*
X+1328427Y+211068D01*
X+1270889Y+134369D01*
X+1344132Y+72490D01*
X+1409700Y+150100D01*
X+889000Y+150100D02*
X+792029Y+180415D01*
X+763419Y+88900D01*
X+853126Y+55045D01*
X+889000Y+150100D01*
X+635000Y+2311400D02*
X+546105Y+2312289D01*
X+545198Y+2221598D01*
X+635889Y+2222505D01*
X+635000Y+2311400D01*
X+355600Y+88900D02*
X+417829Y+25413D01*
X+482600Y+88900D01*
X+417829Y+152387D01*
X+355600Y+88900D01*
X+395922Y+168129D01*
X+315093Y+209266D01*
X+275581Y+127630D01*
X+355600Y+88900D01*
X+355600Y-419100D02*
X+444495Y-419989D01*
X+445402Y-329298D01*
X+354711Y-330205D01*
X+355600Y-419100D01*
X+3048000Y+2133600D02*
X+2997200Y+2190396D01*
X+2933700Y+2133600D01*
X+2997200Y+2076804D01*
X+3048000Y+2133600D01*
X+4064000Y+2133600D02*
X+4013200Y+2190396D01*
X+3949700Y+2133600D01*
X+4013200Y+2076804D01*
X+4064000Y+2133600D01*
D11*
X+4152900Y+1498600D03*
X+4152900Y+482600D03*
D12*
X+3098800Y+1803400D03*
X+3352800Y+1803400D03*
X+3606800Y+1803400D03*
X+1536700Y+2133600D03*
X+1790700Y+2133600D03*
X+2044700Y+2133600D03*
X+2298700Y+2133600D03*
X+2552700Y+2133600D03*
X+2806700Y+2133600D03*
X+342900Y+1879600D03*
X+596900Y+1879600D03*
X+850900Y+1879600D03*
X+1104900Y+1879600D03*
D13*
X+1878698Y+1588402D03*
X+1968500Y+1498600D03*
X+2058303Y+1408797D03*
X+1878697Y+1029602D03*
X+1968500Y+939800D03*
X+2058302Y+849997D03*
X+1878697Y+483502D03*
X+1968500Y+393700D03*
X+2058302Y+303897D03*
X+2437497Y+1588402D03*
X+2527300Y+1498600D03*
X+2617102Y+1408797D03*
X+2437498Y+1029603D03*
X+2527300Y+939800D03*
X+2617103Y+849998D03*
X+2424798Y+470803D03*
X+2514600Y+381000D03*
X+2604403Y+291198D03*
D11*
X+1485900Y+1498600D03*
X+1485899Y+482600D03*
X+1282700Y+1498600D03*
X+1282700Y+482600D03*
X+1079500Y+1498600D03*
X+1079500Y+482600D03*
X+850899Y+1498600D03*
X+850900Y+482600D03*
X+647700Y+1485899D03*
X+647701Y+469899D03*
X+444500Y+1498598D03*
X+444500Y+482598D03*
X+2933700Y+1498600D03*
X+2933700Y+482600D03*
X+3136900Y+1498600D03*
X+3136900Y+482600D03*
X+3543300Y+1498600D03*
X+3543300Y+482600D03*
X+3340100Y+1498600D03*
X+3340100Y+482600D03*
X+3949700Y+1498600D03*
X+3949700Y+482600D03*
X+3746500Y+1498600D03*
X+3746500Y+482600D03*
D12*
X+4406900Y+711200D03*
X+4406900Y+965200D03*
X+4406900Y+1219200D03*
D14*
X+1409700Y-469900D03*
X+1409700Y+150100D03*
X+889000Y-469900D03*
X+889000Y+150100D03*
D12*
X+889000Y+2311400D03*
X+635000Y+2311400D03*
X+355600Y+88900D03*
X+355600Y-165100D03*
X+355600Y-419100D03*
X+4076700Y+1854199D03*
X+4330700Y+1854199D03*
D11*
X+3048000Y+2133600D03*
D15*
X+3338000Y+2133600D03*
D11*
X+4064000Y+2133600D03*
D16*
X+1254300Y+2514600D03*
X+1454300Y+2514600D03*
X+1654300Y+2514600D03*
X+1854300Y+2514600D03*
X+2054300Y+2514600D03*
X+2254300Y+2514600D03*
X+2454300Y+2514600D03*
X+2654300Y+2514600D03*
X+2854300Y+2514600D03*
X+3054300Y+2514600D03*
X+3254300Y+2514600D03*
X+3454300Y+2514600D03*
X+3654300Y+2514600D03*
X+3854300Y+2514600D03*
X+4054300Y+2514600D03*
X+4254300Y+2514600D03*
D11*
X+254000Y+2463800D03*
X+4483100Y+190500D03*
X+4470400Y+2235200D03*
D17*
X+0Y-749300D02*
X+1714500Y-749300D01*
X+2235200Y+0D01*
X+4673600Y+0D01*
X+0Y-749300D02*
X+0Y+2743200D01*
X+4673600Y+2743200D01*
X+4673600Y+0D02*
X+4673600Y+2743200D01*
M02*
